<svg width="81" height="14" viewBox="0 0 81 14" fill="none" xmlns="http://www.w3.org/2000/svg">
<path d="M3.35156 11.0645H7.77051C8.37598 11.0645 8.67383 10.7666 8.67383 10.1074V6.69434C8.67383 6.10352 8.42969 5.80078 7.92676 5.75195V4.59473C7.92676 2.85156 6.77441 2.00684 5.56348 2.00684C4.34766 2.00684 3.19531 2.85156 3.19531 4.59473V5.77148C2.73145 5.84473 2.44824 6.14258 2.44824 6.69434V10.1074C2.44824 10.7666 2.74609 11.0645 3.35156 11.0645ZM3.98633 4.50195C3.98633 3.36914 4.70898 2.76367 5.56348 2.76367C6.41309 2.76367 7.13574 3.36914 7.13574 4.50195V5.74219L3.98633 5.75195V4.50195Z" fill="#4E8B43"/>
<path d="M19.4844 11.0879C20.9434 11.0879 21.8926 10.0098 21.8926 8.1875V7.61328C21.8926 5.73828 20.9141 4.72461 19.4902 4.72461C18.6875 4.72461 17.9902 5.12891 17.6973 5.68555H17.6445V2.58008H16.3438V11H17.6094V10.0566H17.6621C17.9961 10.6895 18.5996 11.0879 19.4844 11.0879ZM19.1621 10.0156C18.2188 10.0156 17.6328 9.35938 17.6328 8.12305V7.67773C17.6328 6.44727 18.2188 5.79688 19.1621 5.79688C19.9941 5.79688 20.5684 6.45312 20.5684 7.67773V8.13477C20.5684 9.35352 19.9941 10.0156 19.1621 10.0156ZM24.9922 11.0938C25.9062 11.0938 26.4512 10.7129 26.7207 10.2383H26.7676V11H28.0039V6.78125C28.0039 5.39844 26.9785 4.71289 25.6016 4.71289C23.9492 4.71289 23.2461 5.5918 23.1934 6.64648H24.4121C24.459 6.0957 24.8633 5.72656 25.5723 5.72656C26.2988 5.72656 26.7207 6.11914 26.7207 6.82812V7.41992H25.1504C23.7266 7.41992 22.9648 8.11719 22.9648 9.21875C22.9648 10.373 23.791 11.0938 24.9922 11.0938ZM25.3848 10.1035C24.8105 10.1035 24.2715 9.79297 24.2715 9.14844C24.2715 8.63281 24.6172 8.27539 25.373 8.27539H26.7207V8.96094C26.7207 9.63477 26.1406 10.1035 25.3848 10.1035ZM30.0195 4.80664H29.1465V5.84961H30.002V9.25977C30.002 10.502 30.418 11.041 31.9238 11.041C32.1875 11.041 32.4336 11.0176 32.5391 11V10.0039C32.4629 10.0156 32.3574 10.0156 32.2461 10.0156C31.5488 10.0156 31.2969 9.82812 31.2969 9.1543V5.84961H32.5039V4.80664H31.2969V3.30078H30.0195V4.80664ZM35.5156 11.0938C36.4297 11.0938 36.9746 10.7129 37.2441 10.2383H37.291V11H38.5273V6.78125C38.5273 5.39844 37.502 4.71289 36.125 4.71289C34.4727 4.71289 33.7695 5.5918 33.7168 6.64648H34.9355C34.9824 6.0957 35.3867 5.72656 36.0957 5.72656C36.8223 5.72656 37.2441 6.11914 37.2441 6.82812V7.41992H35.6738C34.25 7.41992 33.4883 8.11719 33.4883 9.21875C33.4883 10.373 34.3145 11.0938 35.5156 11.0938ZM35.9082 10.1035C35.334 10.1035 34.7949 9.79297 34.7949 9.14844C34.7949 8.63281 35.1406 8.27539 35.8965 8.27539H37.2441V8.96094C37.2441 9.63477 36.6641 10.1035 35.9082 10.1035ZM43.2852 11.0879C44.7441 11.0879 45.6934 10.0098 45.6934 8.1875V7.61328C45.6934 5.73828 44.7148 4.72461 43.291 4.72461C42.4883 4.72461 41.791 5.12891 41.498 5.68555H41.4453V2.58008H40.1445V11H41.4102V10.0566H41.4629C41.7969 10.6895 42.4004 11.0879 43.2852 11.0879ZM42.9629 10.0156C42.0195 10.0156 41.4336 9.35938 41.4336 8.12305V7.67773C41.4336 6.44727 42.0195 5.79688 42.9629 5.79688C43.7949 5.79688 44.3691 6.45312 44.3691 7.67773V8.13477C44.3691 9.35352 43.7949 10.0156 42.9629 10.0156ZM47.0352 3.29492C47.0352 3.72266 47.3867 4.02734 47.8086 4.02734C48.2305 4.02734 48.5762 3.72266 48.5762 3.29492C48.5762 2.86719 48.2305 2.55664 47.8086 2.55664C47.3867 2.55664 47.0352 2.86719 47.0352 3.29492ZM47.1582 11H48.459V4.80664H47.1582V11ZM50.5742 4.80664H49.7012V5.84961H50.5566V9.25977C50.5566 10.502 50.9727 11.041 52.4785 11.041C52.7422 11.041 52.9883 11.0176 53.0938 11V10.0039C53.0176 10.0156 52.9121 10.0156 52.8008 10.0156C52.1035 10.0156 51.8516 9.82812 51.8516 9.1543V5.84961H53.0586V4.80664H51.8516V3.30078H50.5742V4.80664ZM54.4824 10.3145C54.4824 10.7598 54.8398 11.123 55.2852 11.123C55.7246 11.123 56.0879 10.7598 56.0879 10.3145C56.0879 9.875 55.7246 9.51172 55.2852 9.51172C54.8398 9.51172 54.4824 9.875 54.4824 10.3145ZM57.3477 8.15234C57.3477 9.88672 58.3379 11.1055 60.0195 11.1055C61.4609 11.1055 62.3574 10.3672 62.5215 9.13086H61.291C61.2031 9.61133 60.8164 10.0273 60.0957 10.0273C59.2109 10.0273 58.6543 9.30078 58.6543 8.15234V7.625C58.6543 6.48242 59.1875 5.7793 60.0898 5.7793C60.7051 5.7793 61.1504 6.23633 61.2559 6.75781H62.4863C62.4395 5.67383 61.5254 4.70117 60.0195 4.70117C58.3438 4.70117 57.3477 5.90234 57.3477 7.5957V8.15234ZM66.3184 4.70117C64.5371 4.70117 63.5586 5.96094 63.5586 7.64258V8.14062C63.5586 9.88672 64.5312 11.1055 66.3184 11.1055C68.1055 11.1055 69.0664 9.88672 69.0664 8.14062V7.64258C69.0664 5.95508 68.0996 4.70117 66.3184 4.70117ZM66.3184 5.74414C67.2852 5.74414 67.7598 6.5293 67.7598 7.66016V8.13477C67.7598 9.24805 67.291 10.0566 66.3184 10.0566C65.3457 10.0566 64.8711 9.24219 64.8711 8.13477V7.66016C64.8711 6.53516 65.3516 5.74414 66.3184 5.74414ZM70.4785 11H71.7734V7.16797C71.7734 6.27148 72.3125 5.82617 72.9863 5.82617C73.707 5.82617 74.1875 6.25977 74.1875 7.17969V11H75.4531V7.17969C75.4531 6.35938 75.9043 5.82617 76.6777 5.82617C77.4336 5.82617 77.8672 6.31836 77.8672 7.10352V11H79.168V6.77539C79.168 5.52734 78.4121 4.71289 77.1172 4.71289C76.0918 4.71289 75.4473 5.2168 75.2305 5.74414H75.1777C74.9492 5.11719 74.375 4.71289 73.4199 4.71289C72.541 4.71289 72.002 5.19922 71.8203 5.63867H71.7559V4.80664H70.4785V11Z" fill="#4E8B43"/>
</svg>
