<svg width="320" height="20" viewBox="0 0 320 20" fill="none" xmlns="http://www.w3.org/2000/svg">
<rect x="292.5" y="6" width="14" height="7.5" rx="1" fill="black"/>
<path fill-rule="evenodd" clip-rule="evenodd" d="M293.5 4C291.843 4 290.5 5.34315 290.5 7V12.5C290.5 14.1569 291.843 15.5 293.5 15.5H309.5C311.157 15.5 312.5 14.1569 312.5 12.5V7C312.5 5.34315 311.157 4 309.5 4H293.5ZM291.5 7C291.5 5.89543 292.395 5 293.5 5H309.5C310.605 5 311.5 5.89543 311.5 7V12.5C311.5 13.6046 310.605 14.5 309.5 14.5H293.5C292.395 14.5 291.5 13.6046 291.5 12.5V7ZM314.5 9C314.5 8.44772 314.052 8 313.5 8V11.5C314.052 11.5 314.5 11.0523 314.5 10.5V9Z" fill="#858789"/>
<path d="M150.012 5.83398C148.178 5.83398 146.871 7.08789 146.871 8.80469V8.81641C146.871 10.4219 148.008 11.6055 149.631 11.6055C150.791 11.6055 151.529 11.0137 151.84 10.3457H151.957C151.928 12.0566 151.371 13.4688 149.977 13.4688C149.232 13.4688 148.711 13.082 148.488 12.4902L148.471 12.4316H146.982L146.994 12.4961C147.264 13.791 148.424 14.7109 149.977 14.7109C152.104 14.7109 153.387 13.0234 153.387 10.1758V10.1641C153.387 7.11719 151.816 5.83398 150.012 5.83398ZM150.006 10.4453C149.045 10.4453 148.348 9.74219 148.348 8.76367V8.75195C148.348 7.80859 149.092 7.06445 150.023 7.06445C150.961 7.06445 151.693 7.82031 151.693 8.78711V8.79883C151.693 9.75391 150.961 10.4453 150.006 10.4453ZM156.047 9.02148C156.586 9.02148 156.979 8.61133 156.979 8.0957C156.979 7.57422 156.586 7.16992 156.047 7.16992C155.514 7.16992 155.115 7.57422 155.115 8.0957C155.115 8.61133 155.514 9.02148 156.047 9.02148ZM156.047 13.3691C156.586 13.3691 156.979 12.9648 156.979 12.4434C156.979 11.9219 156.586 11.5176 156.047 11.5176C155.514 11.5176 155.115 11.9219 155.115 12.4434C155.115 12.9648 155.514 13.3691 156.047 13.3691ZM162.809 14.5H164.256V12.877H165.393V11.6289H164.256V6.04492H162.117C160.969 7.79102 159.768 9.73633 158.672 11.6406V12.877H162.809V14.5ZM160.078 11.6641V11.5762C160.898 10.1406 161.877 8.57617 162.744 7.25195H162.832V11.6641H160.078ZM168.896 14.5H170.408V6.04492H168.902L166.693 7.59766V9.02148L168.797 7.5332H168.896V14.5Z" fill="black"/>
<path d="M39.5781 14.5H44.7109V13.5508H40.6328V6.04492H39.5781V14.5ZM46.4824 14.5H47.5371V6.99414H50.2617V6.04492H43.7578V6.99414H46.4824V14.5ZM50.8906 14.5H56.1289V13.5508H51.9453V10.6445H55.9121V9.70703H51.9453V6.99414H56.1289V6.04492H50.8906V14.5Z" fill="black"/>
<path fill-rule="evenodd" clip-rule="evenodd" d="M21 4.5C20.4477 4.5 20 4.94772 20 5.5V14C20 14.5523 20.4477 15 21 15H22C22.5523 15 23 14.5523 23 14V5.5C23 4.94772 22.5523 4.5 22 4.5H21ZM16.5 6.5C15.9477 6.5 15.5 6.94772 15.5 7.5V14C15.5 14.5523 15.9477 15 16.5 15H17.5C18.0523 15 18.5 14.5523 18.5 14V7.5C18.5 6.94772 18.0523 6.5 17.5 6.5H16.5ZM11 10C11 9.44772 11.4477 9 12 9H13C13.5523 9 14 9.44772 14 10V14C14 14.5523 13.5523 15 13 15H12C11.4477 15 11 14.5523 11 14V10ZM7.5 11C6.94772 11 6.5 11.4477 6.5 12V14C6.5 14.5523 6.94772 15 7.5 15H8.5C9.05228 15 9.5 14.5523 9.5 14V12C9.5 11.4477 9.05228 11 8.5 11H7.5Z" fill="black"/>
</svg>
