<svg width="81" height="12" viewBox="0 0 81 12" fill="none" xmlns="http://www.w3.org/2000/svg">
<path d="M5.56415 11.168C4.59348 11.168 3.75348 10.958 3.04415 10.538C2.34415 10.1087 1.80282 9.516 1.42015 8.76C1.03748 7.99467 0.846148 7.11267 0.846148 6.114C0.846148 5.106 1.03748 4.224 1.42015 3.468C1.80282 2.70267 2.34415 2.10533 3.04415 1.676C3.75348 1.24667 4.59348 1.032 5.56415 1.032C6.71215 1.032 7.65015 1.312 8.37815 1.872C9.10615 2.432 9.56815 3.216 9.76415 4.224H8.11215C7.98148 3.65467 7.70148 3.202 7.27215 2.866C6.84282 2.53 6.26882 2.362 5.55015 2.362C4.57015 2.362 3.79548 2.698 3.22615 3.37C2.65682 4.03267 2.37215 4.94733 2.37215 6.114C2.37215 7.27133 2.65682 8.18133 3.22615 8.844C3.79548 9.50667 4.57015 9.838 5.55015 9.838C6.26882 9.838 6.84282 9.67933 7.27215 9.362C7.70148 9.04467 7.98148 8.61067 8.11215 8.06H9.76415C9.56815 9.03067 9.10615 9.79133 8.37815 10.342C7.65015 10.8927 6.71215 11.168 5.56415 11.168ZM11.3394 11V4.056H12.6694L12.7954 5.372C13.038 4.91467 13.374 4.55533 13.8034 4.294C14.242 4.02333 14.7694 3.888 15.3854 3.888V5.442H14.9794C14.5687 5.442 14.2 5.512 13.8734 5.652C13.556 5.78267 13.2994 6.01133 13.1034 6.338C12.9167 6.65533 12.8234 7.09867 12.8234 7.668V11H11.3394ZM23.0417 4.056V11H21.7257L21.6137 9.782C21.3991 10.2113 21.0817 10.552 20.6617 10.804C20.2511 11.0467 19.7751 11.168 19.2337 11.168C18.3937 11.168 17.7311 10.9067 17.2457 10.384C16.7697 9.86133 16.5317 9.082 16.5317 8.046V4.056H18.0017V7.892C18.0017 9.236 18.5524 9.908 19.6537 9.908C20.2044 9.908 20.6571 9.712 21.0117 9.32C21.3757 8.928 21.5577 8.368 21.5577 7.64V4.056H23.0417ZM24.9155 11V4.056H26.2315L26.3435 5.274C26.5582 4.84467 26.8709 4.50867 27.2815 4.266C27.7015 4.014 28.1822 3.888 28.7235 3.888C29.5635 3.888 30.2215 4.14933 30.6975 4.672C31.1829 5.19467 31.4255 5.974 31.4255 7.01V11H29.9555V7.164C29.9555 5.82 29.4049 5.148 28.3035 5.148C27.7529 5.148 27.2955 5.344 26.9315 5.736C26.5769 6.128 26.3995 6.688 26.3995 7.416V11H24.9155ZM36.4634 11.168C35.782 11.168 35.1707 11.014 34.6294 10.706C34.0974 10.398 33.6774 9.97333 33.3694 9.432C33.0707 8.88133 32.9214 8.24667 32.9214 7.528C32.9214 6.80933 33.0707 6.17933 33.3694 5.638C33.6774 5.08733 34.0974 4.658 34.6294 4.35C35.1707 4.042 35.782 3.888 36.4634 3.888C37.322 3.888 38.0407 4.112 38.6194 4.56C39.2074 5.008 39.5854 5.61467 39.7534 6.38H38.1994C38.106 5.99733 37.9007 5.69867 37.5834 5.484C37.266 5.26933 36.8927 5.162 36.4634 5.162C36.0994 5.162 35.7634 5.25533 35.4554 5.442C35.1474 5.61933 34.9 5.88533 34.7134 6.24C34.5267 6.58533 34.4334 7.01467 34.4334 7.528C34.4334 8.04133 34.5267 8.47533 34.7134 8.83C34.9 9.17533 35.1474 9.44133 35.4554 9.628C35.7634 9.81467 36.0994 9.908 36.4634 9.908C36.8927 9.908 37.266 9.80067 37.5834 9.586C37.9007 9.37133 38.106 9.068 38.1994 8.676H39.7534C39.5947 9.42267 39.2214 10.0247 38.6334 10.482C38.0454 10.9393 37.322 11.168 36.4634 11.168ZM41.3628 11V0.92H42.8468V5.176C43.0801 4.77467 43.4021 4.462 43.8128 4.238C44.2328 4.00467 44.6948 3.888 45.1988 3.888C46.0295 3.888 46.6828 4.14933 47.1588 4.672C47.6348 5.19467 47.8728 5.974 47.8728 7.01V11H46.4028V7.164C46.4028 5.82 45.8661 5.148 44.7928 5.148C44.2328 5.148 43.7661 5.344 43.3928 5.736C43.0288 6.128 42.8468 6.688 42.8468 7.416V11H41.3628ZM53.5266 11.168C52.9853 11.168 52.5046 11.0607 52.0846 10.846C51.674 10.6313 51.3473 10.328 51.1046 9.936L50.9506 11H49.6206V0.92H51.1046V5.134C51.3286 4.80733 51.6366 4.518 52.0286 4.266C52.4206 4.014 52.9246 3.888 53.5406 3.888C54.2126 3.888 54.8053 4.04667 55.3186 4.364C55.832 4.68133 56.2333 5.11533 56.5226 5.666C56.8213 6.21667 56.9706 6.842 56.9706 7.542C56.9706 8.242 56.8213 8.86733 56.5226 9.418C56.2333 9.95933 55.832 10.3887 55.3186 10.706C54.8053 11.014 54.208 11.168 53.5266 11.168ZM53.2746 9.88C53.9093 9.88 54.432 9.66533 54.8426 9.236C55.2533 8.79733 55.4586 8.228 55.4586 7.528C55.4586 7.07067 55.3653 6.66467 55.1786 6.31C54.992 5.95533 54.7353 5.68 54.4086 5.484C54.082 5.27867 53.704 5.176 53.2746 5.176C52.64 5.176 52.1173 5.39533 51.7066 5.834C51.3053 6.27267 51.1046 6.83733 51.1046 7.528C51.1046 8.228 51.3053 8.79733 51.7066 9.236C52.1173 9.66533 52.64 9.88 53.2746 9.88ZM60.9277 11.168C60.3397 11.168 59.8544 11.07 59.4717 10.874C59.089 10.678 58.8044 10.4213 58.6177 10.104C58.431 9.77733 58.3377 9.42267 58.3377 9.04C58.3377 8.368 58.599 7.836 59.1217 7.444C59.6444 7.052 60.391 6.856 61.3617 6.856H63.1817V6.73C63.1817 6.18867 63.0324 5.78267 62.7337 5.512C62.4444 5.24133 62.0664 5.106 61.5997 5.106C61.189 5.106 60.8297 5.20867 60.5217 5.414C60.223 5.61 60.041 5.904 59.9757 6.296H58.4917C58.5384 5.792 58.7064 5.36267 58.9957 5.008C59.2944 4.644 59.6677 4.36867 60.1157 4.182C60.573 3.986 61.0724 3.888 61.6137 3.888C62.5844 3.888 63.3357 4.14467 63.8677 4.658C64.3997 5.162 64.6657 5.85267 64.6657 6.73V11H63.3777L63.2517 9.81C63.0557 10.1927 62.771 10.5147 62.3977 10.776C62.0244 11.0373 61.5344 11.168 60.9277 11.168ZM61.2217 9.964C61.623 9.964 61.959 9.87067 62.2297 9.684C62.5097 9.488 62.7244 9.23133 62.8737 8.914C63.0324 8.59667 63.1304 8.24667 63.1677 7.864H61.5157C60.9277 7.864 60.5077 7.96667 60.2557 8.172C60.013 8.37733 59.8917 8.634 59.8917 8.942C59.8917 9.25933 60.0084 9.51133 60.2417 9.698C60.4844 9.87533 60.811 9.964 61.2217 9.964ZM69.168 11.168C68.2907 11.168 67.5673 10.9533 66.998 10.524C66.4287 10.0947 66.102 9.52533 66.018 8.816H67.516C67.5907 9.13333 67.768 9.40867 68.048 9.642C68.328 9.866 68.6967 9.978 69.154 9.978C69.602 9.978 69.9287 9.88467 70.134 9.698C70.3393 9.51133 70.442 9.29667 70.442 9.054C70.442 8.69933 70.2973 8.46133 70.008 8.34C69.728 8.20933 69.336 8.09267 68.832 7.99C68.44 7.906 68.048 7.794 67.656 7.654C67.2733 7.514 66.9513 7.318 66.69 7.066C66.438 6.80467 66.312 6.45467 66.312 6.016C66.312 5.40933 66.5453 4.90533 67.012 4.504C67.4787 4.09333 68.132 3.888 68.972 3.888C69.7467 3.888 70.372 4.07467 70.848 4.448C71.3333 4.82133 71.618 5.34867 71.702 6.03H70.274C70.2273 5.73133 70.0873 5.498 69.854 5.33C69.63 5.162 69.3267 5.078 68.944 5.078C68.5707 5.078 68.2813 5.15733 68.076 5.316C67.8707 5.46533 67.768 5.66133 67.768 5.904C67.768 6.14667 67.908 6.338 68.188 6.478C68.4773 6.618 68.8553 6.744 69.322 6.856C69.7887 6.95867 70.218 7.08 70.61 7.22C71.0113 7.35067 71.3333 7.54667 71.576 7.808C71.8187 8.06933 71.94 8.452 71.94 8.956C71.9493 9.59067 71.702 10.118 71.198 10.538C70.7033 10.958 70.0267 11.168 69.168 11.168ZM76.8081 11.168C76.1267 11.168 75.5201 11.0187 74.9881 10.72C74.4654 10.412 74.0547 9.98733 73.7561 9.446C73.4574 8.90467 73.3081 8.27467 73.3081 7.556C73.3081 6.828 73.4527 6.18867 73.7421 5.638C74.0407 5.08733 74.4514 4.658 74.9741 4.35C75.5061 4.042 76.1221 3.888 76.8221 3.888C77.5034 3.888 78.0961 4.042 78.6001 4.35C79.1041 4.64867 79.4961 5.05 79.7761 5.554C80.0561 6.058 80.1961 6.61333 80.1961 7.22C80.1961 7.31333 80.1914 7.416 80.1821 7.528C80.1821 7.63067 80.1774 7.74733 80.1681 7.878H74.7641C74.8107 8.55 75.0301 9.06333 75.4221 9.418C75.8234 9.76333 76.2854 9.936 76.8081 9.936C77.2281 9.936 77.5781 9.84267 77.8581 9.656C78.1474 9.46 78.3621 9.19867 78.5021 8.872H79.9861C79.7994 9.52533 79.4261 10.0713 78.8661 10.51C78.3154 10.9487 77.6294 11.168 76.8081 11.168ZM76.8081 5.106C76.3134 5.106 75.8747 5.25533 75.4921 5.554C75.1094 5.84333 74.8761 6.282 74.7921 6.87H78.7121C78.6841 6.32867 78.4927 5.89933 78.1381 5.582C77.7834 5.26467 77.3401 5.106 76.8081 5.106Z" fill="white"/>
</svg>
