<svg width="288" height="230" viewBox="0 0 288 230" fill="none" xmlns="http://www.w3.org/2000/svg">
<path d="M18.2609 21V4.2H21.3329V18.6H28.7729V21H18.2609ZM35.5117 21.288C34.4877 21.288 33.6477 21.128 32.9917 20.808C32.3357 20.472 31.8477 20.032 31.5277 19.488C31.2077 18.944 31.0477 18.344 31.0477 17.688C31.0477 16.584 31.4797 15.688 32.3437 15C33.2077 14.312 34.5037 13.968 36.2317 13.968H39.2557V13.68C39.2557 12.864 39.0237 12.264 38.5597 11.88C38.0957 11.496 37.5197 11.304 36.8317 11.304C36.2077 11.304 35.6637 11.456 35.1997 11.76C34.7357 12.048 34.4477 12.48 34.3357 13.056H31.3357C31.4157 12.192 31.7037 11.44 32.1997 10.8C32.7117 10.16 33.3677 9.672 34.1677 9.336C34.9677 8.984 35.8637 8.808 36.8557 8.808C38.5517 8.808 39.8877 9.232 40.8637 10.08C41.8397 10.928 42.3277 12.128 42.3277 13.68V21H39.7117L39.4237 19.08C39.0717 19.72 38.5757 20.248 37.9357 20.664C37.3117 21.08 36.5037 21.288 35.5117 21.288ZM36.2077 18.888C37.0877 18.888 37.7677 18.6 38.2477 18.024C38.7437 17.448 39.0557 16.736 39.1837 15.888H36.5677C35.7517 15.888 35.1677 16.04 34.8157 16.344C34.4637 16.632 34.2877 16.992 34.2877 17.424C34.2877 17.888 34.4637 18.248 34.8157 18.504C35.1677 18.76 35.6317 18.888 36.2077 18.888ZM50.978 26.28V9.096H53.714L54.05 10.8C54.434 10.272 54.938 9.808 55.562 9.408C56.202 9.008 57.026 8.808 58.034 8.808C59.154 8.808 60.154 9.08 61.034 9.624C61.914 10.168 62.61 10.912 63.122 11.856C63.634 12.8 63.89 13.872 63.89 15.072C63.89 16.272 63.634 17.344 63.122 18.288C62.61 19.216 61.914 19.952 61.034 20.496C60.154 21.024 59.154 21.288 58.034 21.288C57.138 21.288 56.354 21.12 55.682 20.784C55.01 20.448 54.466 19.976 54.05 19.368V26.28H50.978ZM57.386 18.6C58.362 18.6 59.17 18.272 59.81 17.616C60.45 16.96 60.77 16.112 60.77 15.072C60.77 14.032 60.45 13.176 59.81 12.504C59.17 11.832 58.362 11.496 57.386 11.496C56.394 11.496 55.578 11.832 54.938 12.504C54.314 13.16 54.002 14.008 54.002 15.048C54.002 16.088 54.314 16.944 54.938 17.616C55.578 18.272 56.394 18.6 57.386 18.6ZM66.6342 21V9.096H69.3702L69.6582 11.328C70.0902 10.56 70.6742 9.952 71.4102 9.504C72.1622 9.04 73.0422 8.808 74.0502 8.808V12.048H73.1862C72.5142 12.048 71.9142 12.152 71.3862 12.36C70.8582 12.568 70.4422 12.928 70.1382 13.44C69.8502 13.952 69.7062 14.664 69.7062 15.576V21H66.6342ZM81.6509 21.288C80.4989 21.288 79.4589 21.024 78.5309 20.496C77.6189 19.968 76.8909 19.24 76.3469 18.312C75.8189 17.368 75.5549 16.28 75.5549 15.048C75.5549 13.816 75.8269 12.736 76.3709 11.808C76.9149 10.864 77.6429 10.128 78.5549 9.6C79.4829 9.072 80.5229 8.808 81.6749 8.808C82.8109 8.808 83.8349 9.072 84.7469 9.6C85.6749 10.128 86.4029 10.864 86.9309 11.808C87.4749 12.736 87.7469 13.816 87.7469 15.048C87.7469 16.28 87.4749 17.368 86.9309 18.312C86.4029 19.24 85.6749 19.968 84.7469 20.496C83.8189 21.024 82.7869 21.288 81.6509 21.288ZM81.6509 18.624C82.4509 18.624 83.1469 18.328 83.7389 17.736C84.3309 17.128 84.6269 16.232 84.6269 15.048C84.6269 13.864 84.3309 12.976 83.7389 12.384C83.1469 11.776 82.4589 11.472 81.6749 11.472C80.8589 11.472 80.1549 11.776 79.5629 12.384C78.9869 12.976 78.6989 13.864 78.6989 15.048C78.6989 16.232 78.9869 17.128 79.5629 17.736C80.1549 18.328 80.8509 18.624 81.6509 18.624ZM80.8589 8.136V5.976L86.2829 3.048V5.544L80.8589 8.136ZM88.7328 21L93.0528 15.048L88.7328 9.096H92.0208L95.0448 13.32L98.0448 9.096H101.357L97.0128 15.048L101.357 21H98.0448L95.0448 16.776L92.0208 21H88.7328ZM104.97 7.248C104.41 7.248 103.946 7.08 103.578 6.744C103.226 6.408 103.05 5.984 103.05 5.472C103.05 4.96 103.226 4.544 103.578 4.224C103.946 3.888 104.41 3.72 104.97 3.72C105.53 3.72 105.986 3.888 106.338 4.224C106.706 4.544 106.89 4.96 106.89 5.472C106.89 5.984 106.706 6.408 106.338 6.744C105.986 7.08 105.53 7.248 104.97 7.248ZM103.434 21V9.096H106.506V21H103.434ZM109.712 21V9.096H112.424L112.688 10.704C113.072 10.128 113.576 9.672 114.2 9.336C114.84 8.984 115.576 8.808 116.408 8.808C118.248 8.808 119.552 9.52 120.32 10.944C120.752 10.288 121.328 9.768 122.048 9.384C122.784 9 123.584 8.808 124.448 8.808C126 8.808 127.192 9.272 128.024 10.2C128.856 11.128 129.272 12.488 129.272 14.28V21H126.2V14.568C126.2 13.544 126 12.76 125.6 12.216C125.216 11.672 124.616 11.4 123.8 11.4C122.968 11.4 122.296 11.704 121.784 12.312C121.288 12.92 121.04 13.768 121.04 14.856V21H117.968V14.568C117.968 13.544 117.768 12.76 117.368 12.216C116.968 11.672 116.352 11.4 115.52 11.4C114.704 11.4 114.04 11.704 113.528 12.312C113.032 12.92 112.784 13.768 112.784 14.856V21H109.712ZM136.293 21.288C135.269 21.288 134.429 21.128 133.773 20.808C133.117 20.472 132.629 20.032 132.309 19.488C131.989 18.944 131.829 18.344 131.829 17.688C131.829 16.584 132.261 15.688 133.125 15C133.989 14.312 135.285 13.968 137.013 13.968H140.037V13.68C140.037 12.864 139.805 12.264 139.341 11.88C138.877 11.496 138.301 11.304 137.613 11.304C136.989 11.304 136.445 11.456 135.981 11.76C135.517 12.048 135.229 12.48 135.117 13.056H132.117C132.197 12.192 132.485 11.44 132.981 10.8C133.493 10.16 134.149 9.672 134.949 9.336C135.749 8.984 136.645 8.808 137.637 8.808C139.333 8.808 140.669 9.232 141.645 10.08C142.621 10.928 143.109 12.128 143.109 13.68V21H140.493L140.205 19.08C139.853 19.72 139.357 20.248 138.717 20.664C138.093 21.08 137.285 21.288 136.293 21.288ZM136.989 18.888C137.869 18.888 138.549 18.6 139.029 18.024C139.525 17.448 139.837 16.736 139.965 15.888H137.349C136.533 15.888 135.949 16.04 135.597 16.344C135.245 16.632 135.069 16.992 135.069 17.424C135.069 17.888 135.245 18.248 135.597 18.504C135.949 18.76 136.413 18.888 136.989 18.888ZM151.759 21V9.096H154.495L154.783 11.328C155.215 10.56 155.799 9.952 156.535 9.504C157.287 9.04 158.167 8.808 159.175 8.808V12.048H158.311C157.639 12.048 157.039 12.152 156.511 12.36C155.983 12.568 155.567 12.928 155.263 13.44C154.975 13.952 154.831 14.664 154.831 15.576V21H151.759ZM166.848 21.288C165.648 21.288 164.584 21.032 163.656 20.52C162.728 20.008 162 19.288 161.472 18.36C160.944 17.432 160.68 16.36 160.68 15.144C160.68 13.912 160.936 12.816 161.448 11.856C161.976 10.896 162.696 10.152 163.608 9.624C164.536 9.08 165.624 8.808 166.872 8.808C168.04 8.808 169.072 9.064 169.968 9.576C170.864 10.088 171.56 10.792 172.056 11.688C172.568 12.568 172.824 13.552 172.824 14.64C172.824 14.816 172.816 15 172.8 15.192C172.8 15.384 172.792 15.584 172.776 15.792H163.728C163.792 16.72 164.112 17.448 164.688 17.976C165.28 18.504 165.992 18.768 166.824 18.768C167.448 18.768 167.968 18.632 168.384 18.36C168.816 18.072 169.136 17.704 169.344 17.256H172.464C172.24 18.008 171.864 18.696 171.336 19.32C170.824 19.928 170.184 20.408 169.416 20.76C168.664 21.112 167.808 21.288 166.848 21.288ZM166.872 11.304C166.12 11.304 165.456 11.52 164.88 11.952C164.304 12.368 163.936 13.008 163.776 13.872H169.704C169.656 13.088 169.368 12.464 168.84 12C168.312 11.536 167.656 11.304 166.872 11.304ZM178.155 21L173.787 9.096H177.003L180.027 18.096L183.051 9.096H186.267L181.875 21H178.155ZM193.331 21.288C192.179 21.288 191.139 21.024 190.211 20.496C189.299 19.968 188.571 19.24 188.027 18.312C187.499 17.368 187.235 16.28 187.235 15.048C187.235 13.816 187.507 12.736 188.051 11.808C188.595 10.864 189.323 10.128 190.235 9.6C191.163 9.072 192.203 8.808 193.355 8.808C194.491 8.808 195.515 9.072 196.427 9.6C197.355 10.128 198.083 10.864 198.611 11.808C199.155 12.736 199.427 13.816 199.427 15.048C199.427 16.28 199.155 17.368 198.611 18.312C198.083 19.24 197.355 19.968 196.427 20.496C195.499 21.024 194.467 21.288 193.331 21.288ZM193.331 18.624C194.131 18.624 194.827 18.328 195.419 17.736C196.011 17.128 196.307 16.232 196.307 15.048C196.307 13.864 196.011 12.976 195.419 12.384C194.827 11.776 194.139 11.472 193.355 11.472C192.539 11.472 191.835 11.776 191.243 12.384C190.667 12.976 190.379 13.864 190.379 15.048C190.379 16.232 190.667 17.128 191.243 17.736C191.835 18.328 192.531 18.624 193.331 18.624ZM202.173 21V3.72H205.245V21H202.173ZM219.856 9.096V21H217.144L216.904 18.984C216.536 19.688 216 20.248 215.296 20.664C214.608 21.08 213.792 21.288 212.848 21.288C211.376 21.288 210.232 20.824 209.416 19.896C208.6 18.968 208.192 17.608 208.192 15.816V9.096H211.264V15.528C211.264 16.552 211.472 17.336 211.888 17.88C212.304 18.424 212.952 18.696 213.832 18.696C214.696 18.696 215.4 18.392 215.944 17.784C216.504 17.176 216.784 16.328 216.784 15.24V9.096H219.856ZM228.818 21.288C227.602 21.288 226.53 21.024 225.602 20.496C224.674 19.968 223.938 19.232 223.394 18.288C222.866 17.344 222.602 16.264 222.602 15.048C222.602 13.832 222.866 12.752 223.394 11.808C223.938 10.864 224.674 10.128 225.602 9.6C226.53 9.072 227.602 8.808 228.818 8.808C230.338 8.808 231.618 9.208 232.658 10.008C233.698 10.792 234.362 11.88 234.65 13.272H231.41C231.25 12.696 230.93 12.248 230.45 11.928C229.986 11.592 229.434 11.424 228.794 11.424C227.946 11.424 227.226 11.744 226.634 12.384C226.042 13.024 225.746 13.912 225.746 15.048C225.746 16.184 226.042 17.072 226.634 17.712C227.226 18.352 227.946 18.672 228.794 18.672C229.434 18.672 229.986 18.512 230.45 18.192C230.93 17.872 231.25 17.416 231.41 16.824H234.65C234.362 18.168 233.698 19.248 232.658 20.064C231.618 20.88 230.338 21.288 228.818 21.288ZM239.032 7.248C238.472 7.248 238.008 7.08 237.64 6.744C237.288 6.408 237.112 5.984 237.112 5.472C237.112 4.96 237.288 4.544 237.64 4.224C238.008 3.888 238.472 3.72 239.032 3.72C239.592 3.72 240.048 3.888 240.4 4.224C240.768 4.544 240.952 4.96 240.952 5.472C240.952 5.984 240.768 6.408 240.4 6.744C240.048 7.08 239.592 7.248 239.032 7.248ZM237.496 21V9.096H240.568V21H237.496ZM249.487 21.288C248.335 21.288 247.295 21.024 246.367 20.496C245.455 19.968 244.727 19.24 244.183 18.312C243.655 17.368 243.391 16.28 243.391 15.048C243.391 13.816 243.663 12.736 244.207 11.808C244.751 10.864 245.479 10.128 246.391 9.6C247.319 9.072 248.359 8.808 249.511 8.808C250.647 8.808 251.671 9.072 252.583 9.6C253.511 10.128 254.239 10.864 254.767 11.808C255.311 12.736 255.583 13.816 255.583 15.048C255.583 16.28 255.311 17.368 254.767 18.312C254.239 19.24 253.511 19.968 252.583 20.496C251.655 21.024 250.623 21.288 249.487 21.288ZM249.487 18.624C250.287 18.624 250.983 18.328 251.575 17.736C252.167 17.128 252.463 16.232 252.463 15.048C252.463 13.864 252.167 12.976 251.575 12.384C250.983 11.776 250.295 11.472 249.511 11.472C248.695 11.472 247.991 11.776 247.399 12.384C246.823 12.976 246.535 13.864 246.535 15.048C246.535 16.232 246.823 17.128 247.399 17.736C247.991 18.328 248.687 18.624 249.487 18.624ZM248.695 8.136V5.976L254.119 3.048V5.544L248.695 8.136ZM258.33 21V9.096H261.042L261.282 11.112C261.65 10.408 262.178 9.848 262.866 9.432C263.57 9.016 264.394 8.808 265.338 8.808C266.81 8.808 267.954 9.272 268.77 10.2C269.586 11.128 269.994 12.488 269.994 14.28V21H266.922V14.568C266.922 13.544 266.714 12.76 266.298 12.216C265.882 11.672 265.234 11.4 264.354 11.4C263.49 11.4 262.778 11.704 262.218 12.312C261.674 12.92 261.402 13.768 261.402 14.856V21H258.33ZM32.1292 47.288C30.9292 47.288 29.8652 47.032 28.9372 46.52C28.0092 46.008 27.2812 45.288 26.7532 44.36C26.2252 43.432 25.9612 42.36 25.9612 41.144C25.9612 39.912 26.2172 38.816 26.7292 37.856C27.2572 36.896 27.9772 36.152 28.8892 35.624C29.8172 35.08 30.9052 34.808 32.1532 34.808C33.3212 34.808 34.3532 35.064 35.2492 35.576C36.1452 36.088 36.8412 36.792 37.3372 37.688C37.8492 38.568 38.1052 39.552 38.1052 40.64C38.1052 40.816 38.0972 41 38.0812 41.192C38.0812 41.384 38.0732 41.584 38.0572 41.792H29.0092C29.0732 42.72 29.3932 43.448 29.9692 43.976C30.5612 44.504 31.2732 44.768 32.1052 44.768C32.7292 44.768 33.2492 44.632 33.6652 44.36C34.0972 44.072 34.4172 43.704 34.6252 43.256H37.7452C37.5212 44.008 37.1452 44.696 36.6172 45.32C36.1052 45.928 35.4652 46.408 34.6972 46.76C33.9452 47.112 33.0892 47.288 32.1292 47.288ZM32.1532 37.304C31.4012 37.304 30.7372 37.52 30.1612 37.952C29.5852 38.368 29.2172 39.008 29.0572 39.872H34.9852C34.9372 39.088 34.6492 38.464 34.1212 38C33.5932 37.536 32.9372 37.304 32.1532 37.304ZM40.6889 47V35.096H43.4009L43.6409 37.112C44.0089 36.408 44.5369 35.848 45.2249 35.432C45.9289 35.016 46.7529 34.808 47.6969 34.808C49.1689 34.808 50.3129 35.272 51.1289 36.2C51.9449 37.128 52.3529 38.488 52.3529 40.28V47H49.2809V40.568C49.2809 39.544 49.0729 38.76 48.6569 38.216C48.2409 37.672 47.5929 37.4 46.7129 37.4C45.8489 37.4 45.1369 37.704 44.5769 38.312C44.0329 38.92 43.7609 39.768 43.7609 40.856V47H40.6889ZM66.7932 47.288C65.5932 47.288 64.5292 47.032 63.6012 46.52C62.6732 46.008 61.9452 45.288 61.4172 44.36C60.8892 43.432 60.6252 42.36 60.6252 41.144C60.6252 39.912 60.8812 38.816 61.3932 37.856C61.9212 36.896 62.6412 36.152 63.5532 35.624C64.4812 35.08 65.5692 34.808 66.8172 34.808C67.9852 34.808 69.0172 35.064 69.9132 35.576C70.8092 36.088 71.5052 36.792 72.0012 37.688C72.5132 38.568 72.7692 39.552 72.7692 40.64C72.7692 40.816 72.7612 41 72.7452 41.192C72.7452 41.384 72.7372 41.584 72.7212 41.792H63.6732C63.7372 42.72 64.0572 43.448 64.6332 43.976C65.2252 44.504 65.9372 44.768 66.7692 44.768C67.3932 44.768 67.9132 44.632 68.3292 44.36C68.7612 44.072 69.0812 43.704 69.2892 43.256H72.4092C72.1852 44.008 71.8092 44.696 71.2812 45.32C70.7692 45.928 70.1292 46.408 69.3612 46.76C68.6092 47.112 67.7532 47.288 66.7932 47.288ZM66.8172 37.304C66.0652 37.304 65.4012 37.52 64.8252 37.952C64.2492 38.368 63.8812 39.008 63.7212 39.872H69.6492C69.6012 39.088 69.3132 38.464 68.7852 38C68.2572 37.536 67.6012 37.304 66.8172 37.304ZM75.353 47V29.72H78.425V47H75.353ZM88.9387 33.248C88.3787 33.248 87.9147 33.08 87.5467 32.744C87.1947 32.408 87.0187 31.984 87.0187 31.472C87.0187 30.96 87.1947 30.544 87.5467 30.224C87.9147 29.888 88.3787 29.72 88.9387 29.72C89.4987 29.72 89.9547 29.888 90.3067 30.224C90.6747 30.544 90.8587 30.96 90.8587 31.472C90.8587 31.984 90.6747 32.408 90.3067 32.744C89.9547 33.08 89.4987 33.248 88.9387 33.248ZM87.4027 47V35.096H90.4747V47H87.4027ZM93.6811 47V35.096H96.3931L96.6331 37.112C97.0011 36.408 97.5291 35.848 98.2171 35.432C98.9211 35.016 99.7451 34.808 100.689 34.808C102.161 34.808 103.305 35.272 104.121 36.2C104.937 37.128 105.345 38.488 105.345 40.28V47H102.273V40.568C102.273 39.544 102.065 38.76 101.649 38.216C101.233 37.672 100.585 37.4 99.7051 37.4C98.8411 37.4 98.1291 37.704 97.5691 38.312C97.0251 38.92 96.7531 39.768 96.7531 40.856V47H93.6811ZM113.587 47C112.339 47 111.339 46.696 110.587 46.088C109.835 45.48 109.459 44.4 109.459 42.848V37.664H107.419V35.096H109.459L109.819 31.904H112.531V35.096H115.747V37.664H112.531V42.872C112.531 43.448 112.651 43.848 112.891 44.072C113.147 44.28 113.579 44.384 114.187 44.384H115.675V47H113.587ZM123.864 47.288C122.664 47.288 121.6 47.032 120.672 46.52C119.744 46.008 119.016 45.288 118.488 44.36C117.96 43.432 117.696 42.36 117.696 41.144C117.696 39.912 117.952 38.816 118.464 37.856C118.992 36.896 119.712 36.152 120.624 35.624C121.552 35.08 122.64 34.808 123.888 34.808C125.056 34.808 126.088 35.064 126.984 35.576C127.88 36.088 128.576 36.792 129.072 37.688C129.584 38.568 129.84 39.552 129.84 40.64C129.84 40.816 129.832 41 129.816 41.192C129.816 41.384 129.808 41.584 129.792 41.792H120.744C120.808 42.72 121.128 43.448 121.704 43.976C122.296 44.504 123.008 44.768 123.84 44.768C124.464 44.768 124.984 44.632 125.4 44.36C125.832 44.072 126.152 43.704 126.36 43.256H129.48C129.256 44.008 128.88 44.696 128.352 45.32C127.84 45.928 127.2 46.408 126.432 46.76C125.68 47.112 124.824 47.288 123.864 47.288ZM123.888 37.304C123.136 37.304 122.472 37.52 121.896 37.952C121.32 38.368 120.952 39.008 120.792 39.872H126.72C126.672 39.088 126.384 38.464 125.856 38C125.328 37.536 124.672 37.304 123.888 37.304ZM132.423 47V35.096H135.159L135.447 37.328C135.879 36.56 136.463 35.952 137.199 35.504C137.951 35.04 138.831 34.808 139.839 34.808V38.048H138.975C138.303 38.048 137.703 38.152 137.175 38.36C136.647 38.568 136.231 38.928 135.927 39.44C135.639 39.952 135.495 40.664 135.495 41.576V47H132.423ZM147.56 47.288C146.344 47.288 145.272 47.024 144.344 46.496C143.416 45.968 142.68 45.232 142.136 44.288C141.608 43.344 141.344 42.264 141.344 41.048C141.344 39.832 141.608 38.752 142.136 37.808C142.68 36.864 143.416 36.128 144.344 35.6C145.272 35.072 146.344 34.808 147.56 34.808C149.08 34.808 150.36 35.208 151.4 36.008C152.44 36.792 153.104 37.88 153.392 39.272H150.152C149.992 38.696 149.672 38.248 149.192 37.928C148.728 37.592 148.176 37.424 147.536 37.424C146.688 37.424 145.968 37.744 145.376 38.384C144.784 39.024 144.488 39.912 144.488 41.048C144.488 42.184 144.784 43.072 145.376 43.712C145.968 44.352 146.688 44.672 147.536 44.672C148.176 44.672 148.728 44.512 149.192 44.192C149.672 43.872 149.992 43.416 150.152 42.824H153.392C153.104 44.168 152.44 45.248 151.4 46.064C150.36 46.88 149.08 47.288 147.56 47.288ZM160.223 47.288C159.199 47.288 158.359 47.128 157.703 46.808C157.047 46.472 156.559 46.032 156.239 45.488C155.919 44.944 155.759 44.344 155.759 43.688C155.759 42.584 156.191 41.688 157.055 41C157.919 40.312 159.215 39.968 160.943 39.968H163.967V39.68C163.967 38.864 163.735 38.264 163.271 37.88C162.807 37.496 162.231 37.304 161.543 37.304C160.919 37.304 160.375 37.456 159.911 37.76C159.447 38.048 159.159 38.48 159.047 39.056H156.047C156.127 38.192 156.415 37.44 156.911 36.8C157.423 36.16 158.079 35.672 158.879 35.336C159.679 34.984 160.575 34.808 161.567 34.808C163.263 34.808 164.599 35.232 165.575 36.08C166.551 36.928 167.039 38.128 167.039 39.68V47H164.423L164.135 45.08C163.783 45.72 163.287 46.248 162.647 46.664C162.023 47.08 161.215 47.288 160.223 47.288ZM160.919 44.888C161.799 44.888 162.479 44.6 162.959 44.024C163.455 43.448 163.767 42.736 163.895 41.888H161.279C160.463 41.888 159.879 42.04 159.527 42.344C159.175 42.632 158.999 42.992 158.999 43.424C158.999 43.888 159.175 44.248 159.527 44.504C159.879 44.76 160.343 44.888 160.919 44.888ZM169.97 47V35.096H172.682L172.946 36.704C173.33 36.128 173.834 35.672 174.458 35.336C175.098 34.984 175.834 34.808 176.666 34.808C178.506 34.808 179.81 35.52 180.578 36.944C181.01 36.288 181.586 35.768 182.306 35.384C183.042 35 183.842 34.808 184.706 34.808C186.258 34.808 187.45 35.272 188.282 36.2C189.114 37.128 189.53 38.488 189.53 40.28V47H186.458V40.568C186.458 39.544 186.258 38.76 185.858 38.216C185.474 37.672 184.874 37.4 184.058 37.4C183.226 37.4 182.554 37.704 182.042 38.312C181.546 38.92 181.298 39.768 181.298 40.856V47H178.226V40.568C178.226 39.544 178.026 38.76 177.626 38.216C177.226 37.672 176.61 37.4 175.778 37.4C174.962 37.4 174.298 37.704 173.786 38.312C173.29 38.92 173.042 39.768 173.042 40.856V47H169.97ZM199.503 47.288C198.607 47.288 197.823 47.12 197.151 46.784C196.479 46.448 195.935 45.976 195.519 45.368L195.183 47H192.447V29.72H195.519V36.8C195.903 36.272 196.407 35.808 197.031 35.408C197.671 35.008 198.495 34.808 199.503 34.808C200.623 34.808 201.623 35.08 202.503 35.624C203.383 36.168 204.079 36.912 204.591 37.856C205.103 38.8 205.359 39.872 205.359 41.072C205.359 42.272 205.103 43.344 204.591 44.288C204.079 45.216 203.383 45.952 202.503 46.496C201.623 47.024 200.623 47.288 199.503 47.288ZM198.855 44.6C199.831 44.6 200.639 44.272 201.279 43.616C201.919 42.96 202.239 42.112 202.239 41.072C202.239 40.032 201.919 39.176 201.279 38.504C200.639 37.832 199.831 37.496 198.855 37.496C197.863 37.496 197.047 37.832 196.407 38.504C195.783 39.16 195.471 40.008 195.471 41.048C195.471 42.088 195.783 42.944 196.407 43.616C197.047 44.272 197.863 44.6 198.855 44.6ZM209.759 33.248C209.199 33.248 208.735 33.08 208.367 32.744C208.015 32.408 207.839 31.984 207.839 31.472C207.839 30.96 208.015 30.544 208.367 30.224C208.735 29.888 209.199 29.72 209.759 29.72C210.319 29.72 210.775 29.888 211.127 30.224C211.495 30.544 211.679 30.96 211.679 31.472C211.679 31.984 211.495 32.408 211.127 32.744C210.775 33.08 210.319 33.248 209.759 33.248ZM208.223 47V35.096H211.295V47H208.223ZM220.213 47.288C219.061 47.288 218.021 47.024 217.093 46.496C216.181 45.968 215.453 45.24 214.909 44.312C214.381 43.368 214.117 42.28 214.117 41.048C214.117 39.816 214.389 38.736 214.933 37.808C215.477 36.864 216.205 36.128 217.117 35.6C218.045 35.072 219.085 34.808 220.237 34.808C221.373 34.808 222.397 35.072 223.309 35.6C224.237 36.128 224.965 36.864 225.493 37.808C226.037 38.736 226.309 39.816 226.309 41.048C226.309 42.28 226.037 43.368 225.493 44.312C224.965 45.24 224.237 45.968 223.309 46.496C222.381 47.024 221.349 47.288 220.213 47.288ZM220.213 44.624C221.013 44.624 221.709 44.328 222.301 43.736C222.893 43.128 223.189 42.232 223.189 41.048C223.189 39.864 222.893 38.976 222.301 38.384C221.709 37.776 221.021 37.472 220.237 37.472C219.421 37.472 218.717 37.776 218.125 38.384C217.549 38.976 217.261 39.864 217.261 41.048C217.261 42.232 217.549 43.128 218.125 43.736C218.717 44.328 219.413 44.624 220.213 44.624ZM240.247 47.288C239.127 47.288 238.127 47.016 237.247 46.472C236.367 45.928 235.671 45.184 235.159 44.24C234.647 43.296 234.391 42.224 234.391 41.024C234.391 39.824 234.647 38.76 235.159 37.832C235.671 36.888 236.367 36.152 237.247 35.624C238.127 35.08 239.127 34.808 240.247 34.808C241.143 34.808 241.927 34.976 242.599 35.312C243.271 35.648 243.815 36.12 244.231 36.728V29.72H247.303V47H244.567L244.231 45.296C243.847 45.824 243.335 46.288 242.695 46.688C242.071 47.088 241.255 47.288 240.247 47.288ZM240.895 44.6C241.887 44.6 242.695 44.272 243.319 43.616C243.959 42.944 244.279 42.088 244.279 41.048C244.279 40.008 243.959 39.16 243.319 38.504C242.695 37.832 241.887 37.496 240.895 37.496C239.919 37.496 239.111 37.824 238.471 38.48C237.831 39.136 237.511 39.984 237.511 41.024C237.511 42.064 237.831 42.92 238.471 43.592C239.111 44.264 239.919 44.6 240.895 44.6ZM256.215 47.288C255.015 47.288 253.951 47.032 253.023 46.52C252.095 46.008 251.367 45.288 250.839 44.36C250.311 43.432 250.047 42.36 250.047 41.144C250.047 39.912 250.303 38.816 250.815 37.856C251.343 36.896 252.063 36.152 252.975 35.624C253.903 35.08 254.991 34.808 256.239 34.808C257.407 34.808 258.439 35.064 259.335 35.576C260.231 36.088 260.927 36.792 261.423 37.688C261.935 38.568 262.191 39.552 262.191 40.64C262.191 40.816 262.183 41 262.167 41.192C262.167 41.384 262.159 41.584 262.143 41.792H253.095C253.159 42.72 253.479 43.448 254.055 43.976C254.647 44.504 255.359 44.768 256.191 44.768C256.815 44.768 257.335 44.632 257.751 44.36C258.183 44.072 258.503 43.704 258.711 43.256H261.831C261.607 44.008 261.231 44.696 260.703 45.32C260.191 45.928 259.551 46.408 258.783 46.76C258.031 47.112 257.175 47.288 256.215 47.288ZM256.239 37.304C255.487 37.304 254.823 37.52 254.247 37.952C253.671 38.368 253.303 39.008 253.143 39.872H259.071C259.023 39.088 258.735 38.464 258.207 38C257.679 37.536 257.023 37.304 256.239 37.304ZM59.5404 73.288C58.3244 73.288 57.2524 73.024 56.3244 72.496C55.3964 71.968 54.6604 71.232 54.1164 70.288C53.5884 69.344 53.3244 68.264 53.3244 67.048C53.3244 65.832 53.5884 64.752 54.1164 63.808C54.6604 62.864 55.3964 62.128 56.3244 61.6C57.2524 61.072 58.3244 60.808 59.5404 60.808C61.0604 60.808 62.3404 61.208 63.3804 62.008C64.4204 62.792 65.0844 63.88 65.3724 65.272H62.1324C61.9724 64.696 61.6524 64.248 61.1724 63.928C60.7084 63.592 60.1564 63.424 59.5164 63.424C58.6684 63.424 57.9484 63.744 57.3564 64.384C56.7644 65.024 56.4684 65.912 56.4684 67.048C56.4684 68.184 56.7644 69.072 57.3564 69.712C57.9484 70.352 58.6684 70.672 59.5164 70.672C60.1564 70.672 60.7084 70.512 61.1724 70.192C61.6524 69.872 61.9724 69.416 62.1324 68.824H65.3724C65.0844 70.168 64.4204 71.248 63.3804 72.064C62.3404 72.88 61.0604 73.288 59.5404 73.288ZM68.0991 73V61.096H70.8351L71.1231 63.328C71.5551 62.56 72.1391 61.952 72.8751 61.504C73.6271 61.04 74.5071 60.808 75.5151 60.808V64.048H74.6511C73.9791 64.048 73.3791 64.152 72.8511 64.36C72.3231 64.568 71.9071 64.928 71.6031 65.44C71.3151 65.952 71.1711 66.664 71.1711 67.576V73H68.0991ZM79.2707 59.248C78.7107 59.248 78.2467 59.08 77.8787 58.744C77.5267 58.408 77.3507 57.984 77.3507 57.472C77.3507 56.96 77.5267 56.544 77.8787 56.224C78.2467 55.888 78.7107 55.72 79.2707 55.72C79.8307 55.72 80.2867 55.888 80.6387 56.224C81.0067 56.544 81.1907 56.96 81.1907 57.472C81.1907 57.984 81.0067 58.408 80.6387 58.744C80.2867 59.08 79.8307 59.248 79.2707 59.248ZM77.7347 73V61.096H80.8067V73H77.7347ZM84.0131 78.28V61.096H86.7491L87.0851 62.8C87.4691 62.272 87.9731 61.808 88.5971 61.408C89.2371 61.008 90.0611 60.808 91.0691 60.808C92.1891 60.808 93.1891 61.08 94.0691 61.624C94.9491 62.168 95.6451 62.912 96.1571 63.856C96.6691 64.8 96.9251 65.872 96.9251 67.072C96.9251 68.272 96.6691 69.344 96.1571 70.288C95.6451 71.216 94.9491 71.952 94.0691 72.496C93.1891 73.024 92.1891 73.288 91.0691 73.288C90.1731 73.288 89.3891 73.12 88.7171 72.784C88.0451 72.448 87.5011 71.976 87.0851 71.368V78.28H84.0131ZM90.4211 70.6C91.3971 70.6 92.2051 70.272 92.8451 69.616C93.4851 68.96 93.8051 68.112 93.8051 67.072C93.8051 66.032 93.4851 65.176 92.8451 64.504C92.2051 63.832 91.3971 63.496 90.4211 63.496C89.4291 63.496 88.6131 63.832 87.9731 64.504C87.3491 65.16 87.0371 66.008 87.0371 67.048C87.0371 68.088 87.3491 68.944 87.9731 69.616C88.6131 70.272 89.4291 70.6 90.4211 70.6ZM104.505 73C103.257 73 102.257 72.696 101.505 72.088C100.753 71.48 100.377 70.4 100.377 68.848V63.664H98.3366V61.096H100.377L100.737 57.904H103.449V61.096H106.665V63.664H103.449V68.872C103.449 69.448 103.569 69.848 103.809 70.072C104.065 70.28 104.497 70.384 105.105 70.384H106.593V73H104.505ZM114.71 73.288C113.558 73.288 112.518 73.024 111.59 72.496C110.678 71.968 109.95 71.24 109.406 70.312C108.878 69.368 108.614 68.28 108.614 67.048C108.614 65.816 108.886 64.736 109.43 63.808C109.974 62.864 110.702 62.128 111.614 61.6C112.542 61.072 113.582 60.808 114.734 60.808C115.87 60.808 116.894 61.072 117.806 61.6C118.734 62.128 119.462 62.864 119.99 63.808C120.534 64.736 120.806 65.816 120.806 67.048C120.806 68.28 120.534 69.368 119.99 70.312C119.462 71.24 118.734 71.968 117.806 72.496C116.878 73.024 115.846 73.288 114.71 73.288ZM114.71 70.624C115.51 70.624 116.206 70.328 116.798 69.736C117.39 69.128 117.686 68.232 117.686 67.048C117.686 65.864 117.39 64.976 116.798 64.384C116.206 63.776 115.518 63.472 114.734 63.472C113.918 63.472 113.214 63.776 112.622 64.384C112.046 64.976 111.758 65.864 111.758 67.048C111.758 68.232 112.046 69.128 112.622 69.736C113.214 70.328 113.91 70.624 114.71 70.624ZM123.552 73V61.096H126.264L126.528 62.704C126.912 62.128 127.416 61.672 128.04 61.336C128.68 60.984 129.416 60.808 130.248 60.808C132.088 60.808 133.392 61.52 134.16 62.944C134.592 62.288 135.168 61.768 135.888 61.384C136.624 61 137.424 60.808 138.288 60.808C139.84 60.808 141.032 61.272 141.864 62.2C142.696 63.128 143.112 64.488 143.112 66.28V73H140.04V66.568C140.04 65.544 139.84 64.76 139.44 64.216C139.056 63.672 138.456 63.4 137.64 63.4C136.808 63.4 136.136 63.704 135.624 64.312C135.128 64.92 134.88 65.768 134.88 66.856V73H131.808V66.568C131.808 65.544 131.608 64.76 131.208 64.216C130.808 63.672 130.192 63.4 129.36 63.4C128.544 63.4 127.88 63.704 127.368 64.312C126.872 64.92 126.624 65.768 126.624 66.856V73H123.552ZM151.741 73.288C150.589 73.288 149.549 73.024 148.621 72.496C147.709 71.968 146.981 71.24 146.437 70.312C145.909 69.368 145.645 68.28 145.645 67.048C145.645 65.816 145.917 64.736 146.461 63.808C147.005 62.864 147.733 62.128 148.645 61.6C149.573 61.072 150.613 60.808 151.765 60.808C152.901 60.808 153.925 61.072 154.837 61.6C155.765 62.128 156.493 62.864 157.021 63.808C157.565 64.736 157.837 65.816 157.837 67.048C157.837 68.28 157.565 69.368 157.021 70.312C156.493 71.24 155.765 71.968 154.837 72.496C153.909 73.024 152.877 73.288 151.741 73.288ZM151.741 70.624C152.541 70.624 153.237 70.328 153.829 69.736C154.421 69.128 154.717 68.232 154.717 67.048C154.717 65.864 154.421 64.976 153.829 64.384C153.237 63.776 152.549 63.472 151.765 63.472C150.949 63.472 150.245 63.776 149.653 64.384C149.077 64.976 148.789 65.864 148.789 67.048C148.789 68.232 149.077 69.128 149.653 69.736C150.245 70.328 150.941 70.624 151.741 70.624ZM160.583 73V61.096H163.295L163.535 63.112C163.903 62.408 164.431 61.848 165.119 61.432C165.823 61.016 166.647 60.808 167.591 60.808C169.063 60.808 170.207 61.272 171.023 62.2C171.839 63.128 172.247 64.488 172.247 66.28V73H169.175V66.568C169.175 65.544 168.967 64.76 168.551 64.216C168.135 63.672 167.487 63.4 166.607 63.4C165.743 63.4 165.031 63.704 164.471 64.312C163.927 64.92 163.655 65.768 163.655 66.856V73H160.583ZM180.969 73.288C179.769 73.288 178.705 73.032 177.777 72.52C176.849 72.008 176.121 71.288 175.593 70.36C175.065 69.432 174.801 68.36 174.801 67.144C174.801 65.912 175.057 64.816 175.569 63.856C176.097 62.896 176.817 62.152 177.729 61.624C178.657 61.08 179.745 60.808 180.993 60.808C182.161 60.808 183.193 61.064 184.089 61.576C184.985 62.088 185.681 62.792 186.177 63.688C186.689 64.568 186.945 65.552 186.945 66.64C186.945 66.816 186.937 67 186.921 67.192C186.921 67.384 186.913 67.584 186.897 67.792H177.849C177.913 68.72 178.233 69.448 178.809 69.976C179.401 70.504 180.113 70.768 180.945 70.768C181.569 70.768 182.089 70.632 182.505 70.36C182.937 70.072 183.257 69.704 183.465 69.256H186.585C186.361 70.008 185.985 70.696 185.457 71.32C184.945 71.928 184.305 72.408 183.537 72.76C182.785 73.112 181.929 73.288 180.969 73.288ZM180.993 63.304C180.241 63.304 179.577 63.52 179.001 63.952C178.425 64.368 178.057 65.008 177.897 65.872H183.825C183.777 65.088 183.489 64.464 182.961 64C182.433 63.536 181.777 63.304 180.993 63.304ZM195.001 73.288C193.881 73.288 192.881 73.016 192.001 72.472C191.121 71.928 190.425 71.184 189.913 70.24C189.401 69.296 189.145 68.224 189.145 67.024C189.145 65.824 189.401 64.76 189.913 63.832C190.425 62.888 191.121 62.152 192.001 61.624C192.881 61.08 193.881 60.808 195.001 60.808C195.897 60.808 196.681 60.976 197.353 61.312C198.025 61.648 198.569 62.12 198.985 62.728V55.72H202.057V73H199.321L198.985 71.296C198.601 71.824 198.089 72.288 197.449 72.688C196.825 73.088 196.009 73.288 195.001 73.288ZM195.649 70.6C196.641 70.6 197.449 70.272 198.073 69.616C198.713 68.944 199.033 68.088 199.033 67.048C199.033 66.008 198.713 65.16 198.073 64.504C197.449 63.832 196.641 63.496 195.649 63.496C194.673 63.496 193.865 63.824 193.225 64.48C192.585 65.136 192.265 65.984 192.265 67.024C192.265 68.064 192.585 68.92 193.225 69.592C193.865 70.264 194.673 70.6 195.649 70.6ZM209.289 73.288C208.265 73.288 207.425 73.128 206.769 72.808C206.113 72.472 205.625 72.032 205.305 71.488C204.985 70.944 204.825 70.344 204.825 69.688C204.825 68.584 205.257 67.688 206.121 67C206.985 66.312 208.281 65.968 210.009 65.968H213.033V65.68C213.033 64.864 212.801 64.264 212.337 63.88C211.873 63.496 211.297 63.304 210.609 63.304C209.985 63.304 209.441 63.456 208.977 63.76C208.513 64.048 208.225 64.48 208.113 65.056H205.113C205.193 64.192 205.481 63.44 205.977 62.8C206.489 62.16 207.145 61.672 207.945 61.336C208.745 60.984 209.641 60.808 210.633 60.808C212.329 60.808 213.665 61.232 214.641 62.08C215.617 62.928 216.105 64.128 216.105 65.68V73H213.489L213.201 71.08C212.849 71.72 212.353 72.248 211.713 72.664C211.089 73.08 210.281 73.288 209.289 73.288ZM209.985 70.888C210.865 70.888 211.545 70.6 212.025 70.024C212.521 69.448 212.833 68.736 212.961 67.888H210.345C209.529 67.888 208.945 68.04 208.593 68.344C208.241 68.632 208.065 68.992 208.065 69.424C208.065 69.888 208.241 70.248 208.593 70.504C208.945 70.76 209.409 70.888 209.985 70.888ZM223.957 73.288C222.901 73.288 221.973 73.12 221.173 72.784C220.373 72.432 219.733 71.952 219.253 71.344C218.773 70.736 218.485 70.032 218.389 69.232H221.485C221.581 69.696 221.837 70.096 222.253 70.432C222.685 70.752 223.237 70.912 223.909 70.912C224.581 70.912 225.069 70.776 225.373 70.504C225.693 70.232 225.853 69.92 225.853 69.568C225.853 69.056 225.629 68.712 225.181 68.536C224.733 68.344 224.109 68.16 223.309 67.984C222.797 67.872 222.277 67.736 221.749 67.576C221.221 67.416 220.733 67.216 220.285 66.976C219.853 66.72 219.501 66.4 219.229 66.016C218.957 65.616 218.821 65.128 218.821 64.552C218.821 63.496 219.237 62.608 220.069 61.888C220.917 61.168 222.101 60.808 223.621 60.808C225.029 60.808 226.149 61.136 226.981 61.792C227.829 62.448 228.333 63.352 228.493 64.504H225.589C225.413 63.624 224.749 63.184 223.597 63.184C223.021 63.184 222.573 63.296 222.253 63.52C221.949 63.744 221.797 64.024 221.797 64.36C221.797 64.712 222.029 64.992 222.493 65.2C222.957 65.408 223.573 65.6 224.341 65.776C225.173 65.968 225.933 66.184 226.621 66.424C227.325 66.648 227.885 66.992 228.301 67.456C228.717 67.904 228.925 68.552 228.925 69.4C228.941 70.136 228.749 70.8 228.349 71.392C227.949 71.984 227.373 72.448 226.621 72.784C225.869 73.12 224.981 73.288 223.957 73.288ZM232.966 73.168C232.406 73.168 231.942 72.992 231.574 72.64C231.222 72.288 231.046 71.864 231.046 71.368C231.046 70.856 231.222 70.424 231.574 70.072C231.942 69.72 232.406 69.544 232.966 69.544C233.526 69.544 233.982 69.72 234.334 70.072C234.702 70.424 234.886 70.856 234.886 71.368C234.886 71.864 234.702 72.288 234.334 72.64C233.982 72.992 233.526 73.168 232.966 73.168Z" fill="white"/>
<path d="M26.1444 116V106.2H29.8404C30.8577 106.2 31.6277 106.438 32.1504 106.914C32.6731 107.39 32.9344 107.987 32.9344 108.706C32.9344 109.331 32.7664 109.831 32.4304 110.204C32.0944 110.568 31.6884 110.815 31.2124 110.946C31.5857 111.021 31.9171 111.17 32.2064 111.394C32.5051 111.618 32.7384 111.898 32.9064 112.234C33.0744 112.57 33.1584 112.934 33.1584 113.326C33.1584 113.83 33.0324 114.287 32.7804 114.698C32.5377 115.099 32.1784 115.417 31.7024 115.65C31.2264 115.883 30.6431 116 29.9524 116H26.1444ZM27.6284 110.4H29.6584C30.2277 110.4 30.6617 110.269 30.9604 110.008C31.2591 109.737 31.4084 109.369 31.4084 108.902C31.4084 108.445 31.2591 108.081 30.9604 107.81C30.6711 107.539 30.2277 107.404 29.6304 107.404H27.6284V110.4ZM27.6284 114.782H29.7564C30.3537 114.782 30.8157 114.642 31.1424 114.362C31.4784 114.082 31.6464 113.69 31.6464 113.186C31.6464 112.682 31.4737 112.285 31.1284 111.996C30.7831 111.697 30.3164 111.548 29.7284 111.548H27.6284V114.782ZM37.081 116.168C36.493 116.168 36.0077 116.07 35.625 115.874C35.2423 115.678 34.9577 115.421 34.771 115.104C34.5843 114.777 34.491 114.423 34.491 114.04C34.491 113.368 34.7523 112.836 35.275 112.444C35.7977 112.052 36.5443 111.856 37.515 111.856H39.335V111.73C39.335 111.189 39.1857 110.783 38.887 110.512C38.5977 110.241 38.2197 110.106 37.753 110.106C37.3423 110.106 36.983 110.209 36.675 110.414C36.3763 110.61 36.1943 110.904 36.129 111.296H34.645C34.6917 110.792 34.8597 110.363 35.149 110.008C35.4477 109.644 35.821 109.369 36.269 109.182C36.7263 108.986 37.2257 108.888 37.767 108.888C38.7377 108.888 39.489 109.145 40.021 109.658C40.553 110.162 40.819 110.853 40.819 111.73V116H39.531L39.405 114.81C39.209 115.193 38.9243 115.515 38.551 115.776C38.1777 116.037 37.6877 116.168 37.081 116.168ZM37.375 114.964C37.7763 114.964 38.1123 114.871 38.383 114.684C38.663 114.488 38.8777 114.231 39.027 113.914C39.1857 113.597 39.2837 113.247 39.321 112.864H37.669C37.081 112.864 36.661 112.967 36.409 113.172C36.1663 113.377 36.045 113.634 36.045 113.942C36.045 114.259 36.1617 114.511 36.395 114.698C36.6377 114.875 36.9643 114.964 37.375 114.964ZM45.3246 116C44.6433 116 44.1019 115.837 43.7006 115.51C43.2993 115.174 43.0986 114.581 43.0986 113.732V110.302H41.9086V109.056H43.0986L43.2806 107.292H44.5826V109.056H46.5426V110.302H44.5826V113.732C44.5826 114.115 44.6619 114.381 44.8206 114.53C44.9886 114.67 45.2733 114.74 45.6746 114.74H46.4726V116H45.3246ZM50.4248 116.168C49.8368 116.168 49.3514 116.07 48.9688 115.874C48.5861 115.678 48.3014 115.421 48.1148 115.104C47.9281 114.777 47.8348 114.423 47.8348 114.04C47.8348 113.368 48.0961 112.836 48.6188 112.444C49.1414 112.052 49.8881 111.856 50.8588 111.856H52.6788V111.73C52.6788 111.189 52.5294 110.783 52.2308 110.512C51.9414 110.241 51.5634 110.106 51.0968 110.106C50.6861 110.106 50.3268 110.209 50.0188 110.414C49.7201 110.61 49.5381 110.904 49.4728 111.296H47.9888C48.0354 110.792 48.2034 110.363 48.4928 110.008C48.7914 109.644 49.1648 109.369 49.6128 109.182C50.0701 108.986 50.5694 108.888 51.1108 108.888C52.0814 108.888 52.8328 109.145 53.3648 109.658C53.8968 110.162 54.1628 110.853 54.1628 111.73V116H52.8748L52.7488 114.81C52.5528 115.193 52.2681 115.515 51.8948 115.776C51.5214 116.037 51.0314 116.168 50.4248 116.168ZM50.7188 114.964C51.1201 114.964 51.4561 114.871 51.7268 114.684C52.0068 114.488 52.2214 114.231 52.3708 113.914C52.5294 113.597 52.6274 113.247 52.6648 112.864H51.0128C50.4248 112.864 50.0048 112.967 49.7528 113.172C49.5101 113.377 49.3888 113.634 49.3888 113.942C49.3888 114.259 49.5054 114.511 49.7388 114.698C49.9814 114.875 50.3081 114.964 50.7188 114.964ZM59.7991 116.168C59.2577 116.168 58.7771 116.061 58.3571 115.846C57.9464 115.631 57.6197 115.328 57.3771 114.936L57.2231 116H55.8931V105.92H57.3771V110.134C57.6011 109.807 57.9091 109.518 58.3011 109.266C58.6931 109.014 59.1971 108.888 59.8131 108.888C60.4851 108.888 61.0777 109.047 61.5911 109.364C62.1044 109.681 62.5057 110.115 62.7951 110.666C63.0937 111.217 63.2431 111.842 63.2431 112.542C63.2431 113.242 63.0937 113.867 62.7951 114.418C62.5057 114.959 62.1044 115.389 61.5911 115.706C61.0777 116.014 60.4804 116.168 59.7991 116.168ZM59.5471 114.88C60.1817 114.88 60.7044 114.665 61.1151 114.236C61.5257 113.797 61.7311 113.228 61.7311 112.528C61.7311 112.071 61.6377 111.665 61.4511 111.31C61.2644 110.955 61.0077 110.68 60.6811 110.484C60.3544 110.279 59.9764 110.176 59.5471 110.176C58.9124 110.176 58.3897 110.395 57.9791 110.834C57.5777 111.273 57.3771 111.837 57.3771 112.528C57.3771 113.228 57.5777 113.797 57.9791 114.236C58.3897 114.665 58.9124 114.88 59.5471 114.88ZM65.6882 107.74C65.4082 107.74 65.1748 107.656 64.9882 107.488C64.8108 107.311 64.7222 107.091 64.7222 106.83C64.7222 106.569 64.8108 106.354 64.9882 106.186C65.1748 106.009 65.4082 105.92 65.6882 105.92C65.9682 105.92 66.1968 106.009 66.3742 106.186C66.5608 106.354 66.6542 106.569 66.6542 106.83C66.6542 107.091 66.5608 107.311 66.3742 107.488C66.1968 107.656 65.9682 107.74 65.6882 107.74ZM64.9462 116V109.056H66.4302V116H64.9462ZM71.3012 116C70.6198 116 70.0785 115.837 69.6772 115.51C69.2758 115.174 69.0752 114.581 69.0752 113.732V110.302H67.8852V109.056H69.0752L69.2572 107.292H70.5592V109.056H72.5192V110.302H70.5592V113.732C70.5592 114.115 70.6385 114.381 70.7972 114.53C70.9652 114.67 71.2498 114.74 71.6512 114.74H72.4492V116H71.3012ZM80.4887 116C79.8073 116 79.266 115.837 78.8647 115.51C78.4633 115.174 78.2627 114.581 78.2627 113.732V110.302H77.0727V109.056H78.2627L78.4447 107.292H79.7467V109.056H81.7067V110.302H79.7467V113.732C79.7467 114.115 79.826 114.381 79.9847 114.53C80.1527 114.67 80.4373 114.74 80.8387 114.74H81.6367V116H80.4887ZM86.3071 116.168C85.6258 116.168 85.0191 116.019 84.4871 115.72C83.9644 115.412 83.5538 114.987 83.2551 114.446C82.9564 113.905 82.8071 113.275 82.8071 112.556C82.8071 111.828 82.9518 111.189 83.2411 110.638C83.5398 110.087 83.9504 109.658 84.4731 109.35C85.0051 109.042 85.6211 108.888 86.3211 108.888C87.0024 108.888 87.5951 109.042 88.0991 109.35C88.6031 109.649 88.9951 110.05 89.2751 110.554C89.5551 111.058 89.6951 111.613 89.6951 112.22C89.6951 112.313 89.6904 112.416 89.6811 112.528C89.6811 112.631 89.6764 112.747 89.6671 112.878H84.2631C84.3098 113.55 84.5291 114.063 84.9211 114.418C85.3224 114.763 85.7844 114.936 86.3071 114.936C86.7271 114.936 87.0771 114.843 87.3571 114.656C87.6464 114.46 87.8611 114.199 88.0011 113.872H89.4851C89.2984 114.525 88.9251 115.071 88.3651 115.51C87.8144 115.949 87.1284 116.168 86.3071 116.168ZM86.3071 110.106C85.8124 110.106 85.3738 110.255 84.9911 110.554C84.6084 110.843 84.3751 111.282 84.2911 111.87H88.2111C88.1831 111.329 87.9918 110.899 87.6371 110.582C87.2824 110.265 86.8391 110.106 86.3071 110.106ZM97.1142 116.168C96.5262 116.168 96.0409 116.07 95.6582 115.874C95.2756 115.678 94.9909 115.421 94.8042 115.104C94.6176 114.777 94.5242 114.423 94.5242 114.04C94.5242 113.368 94.7856 112.836 95.3082 112.444C95.8309 112.052 96.5776 111.856 97.5482 111.856H99.3682V111.73C99.3682 111.189 99.2189 110.783 98.9202 110.512C98.6309 110.241 98.2529 110.106 97.7862 110.106C97.3756 110.106 97.0162 110.209 96.7082 110.414C96.4096 110.61 96.2276 110.904 96.1622 111.296H94.6782C94.7249 110.792 94.8929 110.363 95.1822 110.008C95.4809 109.644 95.8542 109.369 96.3022 109.182C96.7596 108.986 97.2589 108.888 97.8002 108.888C98.7709 108.888 99.5222 109.145 100.054 109.658C100.586 110.162 100.852 110.853 100.852 111.73V116H99.5642L99.4382 114.81C99.2422 115.193 98.9576 115.515 98.5842 115.776C98.2109 116.037 97.7209 116.168 97.1142 116.168ZM97.4082 114.964C97.8096 114.964 98.1456 114.871 98.4162 114.684C98.6962 114.488 98.9109 114.231 99.0602 113.914C99.2189 113.597 99.3169 113.247 99.3542 112.864H97.7022C97.1142 112.864 96.6942 112.967 96.4422 113.172C96.1996 113.377 96.0782 113.634 96.0782 113.942C96.0782 114.259 96.1949 114.511 96.4282 114.698C96.6709 114.875 96.9976 114.964 97.4082 114.964ZM103.176 119.08L104.842 115.426H104.436L101.692 109.056H103.302L105.43 114.194L107.656 109.056H109.224L104.744 119.08H103.176ZM116.828 109.056V116H115.512L115.4 114.782C115.185 115.211 114.868 115.552 114.448 115.804C114.037 116.047 113.561 116.168 113.02 116.168C112.18 116.168 111.517 115.907 111.032 115.384C110.556 114.861 110.318 114.082 110.318 113.046V109.056H111.788V112.892C111.788 114.236 112.339 114.908 113.44 114.908C113.991 114.908 114.443 114.712 114.798 114.32C115.162 113.928 115.344 113.368 115.344 112.64V109.056H116.828ZM121.866 116.168C121.194 116.168 120.601 116.009 120.088 115.692C119.574 115.375 119.173 114.941 118.884 114.39C118.594 113.839 118.45 113.214 118.45 112.514C118.45 111.814 118.594 111.193 118.884 110.652C119.173 110.101 119.574 109.672 120.088 109.364C120.61 109.047 121.208 108.888 121.88 108.888C122.43 108.888 122.911 108.995 123.322 109.21C123.742 109.425 124.068 109.728 124.302 110.12V105.92H125.786V116H124.456L124.302 114.922C124.078 115.249 123.77 115.538 123.378 115.79C122.986 116.042 122.482 116.168 121.866 116.168ZM122.132 114.88C122.766 114.88 123.284 114.661 123.686 114.222C124.096 113.783 124.302 113.219 124.302 112.528C124.302 111.828 124.096 111.263 123.686 110.834C123.284 110.395 122.766 110.176 122.132 110.176C121.497 110.176 120.974 110.395 120.564 110.834C120.153 111.263 119.948 111.828 119.948 112.528C119.948 112.985 120.041 113.391 120.228 113.746C120.414 114.101 120.671 114.381 120.998 114.586C121.334 114.782 121.712 114.88 122.132 114.88ZM130.009 116.168C129.421 116.168 128.935 116.07 128.553 115.874C128.17 115.678 127.885 115.421 127.699 115.104C127.512 114.777 127.419 114.423 127.419 114.04C127.419 113.368 127.68 112.836 128.203 112.444C128.725 112.052 129.472 111.856 130.443 111.856H132.263V111.73C132.263 111.189 132.113 110.783 131.815 110.512C131.525 110.241 131.147 110.106 130.681 110.106C130.27 110.106 129.911 110.209 129.603 110.414C129.304 110.61 129.122 110.904 129.057 111.296H127.573C127.619 110.792 127.787 110.363 128.077 110.008C128.375 109.644 128.749 109.369 129.197 109.182C129.654 108.986 130.153 108.888 130.695 108.888C131.665 108.888 132.417 109.145 132.949 109.658C133.481 110.162 133.747 110.853 133.747 111.73V116H132.459L132.333 114.81C132.137 115.193 131.852 115.515 131.479 115.776C131.105 116.037 130.615 116.168 130.009 116.168ZM130.303 114.964C130.704 114.964 131.04 114.871 131.311 114.684C131.591 114.488 131.805 114.231 131.955 113.914C132.113 113.597 132.211 113.247 132.249 112.864H130.597C130.009 112.864 129.589 112.967 129.337 113.172C129.094 113.377 128.973 113.634 128.973 113.942C128.973 114.259 129.089 114.511 129.323 114.698C129.565 114.875 129.892 114.964 130.303 114.964ZM141.356 116.168C140.768 116.168 140.283 116.07 139.9 115.874C139.518 115.678 139.233 115.421 139.046 115.104C138.86 114.777 138.766 114.423 138.766 114.04C138.766 113.368 139.028 112.836 139.55 112.444C140.073 112.052 140.82 111.856 141.79 111.856H143.61V111.73C143.61 111.189 143.461 110.783 143.162 110.512C142.873 110.241 142.495 110.106 142.028 110.106C141.618 110.106 141.258 110.209 140.95 110.414C140.652 110.61 140.47 110.904 140.404 111.296H138.92C138.967 110.792 139.135 110.363 139.424 110.008C139.723 109.644 140.096 109.369 140.544 109.182C141.002 108.986 141.501 108.888 142.042 108.888C143.013 108.888 143.764 109.145 144.296 109.658C144.828 110.162 145.094 110.853 145.094 111.73V116H143.806L143.68 114.81C143.484 115.193 143.2 115.515 142.826 115.776C142.453 116.037 141.963 116.168 141.356 116.168ZM141.65 114.964C142.052 114.964 142.388 114.871 142.658 114.684C142.938 114.488 143.153 114.231 143.302 113.914C143.461 113.597 143.559 113.247 143.596 112.864H141.944C141.356 112.864 140.936 112.967 140.684 113.172C140.442 113.377 140.32 113.634 140.32 113.942C140.32 114.259 140.437 114.511 140.67 114.698C140.913 114.875 141.24 114.964 141.65 114.964ZM150.352 116V109.056H151.668L151.78 110.274C151.995 109.845 152.307 109.509 152.718 109.266C153.138 109.014 153.619 108.888 154.16 108.888C155 108.888 155.658 109.149 156.134 109.672C156.619 110.195 156.862 110.974 156.862 112.01V116H155.392V112.164C155.392 110.82 154.841 110.148 153.74 110.148C153.189 110.148 152.732 110.344 152.368 110.736C152.013 111.128 151.836 111.688 151.836 112.416V116H150.352ZM160.962 116.168C160.374 116.168 159.889 116.07 159.506 115.874C159.123 115.678 158.839 115.421 158.652 115.104C158.465 114.777 158.372 114.423 158.372 114.04C158.372 113.368 158.633 112.836 159.156 112.444C159.679 112.052 160.425 111.856 161.396 111.856H163.216V111.73C163.216 111.189 163.067 110.783 162.768 110.512C162.479 110.241 162.101 110.106 161.634 110.106C161.223 110.106 160.864 110.209 160.556 110.414C160.257 110.61 160.075 110.904 160.01 111.296H158.526C158.573 110.792 158.741 110.363 159.03 110.008C159.329 109.644 159.702 109.369 160.15 109.182C160.607 108.986 161.107 108.888 161.648 108.888C162.619 108.888 163.37 109.145 163.902 109.658C164.434 110.162 164.7 110.853 164.7 111.73V116H163.412L163.286 114.81C163.09 115.193 162.805 115.515 162.432 115.776C162.059 116.037 161.569 116.168 160.962 116.168ZM161.256 114.964C161.657 114.964 161.993 114.871 162.264 114.684C162.544 114.488 162.759 114.231 162.908 113.914C163.067 113.597 163.165 113.247 163.202 112.864H161.55C160.962 112.864 160.542 112.967 160.29 113.172C160.047 113.377 159.926 113.634 159.926 113.942C159.926 114.259 160.043 114.511 160.276 114.698C160.519 114.875 160.845 114.964 161.256 114.964ZM168.144 116L165.54 109.056H167.094L169.026 114.586L170.958 109.056H172.498L169.908 116H168.144ZM176.61 116.168C175.928 116.168 175.322 116.019 174.79 115.72C174.267 115.412 173.856 114.987 173.558 114.446C173.259 113.905 173.11 113.275 173.11 112.556C173.11 111.828 173.254 111.189 173.544 110.638C173.842 110.087 174.253 109.658 174.776 109.35C175.308 109.042 175.924 108.888 176.624 108.888C177.305 108.888 177.898 109.042 178.402 109.35C178.906 109.649 179.298 110.05 179.578 110.554C179.858 111.058 179.998 111.613 179.998 112.22C179.998 112.313 179.993 112.416 179.984 112.528C179.984 112.631 179.979 112.747 179.97 112.878H174.566C174.612 113.55 174.832 114.063 175.224 114.418C175.625 114.763 176.087 114.936 176.61 114.936C177.03 114.936 177.38 114.843 177.66 114.656C177.949 114.46 178.164 114.199 178.304 113.872H179.788C179.601 114.525 179.228 115.071 178.668 115.51C178.117 115.949 177.431 116.168 176.61 116.168ZM176.61 110.106C176.115 110.106 175.676 110.255 175.294 110.554C174.911 110.843 174.678 111.282 174.594 111.87H178.514C178.486 111.329 178.294 110.899 177.94 110.582C177.585 110.265 177.142 110.106 176.61 110.106ZM184.284 113.872C183.92 113.872 183.584 113.83 183.276 113.746L182.674 114.334C182.777 114.399 182.903 114.455 183.052 114.502C183.201 114.549 183.411 114.591 183.682 114.628C183.953 114.665 184.321 114.703 184.788 114.74C185.712 114.824 186.379 115.048 186.79 115.412C187.201 115.767 187.406 116.243 187.406 116.84C187.406 117.251 187.294 117.638 187.07 118.002C186.855 118.375 186.515 118.674 186.048 118.898C185.591 119.131 185.003 119.248 184.284 119.248C183.313 119.248 182.525 119.061 181.918 118.688C181.321 118.324 181.022 117.769 181.022 117.022C181.022 116.733 181.097 116.443 181.246 116.154C181.405 115.874 181.652 115.608 181.988 115.356C181.792 115.272 181.619 115.183 181.47 115.09C181.33 114.987 181.204 114.885 181.092 114.782V114.446L182.296 113.214C181.755 112.747 181.484 112.136 181.484 111.38C181.484 110.923 181.591 110.507 181.806 110.134C182.03 109.751 182.352 109.448 182.772 109.224C183.192 109 183.696 108.888 184.284 108.888C184.676 108.888 185.04 108.944 185.376 109.056H187.966V110.036L186.734 110.106C186.958 110.489 187.07 110.913 187.07 111.38C187.07 111.847 186.958 112.267 186.734 112.64C186.519 113.013 186.202 113.312 185.782 113.536C185.371 113.76 184.872 113.872 184.284 113.872ZM184.284 112.71C184.713 112.71 185.059 112.598 185.32 112.374C185.591 112.141 185.726 111.814 185.726 111.394C185.726 110.965 185.591 110.638 185.32 110.414C185.059 110.19 184.713 110.078 184.284 110.078C183.845 110.078 183.491 110.19 183.22 110.414C182.959 110.638 182.828 110.965 182.828 111.394C182.828 111.814 182.959 112.141 183.22 112.374C183.491 112.598 183.845 112.71 184.284 112.71ZM182.422 116.882C182.422 117.283 182.599 117.582 182.954 117.778C183.309 117.983 183.752 118.086 184.284 118.086C184.797 118.086 185.213 117.974 185.53 117.75C185.847 117.535 186.006 117.246 186.006 116.882C186.006 116.611 185.899 116.378 185.684 116.182C185.469 115.995 185.063 115.879 184.466 115.832C184.018 115.804 183.621 115.762 183.276 115.706C182.949 115.883 182.725 116.075 182.604 116.28C182.483 116.485 182.422 116.686 182.422 116.882ZM191.642 116.168C191.054 116.168 190.568 116.07 190.186 115.874C189.803 115.678 189.518 115.421 189.332 115.104C189.145 114.777 189.052 114.423 189.052 114.04C189.052 113.368 189.313 112.836 189.836 112.444C190.358 112.052 191.105 111.856 192.076 111.856H193.896V111.73C193.896 111.189 193.746 110.783 193.448 110.512C193.158 110.241 192.78 110.106 192.314 110.106C191.903 110.106 191.544 110.209 191.236 110.414C190.937 110.61 190.755 110.904 190.69 111.296H189.206C189.252 110.792 189.42 110.363 189.71 110.008C190.008 109.644 190.382 109.369 190.83 109.182C191.287 108.986 191.786 108.888 192.328 108.888C193.298 108.888 194.05 109.145 194.582 109.658C195.114 110.162 195.38 110.853 195.38 111.73V116H194.092L193.966 114.81C193.77 115.193 193.485 115.515 193.112 115.776C192.738 116.037 192.248 116.168 191.642 116.168ZM191.936 114.964C192.337 114.964 192.673 114.871 192.944 114.684C193.224 114.488 193.438 114.231 193.588 113.914C193.746 113.597 193.844 113.247 193.882 112.864H192.23C191.642 112.864 191.222 112.967 190.97 113.172C190.727 113.377 190.606 113.634 190.606 113.942C190.606 114.259 190.722 114.511 190.956 114.698C191.198 114.875 191.525 114.964 191.936 114.964ZM197.11 116V109.056H198.44L198.566 110.372C198.809 109.915 199.145 109.555 199.574 109.294C200.013 109.023 200.54 108.888 201.156 108.888V110.442H200.75C200.339 110.442 199.971 110.512 199.644 110.652C199.327 110.783 199.07 111.011 198.874 111.338C198.687 111.655 198.594 112.099 198.594 112.668V116H197.11ZM209.204 116.168C208.522 116.168 207.916 116.019 207.384 115.72C206.861 115.412 206.45 114.987 206.152 114.446C205.853 113.905 205.704 113.275 205.704 112.556C205.704 111.828 205.848 111.189 206.138 110.638C206.436 110.087 206.847 109.658 207.37 109.35C207.902 109.042 208.518 108.888 209.218 108.888C209.899 108.888 210.492 109.042 210.996 109.35C211.5 109.649 211.892 110.05 212.172 110.554C212.452 111.058 212.592 111.613 212.592 112.22C212.592 112.313 212.587 112.416 212.578 112.528C212.578 112.631 212.573 112.747 212.564 112.878H207.16C207.206 113.55 207.426 114.063 207.818 114.418C208.219 114.763 208.681 114.936 209.204 114.936C209.624 114.936 209.974 114.843 210.254 114.656C210.543 114.46 210.758 114.199 210.898 113.872H212.382C212.195 114.525 211.822 115.071 211.262 115.51C210.711 115.949 210.025 116.168 209.204 116.168ZM209.204 110.106C208.709 110.106 208.27 110.255 207.888 110.554C207.505 110.843 207.272 111.282 207.188 111.87H211.108C211.08 111.329 210.888 110.899 210.534 110.582C210.179 110.265 209.736 110.106 209.204 110.106ZM214.131 116V109.056H215.447L215.559 110.274C215.774 109.845 216.087 109.509 216.497 109.266C216.917 109.014 217.398 108.888 217.939 108.888C218.779 108.888 219.437 109.149 219.913 109.672C220.399 110.195 220.641 110.974 220.641 112.01V116H219.171V112.164C219.171 110.82 218.621 110.148 217.519 110.148C216.969 110.148 216.511 110.344 216.147 110.736C215.793 111.128 215.615 111.688 215.615 112.416V116H214.131ZM225.301 116C224.62 116 224.079 115.837 223.677 115.51C223.276 115.174 223.075 114.581 223.075 113.732V110.302H221.885V109.056H223.075L223.257 107.292H224.559V109.056H226.519V110.302H224.559V113.732C224.559 114.115 224.639 114.381 224.797 114.53C224.965 114.67 225.25 114.74 225.651 114.74H226.449V116H225.301ZM228.049 116V109.056H229.379L229.505 110.372C229.748 109.915 230.084 109.555 230.513 109.294C230.952 109.023 231.479 108.888 232.095 108.888V110.442H231.689C231.279 110.442 230.91 110.512 230.583 110.652C230.266 110.783 230.009 111.011 229.813 111.338C229.627 111.655 229.533 112.099 229.533 112.668V116H228.049ZM236.424 116.168C235.743 116.168 235.136 116.019 234.604 115.72C234.082 115.412 233.671 114.987 233.372 114.446C233.074 113.905 232.924 113.275 232.924 112.556C232.924 111.828 233.069 111.189 233.358 110.638C233.657 110.087 234.068 109.658 234.59 109.35C235.122 109.042 235.738 108.888 236.438 108.888C237.12 108.888 237.712 109.042 238.216 109.35C238.72 109.649 239.112 110.05 239.392 110.554C239.672 111.058 239.812 111.613 239.812 112.22C239.812 112.313 239.808 112.416 239.798 112.528C239.798 112.631 239.794 112.747 239.784 112.878H234.38C234.427 113.55 234.646 114.063 235.038 114.418C235.44 114.763 235.902 114.936 236.424 114.936C236.844 114.936 237.194 114.843 237.474 114.656C237.764 114.46 237.978 114.199 238.118 113.872H239.602C239.416 114.525 239.042 115.071 238.482 115.51C237.932 115.949 237.246 116.168 236.424 116.168ZM236.424 110.106C235.93 110.106 235.491 110.255 235.108 110.554C234.726 110.843 234.492 111.282 234.408 111.87H238.328C238.3 111.329 238.109 110.899 237.754 110.582C237.4 110.265 236.956 110.106 236.424 110.106ZM244.879 116V105.92H246.363V116H244.879ZM251.491 116.168C250.828 116.168 250.231 116.019 249.699 115.72C249.176 115.412 248.761 114.987 248.453 114.446C248.145 113.895 247.991 113.256 247.991 112.528C247.991 111.8 248.145 111.165 248.453 110.624C248.77 110.073 249.195 109.649 249.727 109.35C250.259 109.042 250.851 108.888 251.505 108.888C252.167 108.888 252.76 109.042 253.283 109.35C253.815 109.649 254.235 110.073 254.543 110.624C254.86 111.165 255.019 111.8 255.019 112.528C255.019 113.256 254.86 113.895 254.543 114.446C254.235 114.987 253.815 115.412 253.283 115.72C252.751 116.019 252.153 116.168 251.491 116.168ZM251.491 114.894C251.845 114.894 252.172 114.805 252.471 114.628C252.779 114.451 253.026 114.189 253.213 113.844C253.399 113.489 253.493 113.051 253.493 112.528C253.493 112.005 253.399 111.571 253.213 111.226C253.035 110.871 252.793 110.605 252.485 110.428C252.186 110.251 251.859 110.162 251.505 110.162C251.15 110.162 250.819 110.251 250.511 110.428C250.212 110.605 249.969 110.871 249.783 111.226C249.596 111.571 249.503 112.005 249.503 112.528C249.503 113.051 249.596 113.489 249.783 113.844C249.969 114.189 250.212 114.451 250.511 114.628C250.809 114.805 251.136 114.894 251.491 114.894ZM259.396 116.168C258.518 116.168 257.795 115.953 257.226 115.524C256.656 115.095 256.33 114.525 256.246 113.816H257.744C257.818 114.133 257.996 114.409 258.276 114.642C258.556 114.866 258.924 114.978 259.382 114.978C259.83 114.978 260.156 114.885 260.362 114.698C260.567 114.511 260.67 114.297 260.67 114.054C260.67 113.699 260.525 113.461 260.236 113.34C259.956 113.209 259.564 113.093 259.06 112.99C258.668 112.906 258.276 112.794 257.884 112.654C257.501 112.514 257.179 112.318 256.918 112.066C256.666 111.805 256.54 111.455 256.54 111.016C256.54 110.409 256.773 109.905 257.24 109.504C257.706 109.093 258.36 108.888 259.2 108.888C259.974 108.888 260.6 109.075 261.076 109.448C261.561 109.821 261.846 110.349 261.93 111.03H260.502C260.455 110.731 260.315 110.498 260.082 110.33C259.858 110.162 259.554 110.078 259.172 110.078C258.798 110.078 258.509 110.157 258.304 110.316C258.098 110.465 257.996 110.661 257.996 110.904C257.996 111.147 258.136 111.338 258.416 111.478C258.705 111.618 259.083 111.744 259.55 111.856C260.016 111.959 260.446 112.08 260.838 112.22C261.239 112.351 261.561 112.547 261.804 112.808C262.046 113.069 262.168 113.452 262.168 113.956C262.177 114.591 261.93 115.118 261.426 115.538C260.931 115.958 260.254 116.168 259.396 116.168ZM41.6665 134.168C40.9945 134.168 40.4018 134.009 39.8885 133.692C39.3751 133.375 38.9738 132.941 38.6845 132.39C38.3951 131.839 38.2505 131.214 38.2505 130.514C38.2505 129.814 38.3951 129.193 38.6845 128.652C38.9738 128.101 39.3751 127.672 39.8885 127.364C40.4111 127.047 41.0085 126.888 41.6805 126.888C42.2311 126.888 42.7118 126.995 43.1225 127.21C43.5425 127.425 43.8691 127.728 44.1025 128.12V123.92H45.5865V134H44.2565L44.1025 132.922C43.8785 133.249 43.5705 133.538 43.1785 133.79C42.7865 134.042 42.2825 134.168 41.6665 134.168ZM41.9325 132.88C42.5671 132.88 43.0851 132.661 43.4865 132.222C43.8971 131.783 44.1025 131.219 44.1025 130.528C44.1025 129.828 43.8971 129.263 43.4865 128.834C43.0851 128.395 42.5671 128.176 41.9325 128.176C41.2978 128.176 40.7751 128.395 40.3645 128.834C39.9538 129.263 39.7485 129.828 39.7485 130.528C39.7485 130.985 39.8418 131.391 40.0285 131.746C40.2151 132.101 40.4718 132.381 40.7985 132.586C41.1345 132.782 41.5125 132.88 41.9325 132.88ZM48.2975 125.74C48.0175 125.74 47.7842 125.656 47.5975 125.488C47.4202 125.311 47.3315 125.091 47.3315 124.83C47.3315 124.569 47.4202 124.354 47.5975 124.186C47.7842 124.009 48.0175 123.92 48.2975 123.92C48.5775 123.92 48.8062 124.009 48.9835 124.186C49.1702 124.354 49.2635 124.569 49.2635 124.83C49.2635 125.091 49.1702 125.311 48.9835 125.488C48.8062 125.656 48.5775 125.74 48.2975 125.74ZM47.5555 134V127.056H49.0395V134H47.5555ZM51.3485 134V128.302H50.3545V127.056H51.3485V126.048C51.3485 125.292 51.5352 124.751 51.9085 124.424C52.2912 124.088 52.8279 123.92 53.5185 123.92H54.2465V125.18H53.7425C53.4159 125.18 53.1825 125.25 53.0425 125.39C52.9025 125.521 52.8325 125.745 52.8325 126.062V127.056H54.4285V128.302H52.8325V134H51.3485ZM58.813 134.168C58.1316 134.168 57.525 134.019 56.993 133.72C56.4703 133.412 56.0596 132.987 55.761 132.446C55.4623 131.905 55.313 131.275 55.313 130.556C55.313 129.828 55.4576 129.189 55.747 128.638C56.0456 128.087 56.4563 127.658 56.979 127.35C57.511 127.042 58.127 126.888 58.827 126.888C59.5083 126.888 60.101 127.042 60.605 127.35C61.109 127.649 61.501 128.05 61.781 128.554C62.061 129.058 62.201 129.613 62.201 130.22C62.201 130.313 62.1963 130.416 62.187 130.528C62.187 130.631 62.1823 130.747 62.173 130.878H56.769C56.8156 131.55 57.035 132.063 57.427 132.418C57.8283 132.763 58.2903 132.936 58.813 132.936C59.233 132.936 59.583 132.843 59.863 132.656C60.1523 132.46 60.367 132.199 60.507 131.872H61.991C61.8043 132.525 61.431 133.071 60.871 133.51C60.3203 133.949 59.6343 134.168 58.813 134.168ZM58.813 128.106C58.3183 128.106 57.8796 128.255 57.497 128.554C57.1143 128.843 56.881 129.282 56.797 129.87H60.717C60.689 129.329 60.4976 128.899 60.143 128.582C59.7883 128.265 59.345 128.106 58.813 128.106ZM63.7407 134V127.056H65.0707L65.1967 128.372C65.4394 127.915 65.7754 127.555 66.2047 127.294C66.6434 127.023 67.1707 126.888 67.7867 126.888V128.442H67.3807C66.9701 128.442 66.6014 128.512 66.2747 128.652C65.9574 128.783 65.7007 129.011 65.5047 129.338C65.3181 129.655 65.2247 130.099 65.2247 130.668V134H63.7407ZM72.1157 134.168C71.4344 134.168 70.8277 134.019 70.2957 133.72C69.773 133.412 69.3624 132.987 69.0637 132.446C68.765 131.905 68.6157 131.275 68.6157 130.556C68.6157 129.828 68.7604 129.189 69.0497 128.638C69.3484 128.087 69.759 127.658 70.2817 127.35C70.8137 127.042 71.4297 126.888 72.1297 126.888C72.811 126.888 73.4037 127.042 73.9077 127.35C74.4117 127.649 74.8037 128.05 75.0837 128.554C75.3637 129.058 75.5037 129.613 75.5037 130.22C75.5037 130.313 75.499 130.416 75.4897 130.528C75.4897 130.631 75.485 130.747 75.4757 130.878H70.0717C70.1184 131.55 70.3377 132.063 70.7297 132.418C71.131 132.763 71.593 132.936 72.1157 132.936C72.5357 132.936 72.8857 132.843 73.1657 132.656C73.455 132.46 73.6697 132.199 73.8097 131.872H75.2937C75.107 132.525 74.7337 133.071 74.1737 133.51C73.623 133.949 72.937 134.168 72.1157 134.168ZM72.1157 128.106C71.621 128.106 71.1824 128.255 70.7997 128.554C70.417 128.843 70.1837 129.282 70.0997 129.87H74.0197C73.9917 129.329 73.8004 128.899 73.4457 128.582C73.091 128.265 72.6477 128.106 72.1157 128.106ZM77.0435 134V127.056H78.3595L78.4715 128.274C78.6861 127.845 78.9988 127.509 79.4095 127.266C79.8295 127.014 80.3101 126.888 80.8515 126.888C81.6915 126.888 82.3495 127.149 82.8255 127.672C83.3108 128.195 83.5535 128.974 83.5535 130.01V134H82.0835V130.164C82.0835 128.82 81.5328 128.148 80.4315 128.148C79.8808 128.148 79.4235 128.344 79.0595 128.736C78.7048 129.128 78.5275 129.688 78.5275 130.416V134H77.0435ZM88.2133 134C87.5319 134 86.9906 133.837 86.5893 133.51C86.1879 133.174 85.9873 132.581 85.9873 131.732V128.302H84.7973V127.056H85.9873L86.1693 125.292H87.4713V127.056H89.4313V128.302H87.4713V131.732C87.4713 132.115 87.5506 132.381 87.7093 132.53C87.8773 132.67 88.1619 132.74 88.5633 132.74H89.3613V134H88.2133ZM94.0317 134.168C93.3504 134.168 92.7437 134.019 92.2117 133.72C91.689 133.412 91.2784 132.987 90.9797 132.446C90.681 131.905 90.5317 131.275 90.5317 130.556C90.5317 129.828 90.6764 129.189 90.9657 128.638C91.2644 128.087 91.675 127.658 92.1977 127.35C92.7297 127.042 93.3457 126.888 94.0457 126.888C94.727 126.888 95.3197 127.042 95.8237 127.35C96.3277 127.649 96.7197 128.05 96.9997 128.554C97.2797 129.058 97.4197 129.613 97.4197 130.22C97.4197 130.313 97.415 130.416 97.4057 130.528C97.4057 130.631 97.401 130.747 97.3917 130.878H91.9877C92.0344 131.55 92.2537 132.063 92.6457 132.418C93.047 132.763 93.509 132.936 94.0317 132.936C94.4517 132.936 94.8017 132.843 95.0817 132.656C95.371 132.46 95.5857 132.199 95.7257 131.872H97.2097C97.023 132.525 96.6497 133.071 96.0897 133.51C95.539 133.949 94.853 134.168 94.0317 134.168ZM94.0317 128.106C93.537 128.106 93.0984 128.255 92.7157 128.554C92.333 128.843 92.0997 129.282 92.0157 129.87H95.9357C95.9077 129.329 95.7164 128.899 95.3617 128.582C95.007 128.265 94.5637 128.106 94.0317 128.106ZM101.731 134.168C100.854 134.168 100.131 133.953 99.5615 133.524C98.9922 133.095 98.6655 132.525 98.5815 131.816H100.079C100.154 132.133 100.331 132.409 100.611 132.642C100.891 132.866 101.26 132.978 101.717 132.978C102.165 132.978 102.492 132.885 102.697 132.698C102.903 132.511 103.005 132.297 103.005 132.054C103.005 131.699 102.861 131.461 102.571 131.34C102.291 131.209 101.899 131.093 101.395 130.99C101.003 130.906 100.611 130.794 100.219 130.654C99.8368 130.514 99.5148 130.318 99.2535 130.066C99.0015 129.805 98.8755 129.455 98.8755 129.016C98.8755 128.409 99.1088 127.905 99.5755 127.504C100.042 127.093 100.695 126.888 101.535 126.888C102.31 126.888 102.935 127.075 103.411 127.448C103.897 127.821 104.181 128.349 104.265 129.03H102.837C102.791 128.731 102.651 128.498 102.417 128.33C102.193 128.162 101.89 128.078 101.507 128.078C101.134 128.078 100.845 128.157 100.639 128.316C100.434 128.465 100.331 128.661 100.331 128.904C100.331 129.147 100.471 129.338 100.751 129.478C101.041 129.618 101.419 129.744 101.885 129.856C102.352 129.959 102.781 130.08 103.173 130.22C103.575 130.351 103.897 130.547 104.139 130.808C104.382 131.069 104.503 131.452 104.503 131.956C104.513 132.591 104.265 133.118 103.761 133.538C103.267 133.958 102.59 134.168 101.731 134.168ZM109.651 137.08V127.056H110.981L111.135 128.134C111.359 127.807 111.667 127.518 112.059 127.266C112.451 127.014 112.955 126.888 113.571 126.888C114.243 126.888 114.836 127.047 115.349 127.364C115.862 127.681 116.264 128.115 116.553 128.666C116.852 129.217 117.001 129.842 117.001 130.542C117.001 131.242 116.852 131.867 116.553 132.418C116.264 132.959 115.862 133.389 115.349 133.706C114.836 134.014 114.238 134.168 113.557 134.168C113.016 134.168 112.535 134.061 112.115 133.846C111.704 133.631 111.378 133.328 111.135 132.936V137.08H109.651ZM113.305 132.88C113.94 132.88 114.462 132.665 114.873 132.236C115.284 131.797 115.489 131.228 115.489 130.528C115.489 130.071 115.396 129.665 115.209 129.31C115.022 128.955 114.766 128.68 114.439 128.484C114.112 128.279 113.734 128.176 113.305 128.176C112.67 128.176 112.148 128.395 111.737 128.834C111.336 129.273 111.135 129.837 111.135 130.528C111.135 131.228 111.336 131.797 111.737 132.236C112.148 132.665 112.67 132.88 113.305 132.88ZM118.606 134V127.056H119.936L120.062 128.372C120.305 127.915 120.641 127.555 121.07 127.294C121.509 127.023 122.036 126.888 122.652 126.888V128.442H122.246C121.835 128.442 121.467 128.512 121.14 128.652C120.823 128.783 120.566 129.011 120.37 129.338C120.183 129.655 120.09 130.099 120.09 130.668V134H118.606ZM126.981 134.168C126.3 134.168 125.693 134.019 125.161 133.72C124.638 133.412 124.228 132.987 123.929 132.446C123.63 131.905 123.481 131.275 123.481 130.556C123.481 129.828 123.626 129.189 123.915 128.638C124.214 128.087 124.624 127.658 125.147 127.35C125.679 127.042 126.295 126.888 126.995 126.888C127.676 126.888 128.269 127.042 128.773 127.35C129.277 127.649 129.669 128.05 129.949 128.554C130.229 129.058 130.369 129.613 130.369 130.22C130.369 130.313 130.364 130.416 130.355 130.528C130.355 130.631 130.35 130.747 130.341 130.878H124.937C124.984 131.55 125.203 132.063 125.595 132.418C125.996 132.763 126.458 132.936 126.981 132.936C127.401 132.936 127.751 132.843 128.031 132.656C128.32 132.46 128.535 132.199 128.675 131.872H130.159C129.972 132.525 129.599 133.071 129.039 133.51C128.488 133.949 127.802 134.168 126.981 134.168ZM126.981 128.106C126.486 128.106 126.048 128.255 125.665 128.554C125.282 128.843 125.049 129.282 124.965 129.87H128.885C128.857 129.329 128.666 128.899 128.311 128.582C127.956 128.265 127.513 128.106 126.981 128.106ZM135.199 134.168C134.517 134.168 133.906 134.014 133.365 133.706C132.833 133.398 132.413 132.973 132.105 132.432C131.806 131.881 131.657 131.247 131.657 130.528C131.657 129.809 131.806 129.179 132.105 128.638C132.413 128.087 132.833 127.658 133.365 127.35C133.906 127.042 134.517 126.888 135.199 126.888C136.057 126.888 136.776 127.112 137.355 127.56C137.943 128.008 138.321 128.615 138.489 129.38H136.935C136.841 128.997 136.636 128.699 136.319 128.484C136.001 128.269 135.628 128.162 135.199 128.162C134.835 128.162 134.499 128.255 134.191 128.442C133.883 128.619 133.635 128.885 133.449 129.24C133.262 129.585 133.169 130.015 133.169 130.528C133.169 131.041 133.262 131.475 133.449 131.83C133.635 132.175 133.883 132.441 134.191 132.628C134.499 132.815 134.835 132.908 135.199 132.908C135.628 132.908 136.001 132.801 136.319 132.586C136.636 132.371 136.841 132.068 136.935 131.676H138.489C138.33 132.423 137.957 133.025 137.369 133.482C136.781 133.939 136.057 134.168 135.199 134.168ZM140.938 125.74C140.658 125.74 140.425 125.656 140.238 125.488C140.061 125.311 139.972 125.091 139.972 124.83C139.972 124.569 140.061 124.354 140.238 124.186C140.425 124.009 140.658 123.92 140.938 123.92C141.218 123.92 141.447 124.009 141.624 124.186C141.811 124.354 141.904 124.569 141.904 124.83C141.904 125.091 141.811 125.311 141.624 125.488C141.447 125.656 141.218 125.74 140.938 125.74ZM140.196 134V127.056H141.68V134H140.196ZM146.887 134.168C146.225 134.168 145.627 134.019 145.095 133.72C144.573 133.412 144.157 132.987 143.849 132.446C143.541 131.895 143.387 131.256 143.387 130.528C143.387 129.8 143.541 129.165 143.849 128.624C144.167 128.073 144.591 127.649 145.123 127.35C145.655 127.042 146.248 126.888 146.901 126.888C147.564 126.888 148.157 127.042 148.679 127.35C149.211 127.649 149.631 128.073 149.939 128.624C150.257 129.165 150.415 129.8 150.415 130.528C150.415 131.256 150.257 131.895 149.939 132.446C149.631 132.987 149.211 133.412 148.679 133.72C148.147 134.019 147.55 134.168 146.887 134.168ZM146.887 132.894C147.242 132.894 147.569 132.805 147.867 132.628C148.175 132.451 148.423 132.189 148.609 131.844C148.796 131.489 148.889 131.051 148.889 130.528C148.889 130.005 148.796 129.571 148.609 129.226C148.432 128.871 148.189 128.605 147.881 128.428C147.583 128.251 147.256 128.162 146.901 128.162C146.547 128.162 146.215 128.251 145.907 128.428C145.609 128.605 145.366 128.871 145.179 129.226C144.993 129.571 144.899 130.005 144.899 130.528C144.899 131.051 144.993 131.489 145.179 131.844C145.366 132.189 145.609 132.451 145.907 132.628C146.206 132.805 146.533 132.894 146.887 132.894ZM154.792 134.168C153.915 134.168 153.191 133.953 152.622 133.524C152.053 133.095 151.726 132.525 151.642 131.816H153.14C153.215 132.133 153.392 132.409 153.672 132.642C153.952 132.866 154.321 132.978 154.778 132.978C155.226 132.978 155.553 132.885 155.758 132.698C155.963 132.511 156.066 132.297 156.066 132.054C156.066 131.699 155.921 131.461 155.632 131.34C155.352 131.209 154.96 131.093 154.456 130.99C154.064 130.906 153.672 130.794 153.28 130.654C152.897 130.514 152.575 130.318 152.314 130.066C152.062 129.805 151.936 129.455 151.936 129.016C151.936 128.409 152.169 127.905 152.636 127.504C153.103 127.093 153.756 126.888 154.596 126.888C155.371 126.888 155.996 127.075 156.472 127.448C156.957 127.821 157.242 128.349 157.326 129.03H155.898C155.851 128.731 155.711 128.498 155.478 128.33C155.254 128.162 154.951 128.078 154.568 128.078C154.195 128.078 153.905 128.157 153.7 128.316C153.495 128.465 153.392 128.661 153.392 128.904C153.392 129.147 153.532 129.338 153.812 129.478C154.101 129.618 154.479 129.744 154.946 129.856C155.413 129.959 155.842 130.08 156.234 130.22C156.635 130.351 156.957 130.547 157.2 130.808C157.443 131.069 157.564 131.452 157.564 131.956C157.573 132.591 157.326 133.118 156.822 133.538C156.327 133.958 155.651 134.168 154.792 134.168ZM163.523 137.08L165.189 133.426H164.783L162.039 127.056H163.649L165.777 132.194L168.003 127.056H169.571L165.091 137.08H163.523ZM177.231 134C176.55 134 176.008 133.837 175.607 133.51C175.206 133.174 175.005 132.581 175.005 131.732V128.302H173.815V127.056H175.005L175.187 125.292H176.489V127.056H178.449V128.302H176.489V131.732C176.489 132.115 176.568 132.381 176.727 132.53C176.895 132.67 177.18 132.74 177.581 132.74H178.379V134H177.231ZM183.049 134.168C182.368 134.168 181.761 134.019 181.229 133.72C180.707 133.412 180.296 132.987 179.997 132.446C179.699 131.905 179.549 131.275 179.549 130.556C179.549 129.828 179.694 129.189 179.983 128.638C180.282 128.087 180.693 127.658 181.215 127.35C181.747 127.042 182.363 126.888 183.063 126.888C183.745 126.888 184.337 127.042 184.841 127.35C185.345 127.649 185.737 128.05 186.017 128.554C186.297 129.058 186.437 129.613 186.437 130.22C186.437 130.313 186.433 130.416 186.423 130.528C186.423 130.631 186.419 130.747 186.409 130.878H181.005C181.052 131.55 181.271 132.063 181.663 132.418C182.065 132.763 182.527 132.936 183.049 132.936C183.469 132.936 183.819 132.843 184.099 132.656C184.389 132.46 184.603 132.199 184.743 131.872H186.227C186.041 132.525 185.667 133.071 185.107 133.51C184.557 133.949 183.871 134.168 183.049 134.168ZM183.049 128.106C182.555 128.106 182.116 128.255 181.733 128.554C181.351 128.843 181.117 129.282 181.033 129.87H184.953C184.925 129.329 184.734 128.899 184.379 128.582C184.025 128.265 183.581 128.106 183.049 128.106ZM187.977 134V127.056H189.293L189.405 128.274C189.62 127.845 189.932 127.509 190.343 127.266C190.763 127.014 191.244 126.888 191.785 126.888C192.625 126.888 193.283 127.149 193.759 127.672C194.244 128.195 194.487 128.974 194.487 130.01V134H193.017V130.164C193.017 128.82 192.466 128.148 191.365 128.148C190.814 128.148 190.357 128.344 189.993 128.736C189.638 129.128 189.461 129.688 189.461 130.416V134H187.977ZM199.399 134.168C198.727 134.168 198.134 134.009 197.621 133.692C197.108 133.375 196.706 132.941 196.417 132.39C196.128 131.839 195.983 131.214 195.983 130.514C195.983 129.814 196.128 129.193 196.417 128.652C196.706 128.101 197.108 127.672 197.621 127.364C198.144 127.047 198.741 126.888 199.413 126.888C199.964 126.888 200.444 126.995 200.855 127.21C201.275 127.425 201.602 127.728 201.835 128.12V123.92H203.319V134H201.989L201.835 132.922C201.611 133.249 201.303 133.538 200.911 133.79C200.519 134.042 200.015 134.168 199.399 134.168ZM199.665 132.88C200.3 132.88 200.818 132.661 201.219 132.222C201.63 131.783 201.835 131.219 201.835 130.528C201.835 129.828 201.63 129.263 201.219 128.834C200.818 128.395 200.3 128.176 199.665 128.176C199.03 128.176 198.508 128.395 198.097 128.834C197.686 129.263 197.481 129.828 197.481 130.528C197.481 130.985 197.574 131.391 197.761 131.746C197.948 132.101 198.204 132.381 198.531 132.586C198.867 132.782 199.245 132.88 199.665 132.88ZM208.438 134.168C207.757 134.168 207.15 134.019 206.618 133.72C206.095 133.412 205.685 132.987 205.386 132.446C205.087 131.905 204.938 131.275 204.938 130.556C204.938 129.828 205.083 129.189 205.372 128.638C205.671 128.087 206.081 127.658 206.604 127.35C207.136 127.042 207.752 126.888 208.452 126.888C209.133 126.888 209.726 127.042 210.23 127.35C210.734 127.649 211.126 128.05 211.406 128.554C211.686 129.058 211.826 129.613 211.826 130.22C211.826 130.313 211.821 130.416 211.812 130.528C211.812 130.631 211.807 130.747 211.798 130.878H206.394C206.441 131.55 206.66 132.063 207.052 132.418C207.453 132.763 207.915 132.936 208.438 132.936C208.858 132.936 209.208 132.843 209.488 132.656C209.777 132.46 209.992 132.199 210.132 131.872H211.616C211.429 132.525 211.056 133.071 210.496 133.51C209.945 133.949 209.259 134.168 208.438 134.168ZM208.438 128.106C207.943 128.106 207.505 128.255 207.122 128.554C206.739 128.843 206.506 129.282 206.422 129.87H210.342C210.314 129.329 210.123 128.899 209.768 128.582C209.413 128.265 208.97 128.106 208.438 128.106ZM213.366 134V127.056H214.682L214.794 128.274C215.008 127.845 215.321 127.509 215.732 127.266C216.152 127.014 216.632 126.888 217.174 126.888C218.014 126.888 218.672 127.149 219.148 127.672C219.633 128.195 219.876 128.974 219.876 130.01V134H218.406V130.164C218.406 128.82 217.855 128.148 216.754 128.148C216.203 128.148 215.746 128.344 215.382 128.736C215.027 129.128 214.85 129.688 214.85 130.416V134H213.366ZM224.914 134.168C224.232 134.168 223.621 134.014 223.08 133.706C222.548 133.398 222.128 132.973 221.82 132.432C221.521 131.881 221.372 131.247 221.372 130.528C221.372 129.809 221.521 129.179 221.82 128.638C222.128 128.087 222.548 127.658 223.08 127.35C223.621 127.042 224.232 126.888 224.914 126.888C225.772 126.888 226.491 127.112 227.07 127.56C227.658 128.008 228.036 128.615 228.204 129.38H226.65C226.556 128.997 226.351 128.699 226.034 128.484C225.716 128.269 225.343 128.162 224.914 128.162C224.55 128.162 224.214 128.255 223.906 128.442C223.598 128.619 223.35 128.885 223.164 129.24C222.977 129.585 222.884 130.015 222.884 130.528C222.884 131.041 222.977 131.475 223.164 131.83C223.35 132.175 223.598 132.441 223.906 132.628C224.214 132.815 224.55 132.908 224.914 132.908C225.343 132.908 225.716 132.801 226.034 132.586C226.351 132.371 226.556 132.068 226.65 131.676H228.204C228.045 132.423 227.672 133.025 227.084 133.482C226.496 133.939 225.772 134.168 224.914 134.168ZM230.653 125.74C230.373 125.74 230.14 125.656 229.953 125.488C229.776 125.311 229.687 125.091 229.687 124.83C229.687 124.569 229.776 124.354 229.953 124.186C230.14 124.009 230.373 123.92 230.653 123.92C230.933 123.92 231.162 124.009 231.339 124.186C231.526 124.354 231.619 124.569 231.619 124.83C231.619 125.091 231.526 125.311 231.339 125.488C231.162 125.656 230.933 125.74 230.653 125.74ZM229.911 134V127.056H231.395V134H229.911ZM235.706 134.168C235.118 134.168 234.633 134.07 234.25 133.874C233.867 133.678 233.583 133.421 233.396 133.104C233.209 132.777 233.116 132.423 233.116 132.04C233.116 131.368 233.377 130.836 233.9 130.444C234.423 130.052 235.169 129.856 236.14 129.856H237.96V129.73C237.96 129.189 237.811 128.783 237.512 128.512C237.223 128.241 236.845 128.106 236.378 128.106C235.967 128.106 235.608 128.209 235.3 128.414C235.001 128.61 234.819 128.904 234.754 129.296H233.27C233.317 128.792 233.485 128.363 233.774 128.008C234.073 127.644 234.446 127.369 234.894 127.182C235.351 126.986 235.851 126.888 236.392 126.888C237.363 126.888 238.114 127.145 238.646 127.658C239.178 128.162 239.444 128.853 239.444 129.73V134H238.156L238.03 132.81C237.834 133.193 237.549 133.515 237.176 133.776C236.803 134.037 236.313 134.168 235.706 134.168ZM236 132.964C236.401 132.964 236.737 132.871 237.008 132.684C237.288 132.488 237.503 132.231 237.652 131.914C237.811 131.597 237.909 131.247 237.946 130.864H236.294C235.706 130.864 235.286 130.967 235.034 131.172C234.791 131.377 234.67 131.634 234.67 131.942C234.67 132.259 234.787 132.511 235.02 132.698C235.263 132.875 235.589 132.964 236 132.964ZM243.946 134.168C243.069 134.168 242.346 133.953 241.776 133.524C241.207 133.095 240.88 132.525 240.796 131.816H242.294C242.369 132.133 242.546 132.409 242.826 132.642C243.106 132.866 243.475 132.978 243.932 132.978C244.38 132.978 244.707 132.885 244.912 132.698C245.118 132.511 245.22 132.297 245.22 132.054C245.22 131.699 245.076 131.461 244.786 131.34C244.506 131.209 244.114 131.093 243.61 130.99C243.218 130.906 242.826 130.794 242.434 130.654C242.052 130.514 241.73 130.318 241.468 130.066C241.216 129.805 241.09 129.455 241.09 129.016C241.09 128.409 241.324 127.905 241.79 127.504C242.257 127.093 242.91 126.888 243.75 126.888C244.525 126.888 245.15 127.075 245.626 127.448C246.112 127.821 246.396 128.349 246.48 129.03H245.052C245.006 128.731 244.866 128.498 244.632 128.33C244.408 128.162 244.105 128.078 243.722 128.078C243.349 128.078 243.06 128.157 242.854 128.316C242.649 128.465 242.546 128.661 242.546 128.904C242.546 129.147 242.686 129.338 242.966 129.478C243.256 129.618 243.634 129.744 244.1 129.856C244.567 129.959 244.996 130.08 245.388 130.22C245.79 130.351 246.112 130.547 246.354 130.808C246.597 131.069 246.718 131.452 246.718 131.956C246.728 132.591 246.48 133.118 245.976 133.538C245.482 133.958 244.805 134.168 243.946 134.168ZM248.926 134.084C248.646 134.084 248.413 133.995 248.226 133.818C248.049 133.631 247.96 133.412 247.96 133.16C247.96 132.899 248.049 132.679 248.226 132.502C248.413 132.315 248.646 132.222 248.926 132.222C249.206 132.222 249.435 132.315 249.612 132.502C249.79 132.679 249.878 132.899 249.878 133.16C249.878 133.412 249.79 133.631 249.612 133.818C249.435 133.995 249.206 134.084 248.926 134.084Z" fill="#FFE9D5"/>
<g filter="url(#filter0_d)">
<rect x="29.5" y="170" width="229" height="48" rx="4" fill="#FAF8F7"/>
<path d="M50.9007 199.168C49.9114 199.168 49.0621 198.958 48.3527 198.538C47.6434 198.109 47.0974 197.516 46.7147 196.76C46.3321 195.995 46.1407 195.113 46.1407 194.114C46.1407 193.115 46.3321 192.233 46.7147 191.468C47.0974 190.703 47.6434 190.105 48.3527 189.676C49.0621 189.247 49.9114 189.032 50.9007 189.032C52.0767 189.032 53.0381 189.326 53.7847 189.914C54.5407 190.493 55.0121 191.309 55.1987 192.364H53.2247C53.1034 191.832 52.8421 191.417 52.4407 191.118C52.0487 190.81 51.5261 190.656 50.8727 190.656C49.9674 190.656 49.2581 190.964 48.7447 191.58C48.2314 192.196 47.9747 193.041 47.9747 194.114C47.9747 195.187 48.2314 196.032 48.7447 196.648C49.2581 197.255 49.9674 197.558 50.8727 197.558C51.5261 197.558 52.0487 197.418 52.4407 197.138C52.8421 196.849 53.1034 196.452 53.2247 195.948H55.1987C55.0121 196.956 54.5407 197.745 53.7847 198.314C53.0381 198.883 52.0767 199.168 50.9007 199.168ZM60.075 199.168C59.403 199.168 58.7963 199.014 58.255 198.706C57.723 198.398 57.2983 197.973 56.981 197.432C56.673 196.881 56.519 196.247 56.519 195.528C56.519 194.809 56.6777 194.179 56.995 193.638C57.3123 193.087 57.737 192.658 58.269 192.35C58.8103 192.042 59.417 191.888 60.089 191.888C60.7517 191.888 61.349 192.042 61.881 192.35C62.4223 192.658 62.847 193.087 63.155 193.638C63.4723 194.179 63.631 194.809 63.631 195.528C63.631 196.247 63.4723 196.881 63.155 197.432C62.847 197.973 62.4223 198.398 61.881 198.706C61.3397 199.014 60.7377 199.168 60.075 199.168ZM60.075 197.614C60.5417 197.614 60.9477 197.441 61.293 197.096C61.6383 196.741 61.811 196.219 61.811 195.528C61.811 194.837 61.6383 194.319 61.293 193.974C60.9477 193.619 60.5463 193.442 60.089 193.442C59.613 193.442 59.2023 193.619 58.857 193.974C58.521 194.319 58.353 194.837 58.353 195.528C58.353 196.219 58.521 196.741 58.857 197.096C59.2023 197.441 59.6083 197.614 60.075 197.614ZM65.2332 199V192.056H66.8152L66.9552 193.232C67.1699 192.821 67.4779 192.495 67.8792 192.252C68.2899 192.009 68.7706 191.888 69.3212 191.888C70.1799 191.888 70.8472 192.159 71.3232 192.7C71.7992 193.241 72.0372 194.035 72.0372 195.08V199H70.2452V195.248C70.2452 194.651 70.1239 194.193 69.8812 193.876C69.6386 193.559 69.2606 193.4 68.7472 193.4C68.2432 193.4 67.8279 193.577 67.5012 193.932C67.1839 194.287 67.0252 194.781 67.0252 195.416V199H65.2332ZM77.0828 199.168C76.4108 199.168 75.8042 199.014 75.2628 198.706C74.7308 198.398 74.3062 197.973 73.9888 197.432C73.6808 196.881 73.5268 196.247 73.5268 195.528C73.5268 194.809 73.6855 194.179 74.0028 193.638C74.3202 193.087 74.7448 192.658 75.2768 192.35C75.8182 192.042 76.4248 191.888 77.0968 191.888C77.7595 191.888 78.3568 192.042 78.8888 192.35C79.4302 192.658 79.8548 193.087 80.1628 193.638C80.4802 194.179 80.6388 194.809 80.6388 195.528C80.6388 196.247 80.4802 196.881 80.1628 197.432C79.8548 197.973 79.4302 198.398 78.8888 198.706C78.3475 199.014 77.7455 199.168 77.0828 199.168ZM77.0828 197.614C77.5495 197.614 77.9555 197.441 78.3008 197.096C78.6462 196.741 78.8188 196.219 78.8188 195.528C78.8188 194.837 78.6462 194.319 78.3008 193.974C77.9555 193.619 77.5542 193.442 77.0968 193.442C76.6208 193.442 76.2102 193.619 75.8648 193.974C75.5288 194.319 75.3608 194.837 75.3608 195.528C75.3608 196.219 75.5288 196.741 75.8648 197.096C76.2102 197.441 76.6162 197.614 77.0828 197.614ZM85.6431 199.168C84.9337 199.168 84.3084 199.014 83.7671 198.706C83.2257 198.398 82.7964 197.969 82.4791 197.418C82.1711 196.867 82.0171 196.237 82.0171 195.528C82.0171 194.819 82.1711 194.189 82.4791 193.638C82.7964 193.087 83.2257 192.658 83.7671 192.35C84.3084 192.042 84.9337 191.888 85.6431 191.888C86.5297 191.888 87.2764 192.121 87.8831 192.588C88.4897 193.045 88.8771 193.68 89.0451 194.492H87.1551C87.0617 194.156 86.8751 193.895 86.5951 193.708C86.3244 193.512 86.0024 193.414 85.6291 193.414C85.1344 193.414 84.7144 193.601 84.3691 193.974C84.0237 194.347 83.8511 194.865 83.8511 195.528C83.8511 196.191 84.0237 196.709 84.3691 197.082C84.7144 197.455 85.1344 197.642 85.6291 197.642C86.0024 197.642 86.3244 197.549 86.5951 197.362C86.8751 197.175 87.0617 196.909 87.1551 196.564H89.0451C88.8771 197.348 88.4897 197.978 87.8831 198.454C87.2764 198.93 86.5297 199.168 85.6431 199.168ZM94.0096 199.168C93.3096 199.168 92.6889 199.019 92.1476 198.72C91.6063 198.421 91.1816 198.001 90.8736 197.46C90.5656 196.919 90.4116 196.293 90.4116 195.584C90.4116 194.865 90.5609 194.226 90.8596 193.666C91.1676 193.106 91.5876 192.672 92.1196 192.364C92.6609 192.047 93.2956 191.888 94.0236 191.888C94.7049 191.888 95.3069 192.037 95.8296 192.336C96.3523 192.635 96.7583 193.045 97.0476 193.568C97.3463 194.081 97.4956 194.655 97.4956 195.29C97.4956 195.393 97.4909 195.5 97.4816 195.612C97.4816 195.724 97.4769 195.841 97.4676 195.962H92.1896C92.2269 196.503 92.4136 196.928 92.7496 197.236C93.0949 197.544 93.5103 197.698 93.9956 197.698C94.3596 197.698 94.6629 197.619 94.9056 197.46C95.1576 197.292 95.3443 197.077 95.4656 196.816H97.2856C97.1549 197.255 96.9356 197.656 96.6276 198.02C96.3289 198.375 95.9556 198.655 95.5076 198.86C95.0689 199.065 94.5696 199.168 94.0096 199.168ZM94.0236 193.344C93.5849 193.344 93.1976 193.47 92.8616 193.722C92.5256 193.965 92.3109 194.338 92.2176 194.842H95.6756C95.6476 194.385 95.4796 194.021 95.1716 193.75C94.8636 193.479 94.4809 193.344 94.0236 193.344ZM102.381 199V189.2H104.173L108.779 196.102V189.2H110.571V199H108.779L104.173 192.112V199H102.381ZM119.121 192.056V199H117.539L117.399 197.824C117.184 198.235 116.871 198.561 116.461 198.804C116.059 199.047 115.583 199.168 115.033 199.168C114.174 199.168 113.507 198.897 113.031 198.356C112.555 197.815 112.317 197.021 112.317 195.976V192.056H114.109V195.808C114.109 196.405 114.23 196.863 114.473 197.18C114.715 197.497 115.093 197.656 115.607 197.656C116.111 197.656 116.521 197.479 116.839 197.124C117.165 196.769 117.329 196.275 117.329 195.64V192.056H119.121ZM124.32 199.168C123.62 199.168 122.999 199.019 122.458 198.72C121.917 198.421 121.492 198.001 121.184 197.46C120.876 196.919 120.722 196.293 120.722 195.584C120.722 194.865 120.871 194.226 121.17 193.666C121.478 193.106 121.898 192.672 122.43 192.364C122.971 192.047 123.606 191.888 124.334 191.888C125.015 191.888 125.617 192.037 126.14 192.336C126.663 192.635 127.069 193.045 127.358 193.568C127.657 194.081 127.806 194.655 127.806 195.29C127.806 195.393 127.801 195.5 127.792 195.612C127.792 195.724 127.787 195.841 127.778 195.962H122.5C122.537 196.503 122.724 196.928 123.06 197.236C123.405 197.544 123.821 197.698 124.306 197.698C124.67 197.698 124.973 197.619 125.216 197.46C125.468 197.292 125.655 197.077 125.776 196.816H127.596C127.465 197.255 127.246 197.656 126.938 198.02C126.639 198.375 126.266 198.655 125.818 198.86C125.379 199.065 124.88 199.168 124.32 199.168ZM124.334 193.344C123.895 193.344 123.508 193.47 123.172 193.722C122.836 193.965 122.621 194.338 122.528 194.842H125.986C125.958 194.385 125.79 194.021 125.482 193.75C125.174 193.479 124.791 193.344 124.334 193.344ZM132.183 199.168C131.567 199.168 131.026 199.07 130.559 198.874C130.093 198.669 129.719 198.389 129.439 198.034C129.159 197.679 128.991 197.269 128.935 196.802H130.741C130.797 197.073 130.947 197.306 131.189 197.502C131.441 197.689 131.763 197.782 132.155 197.782C132.547 197.782 132.832 197.703 133.009 197.544C133.196 197.385 133.289 197.203 133.289 196.998C133.289 196.699 133.159 196.499 132.897 196.396C132.636 196.284 132.272 196.177 131.805 196.074C131.507 196.009 131.203 195.929 130.895 195.836C130.587 195.743 130.303 195.626 130.041 195.486C129.789 195.337 129.584 195.15 129.425 194.926C129.267 194.693 129.187 194.408 129.187 194.072C129.187 193.456 129.43 192.938 129.915 192.518C130.41 192.098 131.101 191.888 131.987 191.888C132.809 191.888 133.462 192.079 133.947 192.462C134.442 192.845 134.736 193.372 134.829 194.044H133.135C133.033 193.531 132.645 193.274 131.973 193.274C131.637 193.274 131.376 193.339 131.189 193.47C131.012 193.601 130.923 193.764 130.923 193.96C130.923 194.165 131.059 194.329 131.329 194.45C131.6 194.571 131.959 194.683 132.407 194.786C132.893 194.898 133.336 195.024 133.737 195.164C134.148 195.295 134.475 195.495 134.717 195.766C134.96 196.027 135.081 196.405 135.081 196.9C135.091 197.329 134.979 197.717 134.745 198.062C134.512 198.407 134.176 198.678 133.737 198.874C133.299 199.07 132.781 199.168 132.183 199.168ZM139.544 199C138.816 199 138.233 198.823 137.794 198.468C137.355 198.113 137.136 197.483 137.136 196.578V193.554H135.946V192.056H137.136L137.346 190.194H138.928V192.056H140.804V193.554H138.928V196.592C138.928 196.928 138.998 197.161 139.138 197.292C139.287 197.413 139.539 197.474 139.894 197.474H140.762V199H139.544ZM142.343 199V192.056H143.939L144.107 193.358C144.359 192.91 144.699 192.555 145.129 192.294C145.567 192.023 146.081 191.888 146.669 191.888V193.778H146.165C145.773 193.778 145.423 193.839 145.115 193.96C144.807 194.081 144.564 194.291 144.387 194.59C144.219 194.889 144.135 195.304 144.135 195.836V199H142.343ZM151.102 199.168C150.43 199.168 149.824 199.014 149.282 198.706C148.75 198.398 148.326 197.973 148.008 197.432C147.7 196.881 147.546 196.247 147.546 195.528C147.546 194.809 147.705 194.179 148.022 193.638C148.34 193.087 148.764 192.658 149.296 192.35C149.838 192.042 150.444 191.888 151.116 191.888C151.779 191.888 152.376 192.042 152.908 192.35C153.45 192.658 153.874 193.087 154.182 193.638C154.5 194.179 154.658 194.809 154.658 195.528C154.658 196.247 154.5 196.881 154.182 197.432C153.874 197.973 153.45 198.398 152.908 198.706C152.367 199.014 151.765 199.168 151.102 199.168ZM151.102 197.614C151.569 197.614 151.975 197.441 152.32 197.096C152.666 196.741 152.838 196.219 152.838 195.528C152.838 194.837 152.666 194.319 152.32 193.974C151.975 193.619 151.574 193.442 151.116 193.442C150.64 193.442 150.23 193.619 149.884 193.974C149.548 194.319 149.38 194.837 149.38 195.528C149.38 196.219 149.548 196.741 149.884 197.096C150.23 197.441 150.636 197.614 151.102 197.614ZM159.131 199.168C158.515 199.168 157.973 199.07 157.507 198.874C157.04 198.669 156.667 198.389 156.387 198.034C156.107 197.679 155.939 197.269 155.883 196.802H157.689C157.745 197.073 157.894 197.306 158.137 197.502C158.389 197.689 158.711 197.782 159.103 197.782C159.495 197.782 159.779 197.703 159.957 197.544C160.143 197.385 160.237 197.203 160.237 196.998C160.237 196.699 160.106 196.499 159.845 196.396C159.583 196.284 159.219 196.177 158.753 196.074C158.454 196.009 158.151 195.929 157.843 195.836C157.535 195.743 157.25 195.626 156.989 195.486C156.737 195.337 156.531 195.15 156.373 194.926C156.214 194.693 156.135 194.408 156.135 194.072C156.135 193.456 156.377 192.938 156.863 192.518C157.357 192.098 158.048 191.888 158.935 191.888C159.756 191.888 160.409 192.079 160.895 192.462C161.389 192.845 161.683 193.372 161.777 194.044H160.083C159.98 193.531 159.593 193.274 158.921 193.274C158.585 193.274 158.323 193.339 158.137 193.47C157.959 193.601 157.871 193.764 157.871 193.96C157.871 194.165 158.006 194.329 158.277 194.45C158.547 194.571 158.907 194.683 159.355 194.786C159.84 194.898 160.283 195.024 160.685 195.164C161.095 195.295 161.422 195.495 161.665 195.766C161.907 196.027 162.029 196.405 162.029 196.9C162.038 197.329 161.926 197.717 161.693 198.062C161.459 198.407 161.123 198.678 160.685 198.874C160.246 199.07 159.728 199.168 159.131 199.168ZM166.994 199V189.2H170.62C171.404 189.2 172.053 189.331 172.566 189.592C173.079 189.853 173.462 190.213 173.714 190.67C173.966 191.127 174.092 191.641 174.092 192.21C174.092 192.751 173.971 193.251 173.728 193.708C173.485 194.156 173.107 194.52 172.594 194.8C172.081 195.071 171.423 195.206 170.62 195.206H168.786V199H166.994ZM168.786 193.75H170.508C171.133 193.75 171.581 193.615 171.852 193.344C172.132 193.064 172.272 192.686 172.272 192.21C172.272 191.725 172.132 191.347 171.852 191.076C171.581 190.796 171.133 190.656 170.508 190.656H168.786V193.75ZM175.456 199V188.92H177.248V199H175.456ZM181.473 199.168C180.876 199.168 180.386 199.075 180.003 198.888C179.62 198.692 179.336 198.435 179.149 198.118C178.962 197.801 178.869 197.451 178.869 197.068C178.869 196.424 179.121 195.901 179.625 195.5C180.129 195.099 180.885 194.898 181.893 194.898H183.657V194.73C183.657 194.254 183.522 193.904 183.251 193.68C182.98 193.456 182.644 193.344 182.243 193.344C181.879 193.344 181.562 193.433 181.291 193.61C181.02 193.778 180.852 194.03 180.787 194.366H179.037C179.084 193.862 179.252 193.423 179.541 193.05C179.84 192.677 180.222 192.392 180.689 192.196C181.156 191.991 181.678 191.888 182.257 191.888C183.246 191.888 184.026 192.135 184.595 192.63C185.164 193.125 185.449 193.825 185.449 194.73V199H183.923L183.755 197.88C183.55 198.253 183.26 198.561 182.887 198.804C182.523 199.047 182.052 199.168 181.473 199.168ZM181.879 197.768C182.392 197.768 182.789 197.6 183.069 197.264C183.358 196.928 183.54 196.513 183.615 196.018H182.089C181.613 196.018 181.272 196.107 181.067 196.284C180.862 196.452 180.759 196.662 180.759 196.914C180.759 197.185 180.862 197.395 181.067 197.544C181.272 197.693 181.543 197.768 181.879 197.768ZM187.159 199V192.056H188.741L188.881 193.232C189.096 192.821 189.404 192.495 189.805 192.252C190.216 192.009 190.696 191.888 191.247 191.888C192.106 191.888 192.773 192.159 193.249 192.7C193.725 193.241 193.963 194.035 193.963 195.08V199H192.171V195.248C192.171 194.651 192.05 194.193 191.807 193.876C191.564 193.559 191.186 193.4 190.673 193.4C190.169 193.4 189.754 193.577 189.427 193.932C189.11 194.287 188.951 194.781 188.951 195.416V199H187.159ZM199.051 199.168C198.351 199.168 197.73 199.019 197.189 198.72C196.647 198.421 196.223 198.001 195.915 197.46C195.607 196.919 195.453 196.293 195.453 195.584C195.453 194.865 195.602 194.226 195.901 193.666C196.209 193.106 196.629 192.672 197.161 192.364C197.702 192.047 198.337 191.888 199.065 191.888C199.746 191.888 200.348 192.037 200.871 192.336C201.393 192.635 201.799 193.045 202.089 193.568C202.387 194.081 202.537 194.655 202.537 195.29C202.537 195.393 202.532 195.5 202.523 195.612C202.523 195.724 202.518 195.841 202.509 195.962H197.231C197.268 196.503 197.455 196.928 197.791 197.236C198.136 197.544 198.551 197.698 199.037 197.698C199.401 197.698 199.704 197.619 199.947 197.46C200.199 197.292 200.385 197.077 200.507 196.816H202.327C202.196 197.255 201.977 197.656 201.669 198.02C201.37 198.375 200.997 198.655 200.549 198.86C200.11 199.065 199.611 199.168 199.051 199.168ZM199.065 193.344C198.626 193.344 198.239 193.47 197.903 193.722C197.567 193.965 197.352 194.338 197.259 194.842H200.717C200.689 194.385 200.521 194.021 200.213 193.75C199.905 193.479 199.522 193.344 199.065 193.344ZM206.914 199.168C206.298 199.168 205.756 199.07 205.29 198.874C204.823 198.669 204.45 198.389 204.17 198.034C203.89 197.679 203.722 197.269 203.666 196.802H205.472C205.528 197.073 205.677 197.306 205.92 197.502C206.172 197.689 206.494 197.782 206.886 197.782C207.278 197.782 207.562 197.703 207.74 197.544C207.926 197.385 208.02 197.203 208.02 196.998C208.02 196.699 207.889 196.499 207.628 196.396C207.366 196.284 207.002 196.177 206.536 196.074C206.237 196.009 205.934 195.929 205.626 195.836C205.318 195.743 205.033 195.626 204.772 195.486C204.52 195.337 204.314 195.15 204.156 194.926C203.997 194.693 203.918 194.408 203.918 194.072C203.918 193.456 204.16 192.938 204.646 192.518C205.14 192.098 205.831 191.888 206.718 191.888C207.539 191.888 208.192 192.079 208.678 192.462C209.172 192.845 209.466 193.372 209.56 194.044H207.866C207.763 193.531 207.376 193.274 206.704 193.274C206.368 193.274 206.106 193.339 205.92 193.47C205.742 193.601 205.654 193.764 205.654 193.96C205.654 194.165 205.789 194.329 206.06 194.45C206.33 194.571 206.69 194.683 207.138 194.786C207.623 194.898 208.066 195.024 208.468 195.164C208.878 195.295 209.205 195.495 209.448 195.766C209.69 196.027 209.812 196.405 209.812 196.9C209.821 197.329 209.709 197.717 209.476 198.062C209.242 198.407 208.906 198.678 208.468 198.874C208.029 199.07 207.511 199.168 206.914 199.168Z" fill="#201E1C"/>
<path d="M225.91 190.59L230.5 195.17L235.09 190.59L236.5 192L230.5 198L224.5 192L225.91 190.59Z" fill="#201E1C"/>
</g>
<defs>
<filter id="filter0_d" x="21.5" y="166" width="245" height="64" filterUnits="userSpaceOnUse" color-interpolation-filters="sRGB">
<feFlood flood-opacity="0" result="BackgroundImageFix"/>
<feColorMatrix in="SourceAlpha" type="matrix" values="0 0 0 0 0 0 0 0 0 0 0 0 0 0 0 0 0 0 127 0"/>
<feOffset dy="4"/>
<feGaussianBlur stdDeviation="4"/>
<feColorMatrix type="matrix" values="0 0 0 0 0.35 0 0 0 0 0.285075 0 0 0 0 0.118125 0 0 0 0.16 0"/>
<feBlend mode="normal" in2="BackgroundImageFix" result="effect1_dropShadow"/>
<feBlend mode="normal" in="SourceGraphic" in2="effect1_dropShadow" result="shape"/>
</filter>
</defs>
</svg>
