<svg width="288" height="112" viewBox="0 0 288 112" fill="none" xmlns="http://www.w3.org/2000/svg">
<path d="M1.69059 21V4.2H12.6586V6.672H4.76259V11.28H11.9386V13.68H4.76259V18.528H12.6586V21H1.69059ZM20.4136 21.288C19.3576 21.288 18.4296 21.12 17.6296 20.784C16.8296 20.432 16.1896 19.952 15.7096 19.344C15.2296 18.736 14.9416 18.032 14.8456 17.232H17.9416C18.0376 17.696 18.2936 18.096 18.7096 18.432C19.1416 18.752 19.6936 18.912 20.3656 18.912C21.0376 18.912 21.5256 18.776 21.8296 18.504C22.1496 18.232 22.3096 17.92 22.3096 17.568C22.3096 17.056 22.0856 16.712 21.6376 16.536C21.1896 16.344 20.5656 16.16 19.7656 15.984C19.2536 15.872 18.7336 15.736 18.2056 15.576C17.6776 15.416 17.1896 15.216 16.7416 14.976C16.3096 14.72 15.9576 14.4 15.6856 14.016C15.4136 13.616 15.2776 13.128 15.2776 12.552C15.2776 11.496 15.6936 10.608 16.5256 9.888C17.3736 9.168 18.5576 8.808 20.0776 8.808C21.4856 8.808 22.6056 9.136 23.4376 9.792C24.2856 10.448 24.7896 11.352 24.9496 12.504H22.0456C21.8696 11.624 21.2056 11.184 20.0536 11.184C19.4776 11.184 19.0296 11.296 18.7096 11.52C18.4056 11.744 18.2536 12.024 18.2536 12.36C18.2536 12.712 18.4856 12.992 18.9496 13.2C19.4136 13.408 20.0296 13.6 20.7976 13.776C21.6296 13.968 22.3896 14.184 23.0776 14.424C23.7816 14.648 24.3416 14.992 24.7576 15.456C25.1736 15.904 25.3816 16.552 25.3816 17.4C25.3976 18.136 25.2056 18.8 24.8056 19.392C24.4056 19.984 23.8296 20.448 23.0776 20.784C22.3256 21.12 21.4376 21.288 20.4136 21.288ZM33.935 21.288C32.719 21.288 31.647 21.024 30.719 20.496C29.791 19.968 29.055 19.232 28.511 18.288C27.983 17.344 27.719 16.264 27.719 15.048C27.719 13.832 27.983 12.752 28.511 11.808C29.055 10.864 29.791 10.128 30.719 9.6C31.647 9.072 32.719 8.808 33.935 8.808C35.455 8.808 36.735 9.208 37.775 10.008C38.815 10.792 39.479 11.88 39.767 13.272H36.527C36.367 12.696 36.047 12.248 35.567 11.928C35.103 11.592 34.551 11.424 33.911 11.424C33.063 11.424 32.343 11.744 31.751 12.384C31.159 13.024 30.863 13.912 30.863 15.048C30.863 16.184 31.159 17.072 31.751 17.712C32.343 18.352 33.063 18.672 33.911 18.672C34.551 18.672 35.103 18.512 35.567 18.192C36.047 17.872 36.367 17.416 36.527 16.824H39.767C39.479 18.168 38.815 19.248 37.775 20.064C36.735 20.88 35.455 21.288 33.935 21.288ZM48.2056 21.288C47.0536 21.288 46.0136 21.024 45.0856 20.496C44.1736 19.968 43.4456 19.24 42.9016 18.312C42.3736 17.368 42.1096 16.28 42.1096 15.048C42.1096 13.816 42.3816 12.736 42.9256 11.808C43.4696 10.864 44.1976 10.128 45.1096 9.6C46.0376 9.072 47.0776 8.808 48.2296 8.808C49.3656 8.808 50.3896 9.072 51.3016 9.6C52.2296 10.128 52.9576 10.864 53.4856 11.808C54.0296 12.736 54.3016 13.816 54.3016 15.048C54.3016 16.28 54.0296 17.368 53.4856 18.312C52.9576 19.24 52.2296 19.968 51.3016 20.496C50.3736 21.024 49.3416 21.288 48.2056 21.288ZM48.2056 18.624C49.0056 18.624 49.7016 18.328 50.2936 17.736C50.8856 17.128 51.1816 16.232 51.1816 15.048C51.1816 13.864 50.8856 12.976 50.2936 12.384C49.7016 11.776 49.0136 11.472 48.2296 11.472C47.4136 11.472 46.7096 11.776 46.1176 12.384C45.5416 12.976 45.2536 13.864 45.2536 15.048C45.2536 16.232 45.5416 17.128 46.1176 17.736C46.7096 18.328 47.4056 18.624 48.2056 18.624ZM61.3383 17.448C60.7623 17.448 60.2263 17.384 59.7303 17.256L58.8423 18.144C59.1143 18.288 59.4823 18.408 59.9463 18.504C60.4103 18.6 61.1623 18.696 62.2023 18.792C63.7863 18.936 64.9383 19.312 65.6583 19.92C66.3783 20.528 66.7383 21.368 66.7383 22.44C66.7383 23.144 66.5463 23.808 66.1623 24.432C65.7783 25.072 65.1863 25.584 64.3863 25.968C63.5863 26.368 62.5623 26.568 61.3143 26.568C59.6183 26.568 58.2503 26.248 57.2103 25.608C56.1703 24.984 55.6503 24.04 55.6503 22.776C55.6503 21.704 56.1703 20.776 57.2103 19.992C56.8903 19.848 56.6103 19.696 56.3703 19.536C56.1463 19.376 55.9463 19.208 55.7703 19.032V18.48L57.8583 16.272C56.9303 15.456 56.4663 14.408 56.4663 13.128C56.4663 12.328 56.6583 11.6 57.0423 10.944C57.4423 10.288 58.0023 9.768 58.7223 9.384C59.4423 9 60.3143 8.808 61.3383 8.808C62.0103 8.808 62.6343 8.904 63.2103 9.096H67.7223V10.968L65.6823 11.112C66.0023 11.72 66.1623 12.392 66.1623 13.128C66.1623 13.928 65.9703 14.656 65.5863 15.312C65.2023 15.968 64.6423 16.488 63.9063 16.872C63.1863 17.256 62.3303 17.448 61.3383 17.448ZM61.3383 15.096C61.9623 15.096 62.4743 14.928 62.8743 14.592C63.2903 14.256 63.4983 13.776 63.4983 13.152C63.4983 12.528 63.2903 12.048 62.8743 11.712C62.4743 11.376 61.9623 11.208 61.3383 11.208C60.6823 11.208 60.1543 11.376 59.7543 11.712C59.3543 12.048 59.1543 12.528 59.1543 13.152C59.1543 13.776 59.3543 14.256 59.7543 14.592C60.1543 14.928 60.6823 15.096 61.3383 15.096ZM58.4583 22.464C58.4583 23.056 58.7303 23.496 59.2743 23.784C59.8343 24.088 60.5143 24.24 61.3143 24.24C62.0823 24.24 62.7063 24.08 63.1863 23.76C63.6663 23.456 63.9063 23.04 63.9063 22.512C63.9063 22.08 63.7463 21.72 63.4263 21.432C63.1223 21.144 62.5063 20.968 61.5783 20.904C60.9223 20.856 60.3143 20.784 59.7543 20.688C59.2903 20.944 58.9543 21.224 58.7463 21.528C58.5543 21.832 58.4583 22.144 58.4583 22.464ZM75.2776 21.288C74.0776 21.288 73.0136 21.032 72.0856 20.52C71.1576 20.008 70.4296 19.288 69.9016 18.36C69.3736 17.432 69.1096 16.36 69.1096 15.144C69.1096 13.912 69.3656 12.816 69.8776 11.856C70.4056 10.896 71.1256 10.152 72.0376 9.624C72.9656 9.08 74.0536 8.808 75.3016 8.808C76.4696 8.808 77.5016 9.064 78.3976 9.576C79.2936 10.088 79.9896 10.792 80.4856 11.688C80.9976 12.568 81.2536 13.552 81.2536 14.64C81.2536 14.816 81.2456 15 81.2296 15.192C81.2296 15.384 81.2216 15.584 81.2056 15.792H72.1576C72.2216 16.72 72.5416 17.448 73.1176 17.976C73.7096 18.504 74.4216 18.768 75.2536 18.768C75.8776 18.768 76.3976 18.632 76.8136 18.36C77.2456 18.072 77.5656 17.704 77.7736 17.256H80.8936C80.6696 18.008 80.2936 18.696 79.7656 19.32C79.2536 19.928 78.6136 20.408 77.8456 20.76C77.0936 21.112 76.2376 21.288 75.2776 21.288ZM75.3016 11.304C74.5496 11.304 73.8856 11.52 73.3096 11.952C72.7336 12.368 72.3656 13.008 72.2056 13.872H78.1336C78.0856 13.088 77.7976 12.464 77.2696 12C76.7416 11.536 76.0856 11.304 75.3016 11.304ZM95.3401 21.288C94.1401 21.288 93.0761 21.032 92.1481 20.52C91.2201 20.008 90.4921 19.288 89.9641 18.36C89.4361 17.432 89.1721 16.36 89.1721 15.144C89.1721 13.912 89.4281 12.816 89.9401 11.856C90.4681 10.896 91.1881 10.152 92.1001 9.624C93.0281 9.08 94.1161 8.808 95.3641 8.808C96.5321 8.808 97.5641 9.064 98.4601 9.576C99.3561 10.088 100.052 10.792 100.548 11.688C101.06 12.568 101.316 13.552 101.316 14.64C101.316 14.816 101.308 15 101.292 15.192C101.292 15.384 101.284 15.584 101.268 15.792H92.2201C92.2841 16.72 92.6041 17.448 93.1801 17.976C93.7721 18.504 94.4841 18.768 95.3161 18.768C95.9401 18.768 96.4601 18.632 96.8761 18.36C97.3081 18.072 97.6281 17.704 97.8361 17.256H100.956C100.732 18.008 100.356 18.696 99.8281 19.32C99.3161 19.928 98.6761 20.408 97.9081 20.76C97.1561 21.112 96.3001 21.288 95.3401 21.288ZM95.3641 11.304C94.6121 11.304 93.9481 11.52 93.3721 11.952C92.7961 12.368 92.4281 13.008 92.2681 13.872H98.1961C98.1481 13.088 97.8601 12.464 97.3321 12C96.8041 11.536 96.1481 11.304 95.3641 11.304ZM103.9 21V3.72H106.972V21H103.9ZM115.83 26.28V9.096H118.566L118.902 10.8C119.286 10.272 119.79 9.808 120.414 9.408C121.054 9.008 121.878 8.808 122.886 8.808C124.006 8.808 125.006 9.08 125.886 9.624C126.766 10.168 127.462 10.912 127.974 11.856C128.486 12.8 128.742 13.872 128.742 15.072C128.742 16.272 128.486 17.344 127.974 18.288C127.462 19.216 126.766 19.952 125.886 20.496C125.006 21.024 124.006 21.288 122.886 21.288C121.99 21.288 121.206 21.12 120.534 20.784C119.862 20.448 119.318 19.976 118.902 19.368V26.28H115.83ZM122.238 18.6C123.214 18.6 124.022 18.272 124.662 17.616C125.302 16.96 125.622 16.112 125.622 15.072C125.622 14.032 125.302 13.176 124.662 12.504C124.022 11.832 123.214 11.496 122.238 11.496C121.246 11.496 120.43 11.832 119.79 12.504C119.166 13.16 118.854 14.008 118.854 15.048C118.854 16.088 119.166 16.944 119.79 17.616C120.43 18.272 121.246 18.6 122.238 18.6ZM131.486 21V3.72H134.558V21H131.486ZM141.801 21.288C140.777 21.288 139.937 21.128 139.281 20.808C138.625 20.472 138.137 20.032 137.817 19.488C137.497 18.944 137.337 18.344 137.337 17.688C137.337 16.584 137.769 15.688 138.633 15C139.497 14.312 140.793 13.968 142.521 13.968H145.545V13.68C145.545 12.864 145.313 12.264 144.849 11.88C144.385 11.496 143.809 11.304 143.121 11.304C142.497 11.304 141.953 11.456 141.489 11.76C141.025 12.048 140.737 12.48 140.625 13.056H137.625C137.705 12.192 137.993 11.44 138.489 10.8C139.001 10.16 139.657 9.672 140.457 9.336C141.257 8.984 142.153 8.808 143.145 8.808C144.841 8.808 146.177 9.232 147.153 10.08C148.129 10.928 148.617 12.128 148.617 13.68V21H146.001L145.713 19.08C145.361 19.72 144.865 20.248 144.225 20.664C143.601 21.08 142.793 21.288 141.801 21.288ZM142.497 18.888C143.377 18.888 144.057 18.6 144.537 18.024C145.033 17.448 145.345 16.736 145.473 15.888H142.857C142.041 15.888 141.457 16.04 141.105 16.344C140.753 16.632 140.577 16.992 140.577 17.424C140.577 17.888 140.753 18.248 141.105 18.504C141.457 18.76 141.921 18.888 142.497 18.888ZM151.548 21V9.096H154.26L154.5 11.112C154.868 10.408 155.396 9.848 156.084 9.432C156.788 9.016 157.612 8.808 158.556 8.808C160.028 8.808 161.172 9.272 161.988 10.2C162.804 11.128 163.212 12.488 163.212 14.28V21H160.14V14.568C160.14 13.544 159.932 12.76 159.516 12.216C159.1 11.672 158.452 11.4 157.572 11.4C156.708 11.4 155.996 11.704 155.436 12.312C154.892 12.92 154.62 13.768 154.62 14.856V21H151.548ZM181.325 26.28V19.296C180.941 19.824 180.429 20.288 179.789 20.688C179.165 21.088 178.349 21.288 177.341 21.288C176.221 21.288 175.221 21.016 174.341 20.472C173.461 19.928 172.765 19.184 172.253 18.24C171.741 17.296 171.485 16.224 171.485 15.024C171.485 13.824 171.741 12.76 172.253 11.832C172.765 10.888 173.461 10.152 174.341 9.624C175.221 9.08 176.221 8.808 177.341 8.808C178.237 8.808 179.021 8.976 179.693 9.312C180.365 9.648 180.909 10.12 181.325 10.728L181.661 9.096H184.397V26.28H181.325ZM177.989 18.6C178.981 18.6 179.789 18.272 180.413 17.616C181.053 16.944 181.373 16.088 181.373 15.048C181.373 14.008 181.053 13.16 180.413 12.504C179.789 11.832 178.981 11.496 177.989 11.496C177.013 11.496 176.205 11.824 175.565 12.48C174.925 13.136 174.605 13.984 174.605 15.024C174.605 16.064 174.925 16.92 175.565 17.592C176.205 18.264 177.013 18.6 177.989 18.6ZM198.997 9.096V21H196.285L196.045 18.984C195.677 19.688 195.141 20.248 194.437 20.664C193.749 21.08 192.933 21.288 191.989 21.288C190.517 21.288 189.373 20.824 188.557 19.896C187.741 18.968 187.333 17.608 187.333 15.816V9.096H190.405V15.528C190.405 16.552 190.613 17.336 191.029 17.88C191.445 18.424 192.093 18.696 192.973 18.696C193.837 18.696 194.541 18.392 195.085 17.784C195.645 17.176 195.925 16.328 195.925 15.24V9.096H198.997ZM207.91 21.288C206.71 21.288 205.646 21.032 204.718 20.52C203.79 20.008 203.062 19.288 202.534 18.36C202.006 17.432 201.742 16.36 201.742 15.144C201.742 13.912 201.998 12.816 202.51 11.856C203.038 10.896 203.758 10.152 204.67 9.624C205.598 9.08 206.686 8.808 207.934 8.808C209.102 8.808 210.134 9.064 211.03 9.576C211.926 10.088 212.622 10.792 213.118 11.688C213.63 12.568 213.886 13.552 213.886 14.64C213.886 14.816 213.878 15 213.862 15.192C213.862 15.384 213.854 15.584 213.838 15.792H204.79C204.854 16.72 205.174 17.448 205.75 17.976C206.342 18.504 207.054 18.768 207.886 18.768C208.51 18.768 209.03 18.632 209.446 18.36C209.878 18.072 210.198 17.704 210.406 17.256H213.526C213.302 18.008 212.926 18.696 212.398 19.32C211.886 19.928 211.246 20.408 210.478 20.76C209.726 21.112 208.87 21.288 207.91 21.288ZM207.934 11.304C207.182 11.304 206.518 11.52 205.942 11.952C205.366 12.368 204.998 13.008 204.838 13.872H210.766C210.718 13.088 210.43 12.464 209.902 12C209.374 11.536 208.718 11.304 207.934 11.304ZM222.189 21V9.096H224.901L225.165 10.704C225.549 10.128 226.053 9.672 226.677 9.336C227.317 8.984 228.053 8.808 228.885 8.808C230.725 8.808 232.029 9.52 232.797 10.944C233.229 10.288 233.805 9.768 234.525 9.384C235.261 9 236.061 8.808 236.925 8.808C238.477 8.808 239.669 9.272 240.501 10.2C241.333 11.128 241.749 12.488 241.749 14.28V21H238.677V14.568C238.677 13.544 238.477 12.76 238.077 12.216C237.693 11.672 237.093 11.4 236.277 11.4C235.445 11.4 234.773 11.704 234.261 12.312C233.765 12.92 233.517 13.768 233.517 14.856V21H230.445V14.568C230.445 13.544 230.245 12.76 229.845 12.216C229.445 11.672 228.829 11.4 227.997 11.4C227.181 11.4 226.517 11.704 226.005 12.312C225.509 12.92 225.261 13.768 225.261 14.856V21H222.189ZM250.449 21.288C249.249 21.288 248.185 21.032 247.257 20.52C246.329 20.008 245.601 19.288 245.073 18.36C244.545 17.432 244.281 16.36 244.281 15.144C244.281 13.912 244.537 12.816 245.049 11.856C245.577 10.896 246.297 10.152 247.209 9.624C248.137 9.08 249.225 8.808 250.473 8.808C251.641 8.808 252.673 9.064 253.569 9.576C254.465 10.088 255.161 10.792 255.657 11.688C256.169 12.568 256.425 13.552 256.425 14.64C256.425 14.816 256.417 15 256.401 15.192C256.401 15.384 256.393 15.584 256.377 15.792H247.329C247.393 16.72 247.713 17.448 248.289 17.976C248.881 18.504 249.593 18.768 250.425 18.768C251.049 18.768 251.569 18.632 251.985 18.36C252.417 18.072 252.737 17.704 252.945 17.256H256.065C255.841 18.008 255.465 18.696 254.937 19.32C254.425 19.928 253.785 20.408 253.017 20.76C252.265 21.112 251.409 21.288 250.449 21.288ZM250.473 11.304C249.721 11.304 249.057 11.52 248.481 11.952C247.905 12.368 247.537 13.008 247.377 13.872H253.305C253.257 13.088 252.969 12.464 252.441 12C251.913 11.536 251.257 11.304 250.473 11.304ZM260.713 7.248C260.153 7.248 259.689 7.08 259.321 6.744C258.969 6.408 258.793 5.984 258.793 5.472C258.793 4.96 258.969 4.544 259.321 4.224C259.689 3.888 260.153 3.72 260.713 3.72C261.273 3.72 261.729 3.888 262.081 4.224C262.449 4.544 262.633 4.96 262.633 5.472C262.633 5.984 262.449 6.408 262.081 6.744C261.729 7.08 261.273 7.248 260.713 7.248ZM256.753 26.28V23.664H257.689C258.217 23.664 258.593 23.56 258.817 23.352C259.041 23.144 259.153 22.792 259.153 22.296V9.096H262.225V22.296C262.225 23.736 261.857 24.76 261.121 25.368C260.401 25.976 259.417 26.28 258.169 26.28H256.753ZM271.143 21.288C269.991 21.288 268.951 21.024 268.023 20.496C267.111 19.968 266.383 19.24 265.839 18.312C265.311 17.368 265.047 16.28 265.047 15.048C265.047 13.816 265.319 12.736 265.863 11.808C266.407 10.864 267.135 10.128 268.047 9.6C268.975 9.072 270.015 8.808 271.167 8.808C272.303 8.808 273.327 9.072 274.239 9.6C275.167 10.128 275.895 10.864 276.423 11.808C276.967 12.736 277.239 13.816 277.239 15.048C277.239 16.28 276.967 17.368 276.423 18.312C275.895 19.24 275.167 19.968 274.239 20.496C273.311 21.024 272.279 21.288 271.143 21.288ZM271.143 18.624C271.943 18.624 272.639 18.328 273.231 17.736C273.823 17.128 274.119 16.232 274.119 15.048C274.119 13.864 273.823 12.976 273.231 12.384C272.639 11.776 271.951 11.472 271.167 11.472C270.351 11.472 269.647 11.776 269.055 12.384C268.479 12.976 268.191 13.864 268.191 15.048C268.191 16.232 268.479 17.128 269.055 17.736C269.647 18.328 270.343 18.624 271.143 18.624ZM279.986 21V9.096H282.722L283.01 11.328C283.442 10.56 284.026 9.952 284.762 9.504C285.514 9.04 286.394 8.808 287.402 8.808V12.048H286.538C285.866 12.048 285.266 12.152 284.738 12.36C284.21 12.568 283.794 12.928 283.49 13.44C283.202 13.952 283.058 14.664 283.058 15.576V21H279.986ZM74.7417 47.288C73.6857 47.288 72.7577 47.12 71.9577 46.784C71.1577 46.432 70.5177 45.952 70.0377 45.344C69.5577 44.736 69.2697 44.032 69.1737 43.232H72.2697C72.3657 43.696 72.6217 44.096 73.0377 44.432C73.4697 44.752 74.0217 44.912 74.6937 44.912C75.3657 44.912 75.8537 44.776 76.1577 44.504C76.4777 44.232 76.6377 43.92 76.6377 43.568C76.6377 43.056 76.4137 42.712 75.9657 42.536C75.5177 42.344 74.8937 42.16 74.0937 41.984C73.5817 41.872 73.0617 41.736 72.5337 41.576C72.0057 41.416 71.5177 41.216 71.0697 40.976C70.6377 40.72 70.2857 40.4 70.0137 40.016C69.7417 39.616 69.6057 39.128 69.6057 38.552C69.6057 37.496 70.0217 36.608 70.8537 35.888C71.7017 35.168 72.8857 34.808 74.4057 34.808C75.8137 34.808 76.9337 35.136 77.7657 35.792C78.6137 36.448 79.1177 37.352 79.2777 38.504H76.3737C76.1977 37.624 75.5337 37.184 74.3817 37.184C73.8057 37.184 73.3577 37.296 73.0377 37.52C72.7337 37.744 72.5817 38.024 72.5817 38.36C72.5817 38.712 72.8137 38.992 73.2777 39.2C73.7417 39.408 74.3577 39.6 75.1257 39.776C75.9577 39.968 76.7177 40.184 77.4057 40.424C78.1097 40.648 78.6697 40.992 79.0857 41.456C79.5017 41.904 79.7097 42.552 79.7097 43.4C79.7257 44.136 79.5337 44.8 79.1337 45.392C78.7337 45.984 78.1577 46.448 77.4057 46.784C76.6537 47.12 75.7657 47.288 74.7417 47.288ZM88.2151 47.288C87.0151 47.288 85.9511 47.032 85.0231 46.52C84.0951 46.008 83.3671 45.288 82.8391 44.36C82.3111 43.432 82.0471 42.36 82.0471 41.144C82.0471 39.912 82.3031 38.816 82.8151 37.856C83.3431 36.896 84.0631 36.152 84.9751 35.624C85.9031 35.08 86.9911 34.808 88.2391 34.808C89.4071 34.808 90.4391 35.064 91.3351 35.576C92.2311 36.088 92.9271 36.792 93.4231 37.688C93.9351 38.568 94.1911 39.552 94.1911 40.64C94.1911 40.816 94.1831 41 94.1671 41.192C94.1671 41.384 94.1591 41.584 94.1431 41.792H85.0951C85.1591 42.72 85.4791 43.448 86.0551 43.976C86.6471 44.504 87.3591 44.768 88.1911 44.768C88.8151 44.768 89.3351 44.632 89.7511 44.36C90.1831 44.072 90.5031 43.704 90.7111 43.256H93.8311C93.6071 44.008 93.2311 44.696 92.7031 45.32C92.1911 45.928 91.5511 46.408 90.7831 46.76C90.0311 47.112 89.1751 47.288 88.2151 47.288ZM88.2391 37.304C87.4871 37.304 86.8231 37.52 86.2471 37.952C85.6711 38.368 85.3031 39.008 85.1431 39.872H91.0711C91.0231 39.088 90.7351 38.464 90.2071 38C89.6791 37.536 89.0231 37.304 88.2391 37.304ZM106.598 47.288C105.574 47.288 104.734 47.128 104.078 46.808C103.422 46.472 102.934 46.032 102.614 45.488C102.294 44.944 102.134 44.344 102.134 43.688C102.134 42.584 102.566 41.688 103.43 41C104.294 40.312 105.59 39.968 107.318 39.968H110.342V39.68C110.342 38.864 110.11 38.264 109.646 37.88C109.182 37.496 108.606 37.304 107.918 37.304C107.294 37.304 106.75 37.456 106.286 37.76C105.822 38.048 105.534 38.48 105.422 39.056H102.422C102.502 38.192 102.79 37.44 103.286 36.8C103.798 36.16 104.454 35.672 105.254 35.336C106.054 34.984 106.95 34.808 107.942 34.808C109.638 34.808 110.974 35.232 111.95 36.08C112.926 36.928 113.414 38.128 113.414 39.68V47H110.798L110.51 45.08C110.158 45.72 109.662 46.248 109.022 46.664C108.398 47.08 107.59 47.288 106.598 47.288ZM107.294 44.888C108.174 44.888 108.854 44.6 109.334 44.024C109.83 43.448 110.142 42.736 110.27 41.888H107.654C106.838 41.888 106.254 42.04 105.902 42.344C105.55 42.632 105.374 42.992 105.374 43.424C105.374 43.888 105.55 44.248 105.902 44.504C106.254 44.76 106.718 44.888 107.294 44.888ZM118.049 33.248C117.489 33.248 117.025 33.08 116.657 32.744C116.305 32.408 116.129 31.984 116.129 31.472C116.129 30.96 116.305 30.544 116.657 30.224C117.025 29.888 117.489 29.72 118.049 29.72C118.609 29.72 119.065 29.888 119.417 30.224C119.785 30.544 119.969 30.96 119.969 31.472C119.969 31.984 119.785 32.408 119.417 32.744C119.065 33.08 118.609 33.248 118.049 33.248ZM114.089 52.28V49.664H115.025C115.553 49.664 115.929 49.56 116.153 49.352C116.377 49.144 116.489 48.792 116.489 48.296V35.096H119.561V48.296C119.561 49.736 119.193 50.76 118.457 51.368C117.737 51.976 116.753 52.28 115.505 52.28H114.089ZM134.239 35.096V47H131.527L131.287 44.984C130.919 45.688 130.383 46.248 129.679 46.664C128.991 47.08 128.175 47.288 127.231 47.288C125.759 47.288 124.615 46.824 123.799 45.896C122.983 44.968 122.575 43.608 122.575 41.816V35.096H125.647V41.528C125.647 42.552 125.855 43.336 126.271 43.88C126.687 44.424 127.335 44.696 128.215 44.696C129.079 44.696 129.783 44.392 130.327 43.784C130.887 43.176 131.167 42.328 131.167 41.24V35.096H134.239ZM142.289 47.288C141.233 47.288 140.305 47.12 139.505 46.784C138.705 46.432 138.065 45.952 137.585 45.344C137.105 44.736 136.817 44.032 136.721 43.232H139.817C139.913 43.696 140.169 44.096 140.585 44.432C141.017 44.752 141.569 44.912 142.241 44.912C142.913 44.912 143.401 44.776 143.705 44.504C144.025 44.232 144.185 43.92 144.185 43.568C144.185 43.056 143.961 42.712 143.513 42.536C143.065 42.344 142.441 42.16 141.641 41.984C141.129 41.872 140.609 41.736 140.081 41.576C139.553 41.416 139.065 41.216 138.617 40.976C138.185 40.72 137.833 40.4 137.561 40.016C137.289 39.616 137.153 39.128 137.153 38.552C137.153 37.496 137.569 36.608 138.401 35.888C139.249 35.168 140.433 34.808 141.953 34.808C143.361 34.808 144.481 35.136 145.313 35.792C146.161 36.448 146.665 37.352 146.825 38.504H143.921C143.745 37.624 143.081 37.184 141.929 37.184C141.353 37.184 140.905 37.296 140.585 37.52C140.281 37.744 140.129 38.024 140.129 38.36C140.129 38.712 140.361 38.992 140.825 39.2C141.289 39.408 141.905 39.6 142.673 39.776C143.505 39.968 144.265 40.184 144.953 40.424C145.657 40.648 146.217 40.992 146.633 41.456C147.049 41.904 147.257 42.552 147.257 43.4C147.273 44.136 147.081 44.8 146.681 45.392C146.281 45.984 145.705 46.448 144.953 46.784C144.201 47.12 143.313 47.288 142.289 47.288ZM154.907 47C153.659 47 152.659 46.696 151.907 46.088C151.155 45.48 150.779 44.4 150.779 42.848V37.664H148.739V35.096H150.779L151.139 31.904H153.851V35.096H157.067V37.664H153.851V42.872C153.851 43.448 153.971 43.848 154.211 44.072C154.467 44.28 154.899 44.384 155.507 44.384H156.995V47H154.907ZM165.184 47.288C163.984 47.288 162.92 47.032 161.992 46.52C161.064 46.008 160.336 45.288 159.808 44.36C159.28 43.432 159.016 42.36 159.016 41.144C159.016 39.912 159.272 38.816 159.784 37.856C160.312 36.896 161.032 36.152 161.944 35.624C162.872 35.08 163.96 34.808 165.208 34.808C166.376 34.808 167.408 35.064 168.304 35.576C169.2 36.088 169.896 36.792 170.392 37.688C170.904 38.568 171.16 39.552 171.16 40.64C171.16 40.816 171.152 41 171.136 41.192C171.136 41.384 171.128 41.584 171.112 41.792H162.064C162.128 42.72 162.448 43.448 163.024 43.976C163.616 44.504 164.328 44.768 165.16 44.768C165.784 44.768 166.304 44.632 166.72 44.36C167.152 44.072 167.472 43.704 167.68 43.256H170.8C170.576 44.008 170.2 44.696 169.672 45.32C169.16 45.928 168.52 46.408 167.752 46.76C167 47.112 166.144 47.288 165.184 47.288ZM165.208 37.304C164.456 37.304 163.792 37.52 163.216 37.952C162.64 38.368 162.272 39.008 162.112 39.872H168.04C167.992 39.088 167.704 38.464 167.176 38C166.648 37.536 165.992 37.304 165.208 37.304ZM183.566 47.288C182.542 47.288 181.702 47.128 181.046 46.808C180.39 46.472 179.902 46.032 179.582 45.488C179.262 44.944 179.102 44.344 179.102 43.688C179.102 42.584 179.534 41.688 180.398 41C181.262 40.312 182.558 39.968 184.286 39.968H187.31V39.68C187.31 38.864 187.078 38.264 186.614 37.88C186.15 37.496 185.574 37.304 184.886 37.304C184.262 37.304 183.718 37.456 183.254 37.76C182.79 38.048 182.502 38.48 182.39 39.056H179.39C179.47 38.192 179.758 37.44 180.254 36.8C180.766 36.16 181.422 35.672 182.222 35.336C183.022 34.984 183.918 34.808 184.91 34.808C186.606 34.808 187.942 35.232 188.918 36.08C189.894 36.928 190.382 38.128 190.382 39.68V47H187.766L187.478 45.08C187.126 45.72 186.63 46.248 185.99 46.664C185.366 47.08 184.558 47.288 183.566 47.288ZM184.262 44.888C185.142 44.888 185.822 44.6 186.302 44.024C186.798 43.448 187.11 42.736 187.238 41.888H184.622C183.806 41.888 183.222 42.04 182.87 42.344C182.518 42.632 182.342 42.992 182.342 43.424C182.342 43.888 182.518 44.248 182.87 44.504C183.222 44.76 183.686 44.888 184.262 44.888ZM204.337 47C203.089 47 202.089 46.696 201.337 46.088C200.585 45.48 200.209 44.4 200.209 42.848V37.664H198.169V35.096H200.209L200.569 31.904H203.281V35.096H206.497V37.664H203.281V42.872C203.281 43.448 203.401 43.848 203.641 44.072C203.897 44.28 204.329 44.384 204.937 44.384H206.425V47H204.337ZM210.79 33.248C210.23 33.248 209.766 33.08 209.398 32.744C209.046 32.408 208.87 31.984 208.87 31.472C208.87 30.96 209.046 30.544 209.398 30.224C209.766 29.888 210.23 29.72 210.79 29.72C211.35 29.72 211.806 29.888 212.158 30.224C212.526 30.544 212.71 30.96 212.71 31.472C212.71 31.984 212.526 32.408 212.158 32.744C211.806 33.08 211.35 33.248 210.79 33.248ZM209.254 47V35.096H212.326V47H209.254ZM216.853 47.168C216.293 47.168 215.829 46.992 215.461 46.64C215.109 46.288 214.933 45.864 214.933 45.368C214.933 44.856 215.109 44.424 215.461 44.072C215.829 43.72 216.293 43.544 216.853 43.544C217.413 43.544 217.869 43.72 218.221 44.072C218.589 44.424 218.773 44.856 218.773 45.368C218.773 45.864 218.589 46.288 218.221 46.64C217.869 46.992 217.413 47.168 216.853 47.168Z" fill="#201E1C"/>
<path d="M17.7634 90.168C16.7927 90.168 15.9527 89.958 15.2434 89.538C14.5434 89.1087 14.002 88.516 13.6194 87.76C13.2367 86.9947 13.0454 86.1127 13.0454 85.114C13.0454 84.106 13.2367 83.224 13.6194 82.468C14.002 81.7027 14.5434 81.1053 15.2434 80.676C15.9527 80.2467 16.7927 80.032 17.7634 80.032C18.9114 80.032 19.8494 80.312 20.5774 80.872C21.3054 81.432 21.7674 82.216 21.9634 83.224H20.3114C20.1807 82.6547 19.9007 82.202 19.4714 81.866C19.042 81.53 18.468 81.362 17.7494 81.362C16.7694 81.362 15.9947 81.698 15.4254 82.37C14.856 83.0327 14.5714 83.9473 14.5714 85.114C14.5714 86.2713 14.856 87.1813 15.4254 87.844C15.9947 88.5067 16.7694 88.838 17.7494 88.838C18.468 88.838 19.042 88.6793 19.4714 88.362C19.9007 88.0447 20.1807 87.6107 20.3114 87.06H21.9634C21.7674 88.0307 21.3054 88.7913 20.5774 89.342C19.8494 89.8927 18.9114 90.168 17.7634 90.168ZM29.9226 83.056V90H28.6066L28.4946 88.782C28.2799 89.2113 27.9626 89.552 27.5426 89.804C27.1319 90.0467 26.6559 90.168 26.1146 90.168C25.2746 90.168 24.6119 89.9067 24.1266 89.384C23.6506 88.8613 23.4126 88.082 23.4126 87.046V83.056H24.8826V86.892C24.8826 88.236 25.4333 88.908 26.5346 88.908C27.0853 88.908 27.5379 88.712 27.8926 88.32C28.2566 87.928 28.4386 87.368 28.4386 86.64V83.056H29.9226ZM34.1484 90.168C33.5604 90.168 33.0751 90.07 32.6924 89.874C32.3097 89.678 32.0251 89.4213 31.8384 89.104C31.6517 88.7773 31.5584 88.4227 31.5584 88.04C31.5584 87.368 31.8197 86.836 32.3424 86.444C32.8651 86.052 33.6117 85.856 34.5824 85.856H36.4024V85.73C36.4024 85.1887 36.2531 84.7827 35.9544 84.512C35.6651 84.2413 35.2871 84.106 34.8204 84.106C34.4097 84.106 34.0504 84.2087 33.7424 84.414C33.4437 84.61 33.2617 84.904 33.1964 85.296H31.7124C31.7591 84.792 31.9271 84.3627 32.2164 84.008C32.5151 83.644 32.8884 83.3687 33.3364 83.182C33.7937 82.986 34.2931 82.888 34.8344 82.888C35.8051 82.888 36.5564 83.1447 37.0884 83.658C37.6204 84.162 37.8864 84.8527 37.8864 85.73V90H36.5984L36.4724 88.81C36.2764 89.1927 35.9917 89.5147 35.6184 89.776C35.2451 90.0373 34.7551 90.168 34.1484 90.168ZM34.4424 88.964C34.8437 88.964 35.1797 88.8707 35.4504 88.684C35.7304 88.488 35.9451 88.2313 36.0944 87.914C36.2531 87.5967 36.3511 87.2467 36.3884 86.864H34.7364C34.1484 86.864 33.7284 86.9667 33.4764 87.172C33.2337 87.3773 33.1124 87.634 33.1124 87.942C33.1124 88.2593 33.2291 88.5113 33.4624 88.698C33.7051 88.8753 34.0317 88.964 34.4424 88.964ZM39.6167 90V79.92H41.1007V90H39.6167ZM48.58 93.08V88.922C48.356 89.2487 48.048 89.538 47.656 89.79C47.264 90.042 46.76 90.168 46.144 90.168C45.472 90.168 44.8793 90.0093 44.366 89.692C43.8527 89.3747 43.4513 88.9407 43.162 88.39C42.8727 87.8393 42.728 87.214 42.728 86.514C42.728 85.814 42.8727 85.1933 43.162 84.652C43.4513 84.1013 43.8527 83.672 44.366 83.364C44.8887 83.0467 45.486 82.888 46.158 82.888C46.7087 82.888 47.1893 82.9953 47.6 83.21C48.02 83.4247 48.3467 83.728 48.58 84.12L48.734 83.056H50.064V93.08H48.58ZM46.41 88.88C47.0447 88.88 47.5627 88.6607 47.964 88.222C48.3747 87.7833 48.58 87.2187 48.58 86.528C48.58 85.828 48.3747 85.2633 47.964 84.834C47.5627 84.3953 47.0447 84.176 46.41 84.176C45.7753 84.176 45.2527 84.3953 44.842 84.834C44.4313 85.2633 44.226 85.828 44.226 86.528C44.226 86.9853 44.3193 87.3913 44.506 87.746C44.6927 88.1007 44.9493 88.3807 45.276 88.586C45.612 88.782 45.99 88.88 46.41 88.88ZM58.3191 83.056V90H57.0031L56.8911 88.782C56.6764 89.2113 56.3591 89.552 55.9391 89.804C55.5284 90.0467 55.0524 90.168 54.5111 90.168C53.6711 90.168 53.0084 89.9067 52.5231 89.384C52.0471 88.8613 51.8091 88.082 51.8091 87.046V83.056H53.2791V86.892C53.2791 88.236 53.8297 88.908 54.9311 88.908C55.4817 88.908 55.9344 88.712 56.2891 88.32C56.6531 87.928 56.8351 87.368 56.8351 86.64V83.056H58.3191ZM61.0329 81.74C60.7529 81.74 60.5195 81.656 60.3329 81.488C60.1555 81.3107 60.0669 81.0913 60.0669 80.83C60.0669 80.5687 60.1555 80.354 60.3329 80.186C60.5195 80.0087 60.7529 79.92 61.0329 79.92C61.3129 79.92 61.5415 80.0087 61.7189 80.186C61.9055 80.354 61.9989 80.5687 61.9989 80.83C61.9989 81.0913 61.9055 81.3107 61.7189 81.488C61.5415 81.656 61.3129 81.74 61.0329 81.74ZM60.2909 90V83.056H61.7749V90H60.2909ZM66.9819 90.168C66.3006 90.168 65.6939 90.0187 65.1619 89.72C64.6392 89.412 64.2286 88.9873 63.9299 88.446C63.6312 87.9047 63.4819 87.2747 63.4819 86.556C63.4819 85.828 63.6266 85.1887 63.9159 84.638C64.2146 84.0873 64.6252 83.658 65.1479 83.35C65.6799 83.042 66.2959 82.888 66.9959 82.888C67.6772 82.888 68.2699 83.042 68.7739 83.35C69.2779 83.6487 69.6699 84.05 69.9499 84.554C70.2299 85.058 70.3699 85.6133 70.3699 86.22C70.3699 86.3133 70.3652 86.416 70.3559 86.528C70.3559 86.6307 70.3512 86.7473 70.3419 86.878H64.9379C64.9846 87.55 65.2039 88.0633 65.5959 88.418C65.9972 88.7633 66.4592 88.936 66.9819 88.936C67.4019 88.936 67.7519 88.8427 68.0319 88.656C68.3212 88.46 68.5359 88.1987 68.6759 87.872H70.1599C69.9732 88.5253 69.5999 89.0713 69.0399 89.51C68.4892 89.9487 67.8032 90.168 66.9819 90.168ZM66.9819 84.106C66.4872 84.106 66.0486 84.2553 65.6659 84.554C65.2832 84.8433 65.0499 85.282 64.9659 85.87H68.8859C68.8579 85.3287 68.6666 84.8993 68.3119 84.582C67.9572 84.2647 67.5139 84.106 66.9819 84.106ZM71.9097 90V83.056H73.2397L73.3657 84.372C73.6083 83.9147 73.9443 83.5553 74.3737 83.294C74.8123 83.0233 75.3397 82.888 75.9557 82.888V84.442H75.5497C75.139 84.442 74.7703 84.512 74.4437 84.652C74.1263 84.7827 73.8697 85.0113 73.6737 85.338C73.487 85.6553 73.3937 86.0987 73.3937 86.668V90H71.9097ZM80.7554 93.08V83.056H82.0854L82.2394 84.134C82.4634 83.8073 82.7714 83.518 83.1634 83.266C83.5554 83.014 84.0594 82.888 84.6754 82.888C85.3474 82.888 85.94 83.0467 86.4534 83.364C86.9667 83.6813 87.368 84.1153 87.6574 84.666C87.956 85.2167 88.1054 85.842 88.1054 86.542C88.1054 87.242 87.956 87.8673 87.6574 88.418C87.368 88.9593 86.9667 89.3887 86.4534 89.706C85.94 90.014 85.3427 90.168 84.6614 90.168C84.12 90.168 83.6394 90.0607 83.2194 89.846C82.8087 89.6313 82.482 89.328 82.2394 88.936V93.08H80.7554ZM84.4094 88.88C85.044 88.88 85.5667 88.6653 85.9774 88.236C86.388 87.7973 86.5934 87.228 86.5934 86.528C86.5934 86.0707 86.5 85.6647 86.3134 85.31C86.1267 84.9553 85.87 84.68 85.5434 84.484C85.2167 84.2787 84.8387 84.176 84.4094 84.176C83.7747 84.176 83.252 84.3953 82.8414 84.834C82.44 85.2727 82.2394 85.8373 82.2394 86.528C82.2394 87.228 82.44 87.7973 82.8414 88.236C83.252 88.6653 83.7747 88.88 84.4094 88.88ZM89.7105 90V79.92H91.1945V90H89.7105ZM95.4257 90.168C94.8377 90.168 94.3524 90.07 93.9697 89.874C93.5871 89.678 93.3024 89.4213 93.1157 89.104C92.9291 88.7773 92.8357 88.4227 92.8357 88.04C92.8357 87.368 93.0971 86.836 93.6197 86.444C94.1424 86.052 94.8891 85.856 95.8597 85.856H97.6797V85.73C97.6797 85.1887 97.5304 84.7827 97.2317 84.512C96.9424 84.2413 96.5644 84.106 96.0977 84.106C95.6871 84.106 95.3277 84.2087 95.0197 84.414C94.7211 84.61 94.5391 84.904 94.4737 85.296H92.9897C93.0364 84.792 93.2044 84.3627 93.4937 84.008C93.7924 83.644 94.1657 83.3687 94.6137 83.182C95.0711 82.986 95.5704 82.888 96.1117 82.888C97.0824 82.888 97.8337 83.1447 98.3657 83.658C98.8977 84.162 99.1637 84.8527 99.1637 85.73V90H97.8757L97.7497 88.81C97.5537 89.1927 97.2691 89.5147 96.8957 89.776C96.5224 90.0373 96.0324 90.168 95.4257 90.168ZM95.7197 88.964C96.1211 88.964 96.4571 88.8707 96.7277 88.684C97.0077 88.488 97.2224 88.2313 97.3717 87.914C97.5304 87.5967 97.6284 87.2467 97.6657 86.864H96.0137C95.4257 86.864 95.0057 86.9667 94.7537 87.172C94.5111 87.3773 94.3897 87.634 94.3897 87.942C94.3897 88.2593 94.5064 88.5113 94.7397 88.698C94.9824 88.8753 95.3091 88.964 95.7197 88.964ZM100.894 90V83.056H102.21L102.322 84.274C102.537 83.8447 102.849 83.5087 103.26 83.266C103.68 83.014 104.161 82.888 104.702 82.888C105.542 82.888 106.2 83.1493 106.676 83.672C107.161 84.1947 107.404 84.974 107.404 86.01V90H105.934V86.164C105.934 84.82 105.383 84.148 104.282 84.148C103.731 84.148 103.274 84.344 102.91 84.736C102.555 85.128 102.378 85.688 102.378 86.416V90H100.894ZM115.591 90C114.91 90 114.369 89.8367 113.967 89.51C113.566 89.174 113.365 88.5813 113.365 87.732V84.302H112.175V83.056H113.365L113.547 81.292H114.849V83.056H116.809V84.302H114.849V87.732C114.849 88.1147 114.929 88.3807 115.087 88.53C115.255 88.67 115.54 88.74 115.941 88.74H116.739V90H115.591ZM121.41 90.168C120.728 90.168 120.122 90.0187 119.59 89.72C119.067 89.412 118.656 88.9873 118.358 88.446C118.059 87.9047 117.91 87.2747 117.91 86.556C117.91 85.828 118.054 85.1887 118.344 84.638C118.642 84.0873 119.053 83.658 119.576 83.35C120.108 83.042 120.724 82.888 121.424 82.888C122.105 82.888 122.698 83.042 123.202 83.35C123.706 83.6487 124.098 84.05 124.378 84.554C124.658 85.058 124.798 85.6133 124.798 86.22C124.798 86.3133 124.793 86.416 124.784 86.528C124.784 86.6307 124.779 86.7473 124.77 86.878H119.366C119.412 87.55 119.632 88.0633 120.024 88.418C120.425 88.7633 120.887 88.936 121.41 88.936C121.83 88.936 122.18 88.8427 122.46 88.656C122.749 88.46 122.964 88.1987 123.104 87.872H124.588C124.401 88.5253 124.028 89.0713 123.468 89.51C122.917 89.9487 122.231 90.168 121.41 90.168ZM121.41 84.106C120.915 84.106 120.476 84.2553 120.094 84.554C119.711 84.8433 119.478 85.282 119.394 85.87H123.314C123.286 85.3287 123.094 84.8993 122.74 84.582C122.385 84.2647 121.942 84.106 121.41 84.106ZM133.029 90.168C132.357 90.168 131.764 90.0093 131.251 89.692C130.737 89.3747 130.336 88.9407 130.047 88.39C129.757 87.8393 129.613 87.214 129.613 86.514C129.613 85.814 129.757 85.1933 130.047 84.652C130.336 84.1013 130.737 83.672 131.251 83.364C131.773 83.0467 132.371 82.888 133.043 82.888C133.593 82.888 134.074 82.9953 134.485 83.21C134.905 83.4247 135.231 83.728 135.465 84.12V79.92H136.949V90H135.619L135.465 88.922C135.241 89.2487 134.933 89.538 134.541 89.79C134.149 90.042 133.645 90.168 133.029 90.168ZM133.295 88.88C133.929 88.88 134.447 88.6607 134.849 88.222C135.259 87.7833 135.465 87.2187 135.465 86.528C135.465 85.828 135.259 85.2633 134.849 84.834C134.447 84.3953 133.929 84.176 133.295 84.176C132.66 84.176 132.137 84.3953 131.727 84.834C131.316 85.2633 131.111 85.828 131.111 86.528C131.111 86.9853 131.204 87.3913 131.391 87.746C131.577 88.1007 131.834 88.3807 132.161 88.586C132.497 88.782 132.875 88.88 133.295 88.88ZM141.172 90.168C140.584 90.168 140.099 90.07 139.716 89.874C139.333 89.678 139.049 89.4213 138.862 89.104C138.675 88.7773 138.582 88.4227 138.582 88.04C138.582 87.368 138.843 86.836 139.366 86.444C139.889 86.052 140.635 85.856 141.606 85.856H143.426V85.73C143.426 85.1887 143.277 84.7827 142.978 84.512C142.689 84.2413 142.311 84.106 141.844 84.106C141.433 84.106 141.074 84.2087 140.766 84.414C140.467 84.61 140.285 84.904 140.22 85.296H138.736C138.783 84.792 138.951 84.3627 139.24 84.008C139.539 83.644 139.912 83.3687 140.36 83.182C140.817 82.986 141.317 82.888 141.858 82.888C142.829 82.888 143.58 83.1447 144.112 83.658C144.644 84.162 144.91 84.8527 144.91 85.73V90H143.622L143.496 88.81C143.3 89.1927 143.015 89.5147 142.642 89.776C142.269 90.0373 141.779 90.168 141.172 90.168ZM141.466 88.964C141.867 88.964 142.203 88.8707 142.474 88.684C142.754 88.488 142.969 88.2313 143.118 87.914C143.277 87.5967 143.375 87.2467 143.412 86.864H141.76C141.172 86.864 140.752 86.9667 140.5 87.172C140.257 87.3773 140.136 87.634 140.136 87.942C140.136 88.2593 140.253 88.5113 140.486 88.698C140.729 88.8753 141.055 88.964 141.466 88.964ZM152.519 90.168C151.931 90.168 151.446 90.07 151.063 89.874C150.681 89.678 150.396 89.4213 150.209 89.104C150.023 88.7773 149.929 88.4227 149.929 88.04C149.929 87.368 150.191 86.836 150.713 86.444C151.236 86.052 151.983 85.856 152.953 85.856H154.773V85.73C154.773 85.1887 154.624 84.7827 154.325 84.512C154.036 84.2413 153.658 84.106 153.191 84.106C152.781 84.106 152.421 84.2087 152.113 84.414C151.815 84.61 151.633 84.904 151.567 85.296H150.083C150.13 84.792 150.298 84.3627 150.587 84.008C150.886 83.644 151.259 83.3687 151.707 83.182C152.165 82.986 152.664 82.888 153.205 82.888C154.176 82.888 154.927 83.1447 155.459 83.658C155.991 84.162 156.257 84.8527 156.257 85.73V90H154.969L154.843 88.81C154.647 89.1927 154.363 89.5147 153.989 89.776C153.616 90.0373 153.126 90.168 152.519 90.168ZM152.813 88.964C153.215 88.964 153.551 88.8707 153.821 88.684C154.101 88.488 154.316 88.2313 154.465 87.914C154.624 87.5967 154.722 87.2467 154.759 86.864H153.107C152.519 86.864 152.099 86.9667 151.847 87.172C151.605 87.3773 151.483 87.634 151.483 87.942C151.483 88.2593 151.6 88.5113 151.833 88.698C152.076 88.8753 152.403 88.964 152.813 88.964ZM161.278 90.168C160.596 90.168 159.985 90.014 159.444 89.706C158.912 89.398 158.492 88.9733 158.184 88.432C157.885 87.8813 157.736 87.2467 157.736 86.528C157.736 85.8093 157.885 85.1793 158.184 84.638C158.492 84.0873 158.912 83.658 159.444 83.35C159.985 83.042 160.596 82.888 161.278 82.888C162.136 82.888 162.855 83.112 163.434 83.56C164.022 84.008 164.4 84.6147 164.568 85.38H163.014C162.92 84.9973 162.715 84.6987 162.398 84.484C162.08 84.2693 161.707 84.162 161.278 84.162C160.914 84.162 160.578 84.2553 160.27 84.442C159.962 84.6193 159.714 84.8853 159.528 85.24C159.341 85.5853 159.248 86.0147 159.248 86.528C159.248 87.0413 159.341 87.4753 159.528 87.83C159.714 88.1753 159.962 88.4413 160.27 88.628C160.578 88.8147 160.914 88.908 161.278 88.908C161.707 88.908 162.08 88.8007 162.398 88.586C162.715 88.3713 162.92 88.068 163.014 87.676H164.568C164.409 88.4227 164.036 89.0247 163.448 89.482C162.86 89.9393 162.136 90.168 161.278 90.168ZM169.467 90.168C168.786 90.168 168.175 90.014 167.633 89.706C167.101 89.398 166.681 88.9733 166.373 88.432C166.075 87.8813 165.925 87.2467 165.925 86.528C165.925 85.8093 166.075 85.1793 166.373 84.638C166.681 84.0873 167.101 83.658 167.633 83.35C168.175 83.042 168.786 82.888 169.467 82.888C170.326 82.888 171.045 83.112 171.623 83.56C172.211 84.008 172.589 84.6147 172.757 85.38H171.203C171.11 84.9973 170.905 84.6987 170.587 84.484C170.27 84.2693 169.897 84.162 169.467 84.162C169.103 84.162 168.767 84.2553 168.459 84.442C168.151 84.6193 167.904 84.8853 167.717 85.24C167.531 85.5853 167.437 86.0147 167.437 86.528C167.437 87.0413 167.531 87.4753 167.717 87.83C167.904 88.1753 168.151 88.4413 168.459 88.628C168.767 88.8147 169.103 88.908 169.467 88.908C169.897 88.908 170.27 88.8007 170.587 88.586C170.905 88.3713 171.11 88.068 171.203 87.676H172.757C172.599 88.4227 172.225 89.0247 171.637 89.482C171.049 89.9393 170.326 90.168 169.467 90.168ZM177.615 90.168C176.933 90.168 176.327 90.0187 175.795 89.72C175.272 89.412 174.861 88.9873 174.563 88.446C174.264 87.9047 174.115 87.2747 174.115 86.556C174.115 85.828 174.259 85.1887 174.549 84.638C174.847 84.0873 175.258 83.658 175.781 83.35C176.313 83.042 176.929 82.888 177.629 82.888C178.31 82.888 178.903 83.042 179.407 83.35C179.911 83.6487 180.303 84.05 180.583 84.554C180.863 85.058 181.003 85.6133 181.003 86.22C181.003 86.3133 180.998 86.416 180.989 86.528C180.989 86.6307 180.984 86.7473 180.975 86.878H175.571C175.617 87.55 175.837 88.0633 176.229 88.418C176.63 88.7633 177.092 88.936 177.615 88.936C178.035 88.936 178.385 88.8427 178.665 88.656C178.954 88.46 179.169 88.1987 179.309 87.872H180.793C180.606 88.5253 180.233 89.0713 179.673 89.51C179.122 89.9487 178.436 90.168 177.615 90.168ZM177.615 84.106C177.12 84.106 176.681 84.2553 176.299 84.554C175.916 84.8433 175.683 85.282 175.599 85.87H179.519C179.491 85.3287 179.299 84.8993 178.945 84.582C178.59 84.2647 178.147 84.106 177.615 84.106ZM185.314 90.168C184.437 90.168 183.714 89.9533 183.144 89.524C182.575 89.0947 182.248 88.5253 182.164 87.816H183.662C183.737 88.1333 183.914 88.4087 184.194 88.642C184.474 88.866 184.843 88.978 185.3 88.978C185.748 88.978 186.075 88.8847 186.28 88.698C186.486 88.5113 186.588 88.2967 186.588 88.054C186.588 87.6993 186.444 87.4613 186.154 87.34C185.874 87.2093 185.482 87.0927 184.978 86.99C184.586 86.906 184.194 86.794 183.802 86.654C183.42 86.514 183.098 86.318 182.836 86.066C182.584 85.8047 182.458 85.4547 182.458 85.016C182.458 84.4093 182.692 83.9053 183.158 83.504C183.625 83.0933 184.278 82.888 185.118 82.888C185.893 82.888 186.518 83.0747 186.994 83.448C187.48 83.8213 187.764 84.3487 187.848 85.03H186.42C186.374 84.7313 186.234 84.498 186 84.33C185.776 84.162 185.473 84.078 185.09 84.078C184.717 84.078 184.428 84.1573 184.222 84.316C184.017 84.4653 183.914 84.6613 183.914 84.904C183.914 85.1467 184.054 85.338 184.334 85.478C184.624 85.618 185.002 85.744 185.468 85.856C185.935 85.9587 186.364 86.08 186.756 86.22C187.158 86.3507 187.48 86.5467 187.722 86.808C187.965 87.0693 188.086 87.452 188.086 87.956C188.096 88.5907 187.848 89.118 187.344 89.538C186.85 89.958 186.173 90.168 185.314 90.168ZM192.955 90.168C192.292 90.168 191.695 90.0187 191.163 89.72C190.64 89.412 190.225 88.9873 189.917 88.446C189.609 87.8953 189.455 87.256 189.455 86.528C189.455 85.8 189.609 85.1653 189.917 84.624C190.234 84.0733 190.659 83.6487 191.191 83.35C191.723 83.042 192.315 82.888 192.969 82.888C193.631 82.888 194.224 83.042 194.747 83.35C195.279 83.6487 195.699 84.0733 196.007 84.624C196.324 85.1653 196.483 85.8 196.483 86.528C196.483 87.256 196.324 87.8953 196.007 88.446C195.699 88.9873 195.279 89.412 194.747 89.72C194.215 90.0187 193.617 90.168 192.955 90.168ZM192.955 88.894C193.309 88.894 193.636 88.8053 193.935 88.628C194.243 88.4507 194.49 88.1893 194.677 87.844C194.863 87.4893 194.957 87.0507 194.957 86.528C194.957 86.0053 194.863 85.5713 194.677 85.226C194.499 84.8713 194.257 84.6053 193.949 84.428C193.65 84.2507 193.323 84.162 192.969 84.162C192.614 84.162 192.283 84.2507 191.975 84.428C191.676 84.6053 191.433 84.8713 191.247 85.226C191.06 85.5713 190.967 86.0053 190.967 86.528C190.967 87.0507 191.06 87.4893 191.247 87.844C191.433 88.1893 191.676 88.4507 191.975 88.628C192.273 88.8053 192.6 88.894 192.955 88.894ZM204.905 90.168C204.223 90.168 203.612 90.014 203.071 89.706C202.539 89.398 202.119 88.9733 201.811 88.432C201.512 87.8813 201.363 87.2467 201.363 86.528C201.363 85.8093 201.512 85.1793 201.811 84.638C202.119 84.0873 202.539 83.658 203.071 83.35C203.612 83.042 204.223 82.888 204.905 82.888C205.763 82.888 206.482 83.112 207.061 83.56C207.649 84.008 208.027 84.6147 208.195 85.38H206.641C206.547 84.9973 206.342 84.6987 206.025 84.484C205.707 84.2693 205.334 84.162 204.905 84.162C204.541 84.162 204.205 84.2553 203.897 84.442C203.589 84.6193 203.341 84.8853 203.155 85.24C202.968 85.5853 202.875 86.0147 202.875 86.528C202.875 87.0413 202.968 87.4753 203.155 87.83C203.341 88.1753 203.589 88.4413 203.897 88.628C204.205 88.8147 204.541 88.908 204.905 88.908C205.334 88.908 205.707 88.8007 206.025 88.586C206.342 88.3713 206.547 88.068 206.641 87.676H208.195C208.036 88.4227 207.663 89.0247 207.075 89.482C206.487 89.9393 205.763 90.168 204.905 90.168ZM213.052 90.168C212.39 90.168 211.792 90.0187 211.26 89.72C210.738 89.412 210.322 88.9873 210.014 88.446C209.706 87.8953 209.552 87.256 209.552 86.528C209.552 85.8 209.706 85.1653 210.014 84.624C210.332 84.0733 210.756 83.6487 211.288 83.35C211.82 83.042 212.413 82.888 213.066 82.888C213.729 82.888 214.322 83.042 214.844 83.35C215.376 83.6487 215.796 84.0733 216.104 84.624C216.422 85.1653 216.58 85.8 216.58 86.528C216.58 87.256 216.422 87.8953 216.104 88.446C215.796 88.9873 215.376 89.412 214.844 89.72C214.312 90.0187 213.715 90.168 213.052 90.168ZM213.052 88.894C213.407 88.894 213.734 88.8053 214.032 88.628C214.34 88.4507 214.588 88.1893 214.774 87.844C214.961 87.4893 215.054 87.0507 215.054 86.528C215.054 86.0053 214.961 85.5713 214.774 85.226C214.597 84.8713 214.354 84.6053 214.046 84.428C213.748 84.2507 213.421 84.162 213.066 84.162C212.712 84.162 212.38 84.2507 212.072 84.428C211.774 84.6053 211.531 84.8713 211.344 85.226C211.158 85.5713 211.064 86.0053 211.064 86.528C211.064 87.0507 211.158 87.4893 211.344 87.844C211.531 88.1893 211.774 88.4507 212.072 88.628C212.371 88.8053 212.698 88.894 213.052 88.894ZM218.185 90V83.056H219.501L219.627 84.036C219.851 83.6813 220.145 83.4013 220.509 83.196C220.882 82.9907 221.312 82.888 221.797 82.888C222.898 82.888 223.664 83.322 224.093 84.19C224.345 83.7887 224.681 83.4713 225.101 83.238C225.53 83.0047 225.992 82.888 226.487 82.888C227.355 82.888 228.036 83.1493 228.531 83.672C229.026 84.1947 229.273 84.974 229.273 86.01V90H227.789V86.164C227.789 84.82 227.276 84.148 226.249 84.148C225.726 84.148 225.297 84.344 224.961 84.736C224.634 85.128 224.471 85.688 224.471 86.416V90H222.987V86.164C222.987 84.82 222.469 84.148 221.433 84.148C220.92 84.148 220.495 84.344 220.159 84.736C219.832 85.128 219.669 85.688 219.669 86.416V90H218.185ZM231.009 93.08V83.056H232.339L232.493 84.134C232.717 83.8073 233.025 83.518 233.417 83.266C233.809 83.014 234.313 82.888 234.929 82.888C235.601 82.888 236.194 83.0467 236.707 83.364C237.221 83.6813 237.622 84.1153 237.911 84.666C238.21 85.2167 238.359 85.842 238.359 86.542C238.359 87.242 238.21 87.8673 237.911 88.418C237.622 88.9593 237.221 89.3887 236.707 89.706C236.194 90.014 235.597 90.168 234.915 90.168C234.374 90.168 233.893 90.0607 233.473 89.846C233.063 89.6313 232.736 89.328 232.493 88.936V93.08H231.009ZM234.663 88.88C235.298 88.88 235.821 88.6653 236.231 88.236C236.642 87.7973 236.847 87.228 236.847 86.528C236.847 86.0707 236.754 85.6647 236.567 85.31C236.381 84.9553 236.124 84.68 235.797 84.484C235.471 84.2787 235.093 84.176 234.663 84.176C234.029 84.176 233.506 84.3953 233.095 84.834C232.694 85.2727 232.493 85.8373 232.493 86.528C232.493 87.228 232.694 87.7973 233.095 88.236C233.506 88.6653 234.029 88.88 234.663 88.88ZM239.964 90V79.92H241.448V90H239.964ZM246.576 90.168C245.894 90.168 245.288 90.0187 244.756 89.72C244.233 89.412 243.822 88.9873 243.524 88.446C243.225 87.9047 243.076 87.2747 243.076 86.556C243.076 85.828 243.22 85.1887 243.51 84.638C243.808 84.0873 244.219 83.658 244.742 83.35C245.274 83.042 245.89 82.888 246.59 82.888C247.271 82.888 247.864 83.042 248.368 83.35C248.872 83.6487 249.264 84.05 249.544 84.554C249.824 85.058 249.964 85.6133 249.964 86.22C249.964 86.3133 249.959 86.416 249.95 86.528C249.95 86.6307 249.945 86.7473 249.936 86.878H244.532C244.578 87.55 244.798 88.0633 245.19 88.418C245.591 88.7633 246.053 88.936 246.576 88.936C246.996 88.936 247.346 88.8427 247.626 88.656C247.915 88.46 248.13 88.1987 248.27 87.872H249.754C249.567 88.5253 249.194 89.0713 248.634 89.51C248.083 89.9487 247.397 90.168 246.576 90.168ZM246.576 84.106C246.081 84.106 245.642 84.2553 245.26 84.554C244.877 84.8433 244.644 85.282 244.56 85.87H248.48C248.452 85.3287 248.26 84.8993 247.906 84.582C247.551 84.2647 247.108 84.106 246.576 84.106ZM254.238 90C253.556 90 253.015 89.8367 252.614 89.51C252.212 89.174 252.012 88.5813 252.012 87.732V84.302H250.822V83.056H252.012L252.194 81.292H253.496V83.056H255.456V84.302H253.496V87.732C253.496 88.1147 253.575 88.3807 253.734 88.53C253.902 88.67 254.186 88.74 254.588 88.74H255.386V90H254.238ZM260.056 90.168C259.393 90.168 258.796 90.0187 258.264 89.72C257.741 89.412 257.326 88.9873 257.018 88.446C256.71 87.8953 256.556 87.256 256.556 86.528C256.556 85.8 256.71 85.1653 257.018 84.624C257.335 84.0733 257.76 83.6487 258.292 83.35C258.824 83.042 259.417 82.888 260.07 82.888C260.733 82.888 261.325 83.042 261.848 83.35C262.38 83.6487 262.8 84.0733 263.108 84.624C263.425 85.1653 263.584 85.8 263.584 86.528C263.584 87.256 263.425 87.8953 263.108 88.446C262.8 88.9873 262.38 89.412 261.848 89.72C261.316 90.0187 260.719 90.168 260.056 90.168ZM260.056 88.894C260.411 88.894 260.737 88.8053 261.036 88.628C261.344 88.4507 261.591 88.1893 261.778 87.844C261.965 87.4893 262.058 87.0507 262.058 86.528C262.058 86.0053 261.965 85.5713 261.778 85.226C261.601 84.8713 261.358 84.6053 261.05 84.428C260.751 84.2507 260.425 84.162 260.07 84.162C259.715 84.162 259.384 84.2507 259.076 84.428C258.777 84.6053 258.535 84.8713 258.348 85.226C258.161 85.5713 258.068 86.0053 258.068 86.528C258.068 87.0507 258.161 87.4893 258.348 87.844C258.535 88.1893 258.777 88.4507 259.076 88.628C259.375 88.8053 259.701 88.894 260.056 88.894ZM271.068 90.168C270.48 90.168 269.995 90.07 269.612 89.874C269.23 89.678 268.945 89.4213 268.758 89.104C268.572 88.7773 268.478 88.4227 268.478 88.04C268.478 87.368 268.74 86.836 269.262 86.444C269.785 86.052 270.532 85.856 271.502 85.856H273.322V85.73C273.322 85.1887 273.173 84.7827 272.874 84.512C272.585 84.2413 272.207 84.106 271.74 84.106C271.33 84.106 270.97 84.2087 270.662 84.414C270.364 84.61 270.182 84.904 270.116 85.296H268.632C268.679 84.792 268.847 84.3627 269.136 84.008C269.435 83.644 269.808 83.3687 270.256 83.182C270.714 82.986 271.213 82.888 271.754 82.888C272.725 82.888 273.476 83.1447 274.008 83.658C274.54 84.162 274.806 84.8527 274.806 85.73V90H273.518L273.392 88.81C273.196 89.1927 272.912 89.5147 272.538 89.776C272.165 90.0373 271.675 90.168 271.068 90.168ZM271.362 88.964C271.764 88.964 272.1 88.8707 272.37 88.684C272.65 88.488 272.865 88.2313 273.014 87.914C273.173 87.5967 273.271 87.2467 273.308 86.864H271.656C271.068 86.864 270.648 86.9667 270.396 87.172C270.154 87.3773 270.032 87.634 270.032 87.942C270.032 88.2593 270.149 88.5113 270.382 88.698C270.625 88.8753 270.952 88.964 271.362 88.964ZM80.2632 108V101.056H81.5792L81.6912 102.274C81.9059 101.845 82.2185 101.509 82.6292 101.266C83.0492 101.014 83.5299 100.888 84.0712 100.888C84.9112 100.888 85.5692 101.149 86.0452 101.672C86.5305 102.195 86.7732 102.974 86.7732 104.01V108H85.3032V104.164C85.3032 102.82 84.7525 102.148 83.6512 102.148C83.1005 102.148 82.6432 102.344 82.2792 102.736C81.9245 103.128 81.7472 103.688 81.7472 104.416V108H80.2632ZM94.905 101.056V108H93.589L93.477 106.782C93.2623 107.211 92.945 107.552 92.525 107.804C92.1143 108.047 91.6383 108.168 91.097 108.168C90.257 108.168 89.5943 107.907 89.109 107.384C88.633 106.861 88.395 106.082 88.395 105.046V101.056H89.865V104.892C89.865 106.236 90.4157 106.908 91.517 106.908C92.0677 106.908 92.5203 106.712 92.875 106.32C93.239 105.928 93.421 105.368 93.421 104.64V101.056H94.905ZM100.027 108.168C99.3455 108.168 98.7388 108.019 98.2068 107.72C97.6842 107.412 97.2735 106.987 96.9748 106.446C96.6762 105.905 96.5268 105.275 96.5268 104.556C96.5268 103.828 96.6715 103.189 96.9608 102.638C97.2595 102.087 97.6702 101.658 98.1928 101.35C98.7248 101.042 99.3408 100.888 100.041 100.888C100.722 100.888 101.315 101.042 101.819 101.35C102.323 101.649 102.715 102.05 102.995 102.554C103.275 103.058 103.415 103.613 103.415 104.22C103.415 104.313 103.41 104.416 103.401 104.528C103.401 104.631 103.396 104.747 103.387 104.878H97.9828C98.0295 105.55 98.2488 106.063 98.6408 106.418C99.0422 106.763 99.5042 106.936 100.027 106.936C100.447 106.936 100.797 106.843 101.077 106.656C101.366 106.46 101.581 106.199 101.721 105.872H103.205C103.018 106.525 102.645 107.071 102.085 107.51C101.534 107.949 100.848 108.168 100.027 108.168ZM100.027 102.106C99.5322 102.106 99.0935 102.255 98.7108 102.554C98.3282 102.843 98.0948 103.282 98.0108 103.87H101.931C101.903 103.329 101.711 102.899 101.357 102.582C101.002 102.265 100.559 102.106 100.027 102.106ZM107.727 108.168C106.849 108.168 106.126 107.953 105.557 107.524C104.987 107.095 104.661 106.525 104.577 105.816H106.075C106.149 106.133 106.327 106.409 106.607 106.642C106.887 106.866 107.255 106.978 107.713 106.978C108.161 106.978 108.487 106.885 108.693 106.698C108.898 106.511 109.001 106.297 109.001 106.054C109.001 105.699 108.856 105.461 108.567 105.34C108.287 105.209 107.895 105.093 107.391 104.99C106.999 104.906 106.607 104.794 106.215 104.654C105.832 104.514 105.51 104.318 105.249 104.066C104.997 103.805 104.871 103.455 104.871 103.016C104.871 102.409 105.104 101.905 105.571 101.504C106.037 101.093 106.691 100.888 107.531 100.888C108.305 100.888 108.931 101.075 109.407 101.448C109.892 101.821 110.177 102.349 110.261 103.03H108.833C108.786 102.731 108.646 102.498 108.413 102.33C108.189 102.162 107.885 102.078 107.503 102.078C107.129 102.078 106.84 102.157 106.635 102.316C106.429 102.465 106.327 102.661 106.327 102.904C106.327 103.147 106.467 103.338 106.747 103.478C107.036 103.618 107.414 103.744 107.881 103.856C108.347 103.959 108.777 104.08 109.169 104.22C109.57 104.351 109.892 104.547 110.135 104.808C110.377 105.069 110.499 105.452 110.499 105.956C110.508 106.591 110.261 107.118 109.757 107.538C109.262 107.958 108.585 108.168 107.727 108.168ZM114.771 108C114.09 108 113.548 107.837 113.147 107.51C112.746 107.174 112.545 106.581 112.545 105.732V102.302H111.355V101.056H112.545L112.727 99.292H114.029V101.056H115.989V102.302H114.029V105.732C114.029 106.115 114.108 106.381 114.267 106.53C114.435 106.67 114.72 106.74 115.121 106.74H115.919V108H114.771ZM117.519 108V101.056H118.849L118.975 102.372C119.218 101.915 119.554 101.555 119.983 101.294C120.422 101.023 120.949 100.888 121.565 100.888V102.442H121.159C120.748 102.442 120.38 102.512 120.053 102.652C119.736 102.783 119.479 103.011 119.283 103.338C119.096 103.655 119.003 104.099 119.003 104.668V108H117.519ZM125.189 108.168C124.601 108.168 124.116 108.07 123.733 107.874C123.351 107.678 123.066 107.421 122.879 107.104C122.693 106.777 122.599 106.423 122.599 106.04C122.599 105.368 122.861 104.836 123.383 104.444C123.906 104.052 124.653 103.856 125.623 103.856H127.443V103.73C127.443 103.189 127.294 102.783 126.995 102.512C126.706 102.241 126.328 102.106 125.861 102.106C125.451 102.106 125.091 102.209 124.783 102.414C124.485 102.61 124.303 102.904 124.237 103.296H122.753C122.8 102.792 122.968 102.363 123.257 102.008C123.556 101.644 123.929 101.369 124.377 101.182C124.835 100.986 125.334 100.888 125.875 100.888C126.846 100.888 127.597 101.145 128.129 101.658C128.661 102.162 128.927 102.853 128.927 103.73V108H127.639L127.513 106.81C127.317 107.193 127.033 107.515 126.659 107.776C126.286 108.037 125.796 108.168 125.189 108.168ZM125.483 106.964C125.885 106.964 126.221 106.871 126.491 106.684C126.771 106.488 126.986 106.231 127.135 105.914C127.294 105.597 127.392 105.247 127.429 104.864H125.777C125.189 104.864 124.769 104.967 124.517 105.172C124.275 105.377 124.153 105.634 124.153 105.942C124.153 106.259 124.27 106.511 124.503 106.698C124.746 106.875 125.073 106.964 125.483 106.964ZM134.185 111.08V101.056H135.515L135.669 102.134C135.893 101.807 136.201 101.518 136.593 101.266C136.985 101.014 137.489 100.888 138.105 100.888C138.777 100.888 139.37 101.047 139.883 101.364C140.396 101.681 140.798 102.115 141.087 102.666C141.386 103.217 141.535 103.842 141.535 104.542C141.535 105.242 141.386 105.867 141.087 106.418C140.798 106.959 140.396 107.389 139.883 107.706C139.37 108.014 138.772 108.168 138.091 108.168C137.55 108.168 137.069 108.061 136.649 107.846C136.238 107.631 135.912 107.328 135.669 106.936V111.08H134.185ZM137.839 106.88C138.474 106.88 138.996 106.665 139.407 106.236C139.818 105.797 140.023 105.228 140.023 104.528C140.023 104.071 139.93 103.665 139.743 103.31C139.556 102.955 139.3 102.68 138.973 102.484C138.646 102.279 138.268 102.176 137.839 102.176C137.204 102.176 136.682 102.395 136.271 102.834C135.87 103.273 135.669 103.837 135.669 104.528C135.669 105.228 135.87 105.797 136.271 106.236C136.682 106.665 137.204 106.88 137.839 106.88ZM143.14 108V97.92H144.624V108H143.14ZM148.855 108.168C148.267 108.168 147.782 108.07 147.399 107.874C147.017 107.678 146.732 107.421 146.545 107.104C146.359 106.777 146.265 106.423 146.265 106.04C146.265 105.368 146.527 104.836 147.049 104.444C147.572 104.052 148.319 103.856 149.289 103.856H151.109V103.73C151.109 103.189 150.96 102.783 150.661 102.512C150.372 102.241 149.994 102.106 149.527 102.106C149.117 102.106 148.757 102.209 148.449 102.414C148.151 102.61 147.969 102.904 147.903 103.296H146.419C146.466 102.792 146.634 102.363 146.923 102.008C147.222 101.644 147.595 101.369 148.043 101.182C148.501 100.986 149 100.888 149.541 100.888C150.512 100.888 151.263 101.145 151.795 101.658C152.327 102.162 152.593 102.853 152.593 103.73V108H151.305L151.179 106.81C150.983 107.193 150.699 107.515 150.325 107.776C149.952 108.037 149.462 108.168 148.855 108.168ZM149.149 106.964C149.551 106.964 149.887 106.871 150.157 106.684C150.437 106.488 150.652 106.231 150.801 105.914C150.96 105.597 151.058 105.247 151.095 104.864H149.443C148.855 104.864 148.435 104.967 148.183 105.172C147.941 105.377 147.819 105.634 147.819 105.942C147.819 106.259 147.936 106.511 148.169 106.698C148.412 106.875 148.739 106.964 149.149 106.964ZM157.099 108C156.418 108 155.876 107.837 155.475 107.51C155.074 107.174 154.873 106.581 154.873 105.732V102.302H153.683V101.056H154.873L155.055 99.292H156.357V101.056H158.317V102.302H156.357V105.732C156.357 106.115 156.436 106.381 156.595 106.53C156.763 106.67 157.048 106.74 157.449 106.74H158.247V108H157.099ZM162.199 108.168C161.611 108.168 161.126 108.07 160.743 107.874C160.361 107.678 160.076 107.421 159.889 107.104C159.703 106.777 159.609 106.423 159.609 106.04C159.609 105.368 159.871 104.836 160.393 104.444C160.916 104.052 161.663 103.856 162.633 103.856H164.453V103.73C164.453 103.189 164.304 102.783 164.005 102.512C163.716 102.241 163.338 102.106 162.871 102.106C162.461 102.106 162.101 102.209 161.793 102.414C161.495 102.61 161.313 102.904 161.247 103.296H159.763C159.81 102.792 159.978 102.363 160.267 102.008C160.566 101.644 160.939 101.369 161.387 101.182C161.845 100.986 162.344 100.888 162.885 100.888C163.856 100.888 164.607 101.145 165.139 101.658C165.671 102.162 165.937 102.853 165.937 103.73V108H164.649L164.523 106.81C164.327 107.193 164.043 107.515 163.669 107.776C163.296 108.037 162.806 108.168 162.199 108.168ZM162.493 106.964C162.895 106.964 163.231 106.871 163.501 106.684C163.781 106.488 163.996 106.231 164.145 105.914C164.304 105.597 164.402 105.247 164.439 104.864H162.787C162.199 104.864 161.779 104.967 161.527 105.172C161.285 105.377 161.163 105.634 161.163 105.942C161.163 106.259 161.28 106.511 161.513 106.698C161.756 106.875 162.083 106.964 162.493 106.964ZM168.017 108V102.302H167.023V101.056H168.017V100.048C168.017 99.292 168.204 98.7507 168.577 98.424C168.96 98.088 169.497 97.92 170.187 97.92H170.915V99.18H170.411C170.085 99.18 169.851 99.25 169.711 99.39C169.571 99.5207 169.501 99.7447 169.501 100.062V101.056H171.097V102.302H169.501V108H168.017ZM175.482 108.168C174.819 108.168 174.222 108.019 173.69 107.72C173.167 107.412 172.752 106.987 172.444 106.446C172.136 105.895 171.982 105.256 171.982 104.528C171.982 103.8 172.136 103.165 172.444 102.624C172.761 102.073 173.186 101.649 173.718 101.35C174.25 101.042 174.843 100.888 175.496 100.888C176.159 100.888 176.751 101.042 177.274 101.35C177.806 101.649 178.226 102.073 178.534 102.624C178.851 103.165 179.01 103.8 179.01 104.528C179.01 105.256 178.851 105.895 178.534 106.446C178.226 106.987 177.806 107.412 177.274 107.72C176.742 108.019 176.145 108.168 175.482 108.168ZM175.482 106.894C175.837 106.894 176.163 106.805 176.462 106.628C176.77 106.451 177.017 106.189 177.204 105.844C177.391 105.489 177.484 105.051 177.484 104.528C177.484 104.005 177.391 103.571 177.204 103.226C177.027 102.871 176.784 102.605 176.476 102.428C176.177 102.251 175.851 102.162 175.496 102.162C175.141 102.162 174.81 102.251 174.502 102.428C174.203 102.605 173.961 102.871 173.774 103.226C173.587 103.571 173.494 104.005 173.494 104.528C173.494 105.051 173.587 105.489 173.774 105.844C173.961 106.189 174.203 106.451 174.502 106.628C174.801 106.805 175.127 106.894 175.482 106.894ZM180.615 108V101.056H181.945L182.071 102.372C182.313 101.915 182.649 101.555 183.079 101.294C183.517 101.023 184.045 100.888 184.661 100.888V102.442H184.255C183.844 102.442 183.475 102.512 183.149 102.652C182.831 102.783 182.575 103.011 182.379 103.338C182.192 103.655 182.099 104.099 182.099 104.668V108H180.615ZM185.933 108V101.056H187.249L187.375 102.036C187.599 101.681 187.893 101.401 188.257 101.196C188.63 100.991 189.06 100.888 189.545 100.888C190.646 100.888 191.412 101.322 191.841 102.19C192.093 101.789 192.429 101.471 192.849 101.238C193.278 101.005 193.74 100.888 194.235 100.888C195.103 100.888 195.784 101.149 196.279 101.672C196.774 102.195 197.021 102.974 197.021 104.01V108H195.537V104.164C195.537 102.82 195.024 102.148 193.997 102.148C193.474 102.148 193.045 102.344 192.709 102.736C192.382 103.128 192.219 103.688 192.219 104.416V108H190.735V104.164C190.735 102.82 190.217 102.148 189.181 102.148C188.668 102.148 188.243 102.344 187.907 102.736C187.58 103.128 187.417 103.688 187.417 104.416V108H185.933ZM201.109 108.168C200.521 108.168 200.036 108.07 199.653 107.874C199.271 107.678 198.986 107.421 198.799 107.104C198.613 106.777 198.519 106.423 198.519 106.04C198.519 105.368 198.781 104.836 199.303 104.444C199.826 104.052 200.573 103.856 201.543 103.856H203.363V103.73C203.363 103.189 203.214 102.783 202.915 102.512C202.626 102.241 202.248 102.106 201.781 102.106C201.371 102.106 201.011 102.209 200.703 102.414C200.405 102.61 200.223 102.904 200.157 103.296H198.673C198.72 102.792 198.888 102.363 199.177 102.008C199.476 101.644 199.849 101.369 200.297 101.182C200.755 100.986 201.254 100.888 201.795 100.888C202.766 100.888 203.517 101.145 204.049 101.658C204.581 102.162 204.847 102.853 204.847 103.73V108H203.559L203.433 106.81C203.237 107.193 202.953 107.515 202.579 107.776C202.206 108.037 201.716 108.168 201.109 108.168ZM201.403 106.964C201.805 106.964 202.141 106.871 202.411 106.684C202.691 106.488 202.906 106.231 203.055 105.914C203.214 105.597 203.312 105.247 203.349 104.864H201.697C201.109 104.864 200.689 104.967 200.437 105.172C200.195 105.377 200.073 105.634 200.073 105.942C200.073 106.259 200.19 106.511 200.423 106.698C200.666 106.875 200.993 106.964 201.403 106.964ZM207.166 108.084C206.886 108.084 206.652 107.995 206.466 107.818C206.288 107.631 206.2 107.412 206.2 107.16C206.2 106.899 206.288 106.679 206.466 106.502C206.652 106.315 206.886 106.222 207.166 106.222C207.446 106.222 207.674 106.315 207.852 106.502C208.029 106.679 208.118 106.899 208.118 107.16C208.118 107.412 208.029 107.631 207.852 107.818C207.674 107.995 207.446 108.084 207.166 108.084Z" fill="#757575"/>
</svg>
