<svg width="80" height="12" viewBox="0 0 80 12" fill="none" xmlns="http://www.w3.org/2000/svg">
<path d="M0.291852 11V1.2H1.77585V5.4H6.52185V1.2H8.00585V11H6.52185V6.618H1.77585V11H0.291852ZM12.2949 11.168C11.7069 11.168 11.2215 11.07 10.8389 10.874C10.4562 10.678 10.1715 10.4213 9.98488 10.104C9.79822 9.77733 9.70488 9.42267 9.70488 9.04C9.70488 8.368 9.96622 7.836 10.4889 7.444C11.0115 7.052 11.7582 6.856 12.7289 6.856H14.5489V6.73C14.5489 6.18867 14.3995 5.78267 14.1009 5.512C13.8115 5.24133 13.4335 5.106 12.9669 5.106C12.5562 5.106 12.1969 5.20867 11.8889 5.414C11.5902 5.61 11.4082 5.904 11.3429 6.296H9.85888C9.90555 5.792 10.0735 5.36267 10.3629 5.008C10.6615 4.644 11.0349 4.36867 11.4829 4.182C11.9402 3.986 12.4395 3.888 12.9809 3.888C13.9515 3.888 14.7029 4.14467 15.2349 4.658C15.7669 5.162 16.0329 5.85267 16.0329 6.73V11H14.7449L14.6189 9.81C14.4229 10.1927 14.1382 10.5147 13.7649 10.776C13.3915 11.0373 12.9015 11.168 12.2949 11.168ZM12.5889 9.964C12.9902 9.964 13.3262 9.87067 13.5969 9.684C13.8769 9.488 14.0915 9.23133 14.2409 8.914C14.3995 8.59667 14.4975 8.24667 14.5349 7.864H12.8829C12.2949 7.864 11.8749 7.96667 11.6229 8.172C11.3802 8.37733 11.2589 8.634 11.2589 8.942C11.2589 9.25933 11.3755 9.51133 11.6089 9.698C11.8515 9.87533 12.1782 9.964 12.5889 9.964ZM21.0532 11.168C20.3719 11.168 19.7605 11.014 19.2192 10.706C18.6872 10.398 18.2672 9.97333 17.9592 9.432C17.6605 8.88133 17.5112 8.24667 17.5112 7.528C17.5112 6.80933 17.6605 6.17933 17.9592 5.638C18.2672 5.08733 18.6872 4.658 19.2192 4.35C19.7605 4.042 20.3719 3.888 21.0532 3.888C21.9119 3.888 22.6305 4.112 23.2092 4.56C23.7972 5.008 24.1752 5.61467 24.3432 6.38H22.7892C22.6959 5.99733 22.4905 5.69867 22.1732 5.484C21.8559 5.26933 21.4825 5.162 21.0532 5.162C20.6892 5.162 20.3532 5.25533 20.0452 5.442C19.7372 5.61933 19.4899 5.88533 19.3032 6.24C19.1165 6.58533 19.0232 7.01467 19.0232 7.528C19.0232 8.04133 19.1165 8.47533 19.3032 8.83C19.4899 9.17533 19.7372 9.44133 20.0452 9.628C20.3532 9.81467 20.6892 9.908 21.0532 9.908C21.4825 9.908 21.8559 9.80067 22.1732 9.586C22.4905 9.37133 22.6959 9.068 22.7892 8.676H24.3432C24.1845 9.42267 23.8112 10.0247 23.2232 10.482C22.6352 10.9393 21.9119 11.168 21.0532 11.168ZM25.9526 11V0.92H27.4366V6.926L30.0966 4.056H31.8746L28.9206 7.206L32.3086 11H30.4326L27.4366 7.444V11H25.9526ZM36.1733 11.168C35.492 11.168 34.8853 11.0187 34.3533 10.72C33.8306 10.412 33.42 9.98733 33.1213 9.446C32.8226 8.90467 32.6733 8.27467 32.6733 7.556C32.6733 6.828 32.818 6.18867 33.1073 5.638C33.406 5.08733 33.8166 4.658 34.3393 4.35C34.8713 4.042 35.4873 3.888 36.1873 3.888C36.8686 3.888 37.4613 4.042 37.9653 4.35C38.4693 4.64867 38.8613 5.05 39.1413 5.554C39.4213 6.058 39.5613 6.61333 39.5613 7.22C39.5613 7.31333 39.5566 7.416 39.5473 7.528C39.5473 7.63067 39.5426 7.74733 39.5333 7.878H34.1293C34.176 8.55 34.3953 9.06333 34.7873 9.418C35.1886 9.76333 35.6506 9.936 36.1733 9.936C36.5933 9.936 36.9433 9.84267 37.2233 9.656C37.5126 9.46 37.7273 9.19867 37.8673 8.872H39.3513C39.1646 9.52533 38.7913 10.0713 38.2313 10.51C37.6806 10.9487 36.9946 11.168 36.1733 11.168ZM36.1733 5.106C35.6786 5.106 35.24 5.25533 34.8573 5.554C34.4746 5.84333 34.2413 6.282 34.1573 6.87H38.0773C38.0493 6.32867 37.858 5.89933 37.5033 5.582C37.1486 5.26467 36.7053 5.106 36.1733 5.106ZM41.1011 11V4.056H42.4311L42.5571 5.372C42.7998 4.91467 43.1358 4.55533 43.5651 4.294C44.0038 4.02333 44.5311 3.888 45.1471 3.888V5.442H44.7411C44.3304 5.442 43.9618 5.512 43.6351 5.652C43.3178 5.78267 43.0611 6.01133 42.8651 6.338C42.6784 6.65533 42.5851 7.09867 42.5851 7.668V11H41.1011ZM46.4194 11V4.056H47.7354L47.8474 5.274C48.0621 4.84467 48.3748 4.50867 48.7854 4.266C49.2054 4.014 49.6861 3.888 50.2274 3.888C51.0674 3.888 51.7254 4.14933 52.2014 4.672C52.6868 5.19467 52.9294 5.974 52.9294 7.01V11H51.4594V7.164C51.4594 5.82 50.9088 5.148 49.8074 5.148C49.2568 5.148 48.7994 5.344 48.4354 5.736C48.0808 6.128 47.9034 6.688 47.9034 7.416V11H46.4194ZM57.9253 11.168C57.2439 11.168 56.6373 11.0187 56.1053 10.72C55.5826 10.412 55.1719 9.98733 54.8733 9.446C54.5746 8.90467 54.4253 8.27467 54.4253 7.556C54.4253 6.828 54.5699 6.18867 54.8593 5.638C55.1579 5.08733 55.5686 4.658 56.0913 4.35C56.6233 4.042 57.2393 3.888 57.9393 3.888C58.6206 3.888 59.2133 4.042 59.7173 4.35C60.2213 4.64867 60.6133 5.05 60.8933 5.554C61.1733 6.058 61.3133 6.61333 61.3133 7.22C61.3133 7.31333 61.3086 7.416 61.2993 7.528C61.2993 7.63067 61.2946 7.74733 61.2853 7.878H55.8813C55.9279 8.55 56.1473 9.06333 56.5393 9.418C56.9406 9.76333 57.4026 9.936 57.9253 9.936C58.3453 9.936 58.6953 9.84267 58.9753 9.656C59.2646 9.46 59.4793 9.19867 59.6193 8.872H61.1033C60.9166 9.52533 60.5433 10.0713 59.9833 10.51C59.4326 10.9487 58.7466 11.168 57.9253 11.168ZM57.9253 5.106C57.4306 5.106 56.9919 5.25533 56.6093 5.554C56.2266 5.84333 55.9933 6.282 55.9093 6.87H59.8293C59.8013 6.32867 59.6099 5.89933 59.2553 5.582C58.9006 5.26467 58.4573 5.106 57.9253 5.106ZM63.9656 11L61.9216 4.056H63.4056L64.7496 9.292L66.2616 4.056H67.9136L69.4256 9.292L70.7696 4.056H72.2536L70.2096 11H68.6836L67.0876 5.54L65.4916 11H63.9656ZM76.2481 11.168C75.3708 11.168 74.6474 10.9533 74.0781 10.524C73.5088 10.0947 73.1821 9.52533 73.0981 8.816H74.5961C74.6708 9.13333 74.8481 9.40867 75.1281 9.642C75.4081 9.866 75.7768 9.978 76.2341 9.978C76.6821 9.978 77.0088 9.88467 77.2141 9.698C77.4194 9.51133 77.5221 9.29667 77.5221 9.054C77.5221 8.69933 77.3774 8.46133 77.0881 8.34C76.8081 8.20933 76.4161 8.09267 75.9121 7.99C75.5201 7.906 75.1281 7.794 74.7361 7.654C74.3534 7.514 74.0314 7.318 73.7701 7.066C73.5181 6.80467 73.3921 6.45467 73.3921 6.016C73.3921 5.40933 73.6254 4.90533 74.0921 4.504C74.5588 4.09333 75.2121 3.888 76.0521 3.888C76.8268 3.888 77.4521 4.07467 77.9281 4.448C78.4134 4.82133 78.6981 5.34867 78.7821 6.03H77.3541C77.3074 5.73133 77.1674 5.498 76.9341 5.33C76.7101 5.162 76.4068 5.078 76.0241 5.078C75.6508 5.078 75.3614 5.15733 75.1561 5.316C74.9508 5.46533 74.8481 5.66133 74.8481 5.904C74.8481 6.14667 74.9881 6.338 75.2681 6.478C75.5574 6.618 75.9354 6.744 76.4021 6.856C76.8688 6.95867 77.2981 7.08 77.6901 7.22C78.0914 7.35067 78.4134 7.54667 78.6561 7.808C78.8988 8.06933 79.0201 8.452 79.0201 8.956C79.0294 9.59067 78.7821 10.118 78.2781 10.538C77.7834 10.958 77.1068 11.168 76.2481 11.168Z" fill="white"/>
</svg>
