<svg width="54" height="12" viewBox="0 0 54 12" fill="none" xmlns="http://www.w3.org/2000/svg">
<path d="M0.376813 11V1.2H1.86081V9.824H6.31281V11H0.376813ZM8.69402 2.74C8.41402 2.74 8.18068 2.656 7.99402 2.488C7.81668 2.31067 7.72802 2.09133 7.72802 1.83C7.72802 1.56867 7.81668 1.354 7.99402 1.186C8.18068 1.00867 8.41402 0.92 8.69402 0.92C8.97402 0.92 9.20268 1.00867 9.38002 1.186C9.56668 1.354 9.66002 1.56867 9.66002 1.83C9.66002 2.09133 9.56668 2.31067 9.38002 2.488C9.20268 2.656 8.97402 2.74 8.69402 2.74ZM7.95202 11V4.056H9.43602V11H7.95202ZM11.395 11V4.056H12.711L12.823 5.274C13.0377 4.84467 13.3504 4.50867 13.761 4.266C14.181 4.014 14.6617 3.888 15.203 3.888C16.043 3.888 16.701 4.14933 17.177 4.672C17.6624 5.19467 17.905 5.974 17.905 7.01V11H16.435V7.164C16.435 5.82 15.8844 5.148 14.783 5.148C14.2324 5.148 13.775 5.344 13.411 5.736C13.0564 6.128 12.879 6.688 12.879 7.416V11H11.395ZM19.6528 11V0.92H21.1368V6.926L23.7968 4.056H25.5748L22.6208 7.206L26.0088 11H24.1328L21.1368 7.444V11H19.6528ZM29.8735 11.168C29.1922 11.168 28.5855 11.0187 28.0535 10.72C27.5308 10.412 27.1202 9.98733 26.8215 9.446C26.5228 8.90467 26.3735 8.27467 26.3735 7.556C26.3735 6.828 26.5182 6.18867 26.8075 5.638C27.1062 5.08733 27.5168 4.658 28.0395 4.35C28.5715 4.042 29.1875 3.888 29.8875 3.888C30.5688 3.888 31.1615 4.042 31.6655 4.35C32.1695 4.64867 32.5615 5.05 32.8415 5.554C33.1215 6.058 33.2615 6.61333 33.2615 7.22C33.2615 7.31333 33.2568 7.416 33.2475 7.528C33.2475 7.63067 33.2428 7.74733 33.2335 7.878H27.8295C27.8762 8.55 28.0955 9.06333 28.4875 9.418C28.8888 9.76333 29.3508 9.936 29.8735 9.936C30.2935 9.936 30.6435 9.84267 30.9235 9.656C31.2128 9.46 31.4275 9.19867 31.5675 8.872H33.0515C32.8648 9.52533 32.4915 10.0713 31.9315 10.51C31.3808 10.9487 30.6948 11.168 29.8735 11.168ZM29.8735 5.106C29.3788 5.106 28.9402 5.25533 28.5575 5.554C28.1748 5.84333 27.9415 6.282 27.8575 6.87H31.7775C31.7495 6.32867 31.5582 5.89933 31.2035 5.582C30.8488 5.26467 30.4055 5.106 29.8735 5.106ZM37.9653 11.168C37.2933 11.168 36.7006 11.0093 36.1873 10.692C35.6739 10.3747 35.2726 9.94067 34.9833 9.39C34.6939 8.83933 34.5493 8.214 34.5493 7.514C34.5493 6.814 34.6939 6.19333 34.9833 5.652C35.2726 5.10133 35.6739 4.672 36.1873 4.364C36.7099 4.04667 37.3073 3.888 37.9793 3.888C38.5299 3.888 39.0106 3.99533 39.4213 4.21C39.8413 4.42467 40.1679 4.728 40.4013 5.12V0.92H41.8853V11H40.5553L40.4013 9.922C40.1773 10.2487 39.8693 10.538 39.4773 10.79C39.0853 11.042 38.5813 11.168 37.9653 11.168ZM38.2313 9.88C38.8659 9.88 39.3839 9.66067 39.7853 9.222C40.1959 8.78333 40.4013 8.21867 40.4013 7.528C40.4013 6.828 40.1959 6.26333 39.7853 5.834C39.3839 5.39533 38.8659 5.176 38.2313 5.176C37.5966 5.176 37.0739 5.39533 36.6633 5.834C36.2526 6.26333 36.0473 6.828 36.0473 7.528C36.0473 7.98533 36.1406 8.39133 36.3273 8.746C36.5139 9.10067 36.7706 9.38067 37.0973 9.586C37.4333 9.782 37.8113 9.88 38.2313 9.88ZM44.5964 2.74C44.3164 2.74 44.083 2.656 43.8964 2.488C43.719 2.31067 43.6304 2.09133 43.6304 1.83C43.6304 1.56867 43.719 1.354 43.8964 1.186C44.083 1.00867 44.3164 0.92 44.5964 0.92C44.8764 0.92 45.105 1.00867 45.2824 1.186C45.469 1.354 45.5624 1.56867 45.5624 1.83C45.5624 2.09133 45.469 2.31067 45.2824 2.488C45.105 2.656 44.8764 2.74 44.5964 2.74ZM43.8544 11V4.056H45.3384V11H43.8544ZM47.2974 11V4.056H48.6134L48.7254 5.274C48.94 4.84467 49.2527 4.50867 49.6634 4.266C50.0834 4.014 50.564 3.888 51.1054 3.888C51.9454 3.888 52.6034 4.14933 53.0794 4.672C53.5647 5.19467 53.8074 5.974 53.8074 7.01V11H52.3374V7.164C52.3374 5.82 51.7867 5.148 50.6854 5.148C50.1347 5.148 49.6774 5.344 49.3134 5.736C48.9587 6.128 48.7814 6.688 48.7814 7.416V11H47.2974Z" fill="white"/>
</svg>
