<svg width="79" height="14" viewBox="0 0 79 14" fill="none" xmlns="http://www.w3.org/2000/svg">
<path d="M0.224 13V0.399999H2.96L6.974 8.392L10.934 0.399999H13.67V13H11.366V4.306L7.856 11.2H6.038L2.528 4.306V13H0.224ZM20.3446 13.216C19.4806 13.216 18.7006 13.018 18.0046 12.622C17.3206 12.226 16.7746 11.68 16.3666 10.984C15.9706 10.276 15.7726 9.46 15.7726 8.536C15.7726 7.612 15.9766 6.802 16.3846 6.106C16.7926 5.398 17.3386 4.846 18.0226 4.45C18.7186 4.054 19.4986 3.856 20.3626 3.856C21.2146 3.856 21.9826 4.054 22.6666 4.45C23.3626 4.846 23.9086 5.398 24.3046 6.106C24.7126 6.802 24.9166 7.612 24.9166 8.536C24.9166 9.46 24.7126 10.276 24.3046 10.984C23.9086 11.68 23.3626 12.226 22.6666 12.622C21.9706 13.018 21.1966 13.216 20.3446 13.216ZM20.3446 11.218C20.9446 11.218 21.4666 10.996 21.9106 10.552C22.3546 10.096 22.5766 9.424 22.5766 8.536C22.5766 7.648 22.3546 6.982 21.9106 6.538C21.4666 6.082 20.9506 5.854 20.3626 5.854C19.7506 5.854 19.2226 6.082 18.7786 6.538C18.3466 6.982 18.1306 7.648 18.1306 8.536C18.1306 9.424 18.3466 10.096 18.7786 10.552C19.2226 10.996 19.7446 11.218 20.3446 11.218ZM26.9766 13V4.072H29.0106L29.1906 5.584C29.4666 5.056 29.8626 4.636 30.3786 4.324C30.9066 4.012 31.5246 3.856 32.2326 3.856C33.3366 3.856 34.1946 4.204 34.8066 4.9C35.4186 5.596 35.7246 6.616 35.7246 7.96V13H33.4206V8.176C33.4206 7.408 33.2646 6.82 32.9526 6.412C32.6406 6.004 32.1546 5.8 31.4946 5.8C30.8466 5.8 30.3126 6.028 29.8926 6.484C29.4846 6.94 29.2806 7.576 29.2806 8.392V13H26.9766ZM42.2658 13.216C41.3658 13.216 40.5678 13.024 39.8718 12.64C39.1758 12.256 38.6298 11.716 38.2338 11.02C37.8378 10.324 37.6398 9.52 37.6398 8.608C37.6398 7.684 37.8318 6.862 38.2158 6.142C38.6118 5.422 39.1518 4.864 39.8358 4.468C40.5318 4.06 41.3478 3.856 42.2838 3.856C43.1598 3.856 43.9338 4.048 44.6058 4.432C45.2778 4.816 45.7998 5.344 46.1718 6.016C46.5558 6.676 46.7478 7.414 46.7478 8.23C46.7478 8.362 46.7418 8.5 46.7298 8.644C46.7298 8.788 46.7238 8.938 46.7118 9.094H39.9258C39.9738 9.79 40.2138 10.336 40.6458 10.732C41.0898 11.128 41.6238 11.326 42.2478 11.326C42.7158 11.326 43.1058 11.224 43.4178 11.02C43.7418 10.804 43.9818 10.528 44.1378 10.192H46.4778C46.3098 10.756 46.0278 11.272 45.6318 11.74C45.2478 12.196 44.7678 12.556 44.1918 12.82C43.6278 13.084 42.9858 13.216 42.2658 13.216ZM42.2838 5.728C41.7198 5.728 41.2218 5.89 40.7898 6.214C40.3578 6.526 40.0818 7.006 39.9618 7.654H44.4078C44.3718 7.066 44.1558 6.598 43.7598 6.25C43.3638 5.902 42.8718 5.728 42.2838 5.728ZM52.7896 13.216C51.9496 13.216 51.1996 13.012 50.5396 12.604C49.8796 12.196 49.3576 11.638 48.9736 10.93C48.5896 10.222 48.3976 9.418 48.3976 8.518C48.3976 7.618 48.5896 6.82 48.9736 6.124C49.3576 5.416 49.8796 4.864 50.5396 4.468C51.1996 4.06 51.9496 3.856 52.7896 3.856C53.4616 3.856 54.0496 3.982 54.5536 4.234C55.0576 4.486 55.4656 4.84 55.7776 5.296V0.0399995H58.0816V13H56.0296L55.7776 11.722C55.4896 12.118 55.1056 12.466 54.6256 12.766C54.1576 13.066 53.5456 13.216 52.7896 13.216ZM53.2756 11.2C54.0196 11.2 54.6256 10.954 55.0936 10.462C55.5736 9.958 55.8136 9.316 55.8136 8.536C55.8136 7.756 55.5736 7.12 55.0936 6.628C54.6256 6.124 54.0196 5.872 53.2756 5.872C52.5436 5.872 51.9376 6.118 51.4576 6.61C50.9776 7.102 50.7376 7.738 50.7376 8.518C50.7376 9.298 50.9776 9.94 51.4576 10.444C51.9376 10.948 52.5436 11.2 53.2756 11.2ZM63.5058 13.216C62.7378 13.216 62.1078 13.096 61.6158 12.856C61.1238 12.604 60.7578 12.274 60.5178 11.866C60.2778 11.458 60.1578 11.008 60.1578 10.516C60.1578 9.688 60.4818 9.016 61.1298 8.5C61.7778 7.984 62.7498 7.726 64.0458 7.726H66.3138V7.51C66.3138 6.898 66.1398 6.448 65.7918 6.16C65.4438 5.872 65.0118 5.728 64.4958 5.728C64.0278 5.728 63.6198 5.842 63.2718 6.07C62.9238 6.286 62.7078 6.61 62.6238 7.042H60.3738C60.4338 6.394 60.6498 5.83 61.0218 5.35C61.4058 4.87 61.8978 4.504 62.4978 4.252C63.0978 3.988 63.7698 3.856 64.5138 3.856C65.7858 3.856 66.7878 4.174 67.5198 4.81C68.2518 5.446 68.6178 6.346 68.6178 7.51V13H66.6558L66.4398 11.56C66.1758 12.04 65.8038 12.436 65.3238 12.748C64.8558 13.06 64.2498 13.216 63.5058 13.216ZM64.0278 11.416C64.6878 11.416 65.1978 11.2 65.5578 10.768C65.9298 10.336 66.1638 9.802 66.2598 9.166H64.2978C63.6858 9.166 63.2478 9.28 62.9838 9.508C62.7198 9.724 62.5878 9.994 62.5878 10.318C62.5878 10.666 62.7198 10.936 62.9838 11.128C63.2478 11.32 63.5958 11.416 64.0278 11.416ZM74.5065 13.216C73.7145 13.216 73.0185 13.09 72.4185 12.838C71.8185 12.574 71.3385 12.214 70.9785 11.758C70.6185 11.302 70.4025 10.774 70.3305 10.174H72.6525C72.7245 10.522 72.9165 10.822 73.2285 11.074C73.5525 11.314 73.9665 11.434 74.4705 11.434C74.9745 11.434 75.3405 11.332 75.5685 11.128C75.8085 10.924 75.9285 10.69 75.9285 10.426C75.9285 10.042 75.7605 9.784 75.4245 9.652C75.0885 9.508 74.6205 9.37 74.0205 9.238C73.6365 9.154 73.2465 9.052 72.8505 8.932C72.4545 8.812 72.0885 8.662 71.7525 8.482C71.4285 8.29 71.1645 8.05 70.9605 7.762C70.7565 7.462 70.6545 7.096 70.6545 6.664C70.6545 5.872 70.9665 5.206 71.5905 4.666C72.2265 4.126 73.1145 3.856 74.2545 3.856C75.3105 3.856 76.1505 4.102 76.7745 4.594C77.4105 5.086 77.7885 5.764 77.9085 6.628H75.7305C75.5985 5.968 75.1005 5.638 74.2365 5.638C73.8045 5.638 73.4685 5.722 73.2285 5.89C73.0005 6.058 72.8865 6.268 72.8865 6.52C72.8865 6.784 73.0605 6.994 73.4085 7.15C73.7565 7.306 74.2185 7.45 74.7945 7.582C75.4185 7.726 75.9885 7.888 76.5045 8.068C77.0325 8.236 77.4525 8.494 77.7645 8.842C78.0765 9.178 78.2325 9.664 78.2325 10.3C78.2445 10.852 78.1005 11.35 77.8005 11.794C77.5005 12.238 77.0685 12.586 76.5045 12.838C75.9405 13.09 75.2745 13.216 74.5065 13.216Z" fill="#FF9536"/>
</svg>
