<svg width="320" height="275" viewBox="0 0 320 275" fill="none" xmlns="http://www.w3.org/2000/svg">
<g opacity="0.5" filter="url(#filter0_d)">
<rect x="263" y="16" width="190" height="247" rx="8" fill="white"/>
</g>
<g opacity="0.5" filter="url(#filter1_d)">
<rect x="-133" y="16" width="190" height="247" rx="8" fill="white"/>
</g>
<g filter="url(#filter2_d)">
<rect x="65" y="16" width="190" height="247" rx="8" fill="white"/>
</g>
<path d="M124.994 61V51.2H128.424C129.189 51.2 129.824 51.3307 130.328 51.592C130.832 51.844 131.205 52.194 131.448 52.642C131.7 53.0807 131.826 53.58 131.826 54.14C131.826 54.672 131.705 55.162 131.462 55.61C131.229 56.0487 130.86 56.3987 130.356 56.66C129.852 56.9213 129.208 57.052 128.424 57.052H126.478V61H124.994ZM126.478 55.834H128.354C129.054 55.834 129.553 55.6847 129.852 55.386C130.16 55.078 130.314 54.6627 130.314 54.14C130.314 53.5987 130.16 53.1787 129.852 52.88C129.553 52.572 129.054 52.418 128.354 52.418H126.478V55.834ZM135.206 61.168C134.618 61.168 134.133 61.07 133.75 60.874C133.367 60.678 133.083 60.4213 132.896 60.104C132.709 59.7773 132.616 59.4227 132.616 59.04C132.616 58.368 132.877 57.836 133.4 57.444C133.923 57.052 134.669 56.856 135.64 56.856H137.46V56.73C137.46 56.1887 137.311 55.7827 137.012 55.512C136.723 55.2413 136.345 55.106 135.878 55.106C135.467 55.106 135.108 55.2087 134.8 55.414C134.501 55.61 134.319 55.904 134.254 56.296H132.77C132.817 55.792 132.985 55.3627 133.274 55.008C133.573 54.644 133.946 54.3687 134.394 54.182C134.851 53.986 135.351 53.888 135.892 53.888C136.863 53.888 137.614 54.1447 138.146 54.658C138.678 55.162 138.944 55.8527 138.944 56.73V61H137.656L137.53 59.81C137.334 60.1927 137.049 60.5147 136.676 60.776C136.303 61.0373 135.813 61.168 135.206 61.168ZM135.5 59.964C135.901 59.964 136.237 59.8707 136.508 59.684C136.788 59.488 137.003 59.2313 137.152 58.914C137.311 58.5967 137.409 58.2467 137.446 57.864H135.794C135.206 57.864 134.786 57.9667 134.534 58.172C134.291 58.3773 134.17 58.634 134.17 58.942C134.17 59.2593 134.287 59.5113 134.52 59.698C134.763 59.8753 135.089 59.964 135.5 59.964ZM143.516 58.872C143.152 58.872 142.816 58.83 142.508 58.746L141.906 59.334C142.009 59.3993 142.135 59.4553 142.284 59.502C142.434 59.5487 142.644 59.5907 142.914 59.628C143.185 59.6653 143.554 59.7027 144.02 59.74C144.944 59.824 145.612 60.048 146.022 60.412C146.433 60.7667 146.638 61.2427 146.638 61.84C146.638 62.2507 146.526 62.638 146.302 63.002C146.088 63.3753 145.747 63.674 145.28 63.898C144.823 64.1313 144.235 64.248 143.516 64.248C142.546 64.248 141.757 64.0613 141.15 63.688C140.553 63.324 140.254 62.7687 140.254 62.022C140.254 61.7327 140.329 61.4433 140.478 61.154C140.637 60.874 140.884 60.608 141.22 60.356C141.024 60.272 140.852 60.1833 140.702 60.09C140.562 59.9873 140.436 59.8847 140.324 59.782V59.446L141.528 58.214C140.987 57.7473 140.716 57.136 140.716 56.38C140.716 55.9227 140.824 55.5073 141.038 55.134C141.262 54.7513 141.584 54.448 142.004 54.224C142.424 54 142.928 53.888 143.516 53.888C143.908 53.888 144.272 53.944 144.608 54.056H147.198V55.036L145.966 55.106C146.19 55.4887 146.302 55.9133 146.302 56.38C146.302 56.8467 146.19 57.2667 145.966 57.64C145.752 58.0133 145.434 58.312 145.014 58.536C144.604 58.76 144.104 58.872 143.516 58.872ZM143.516 57.71C143.946 57.71 144.291 57.598 144.552 57.374C144.823 57.1407 144.958 56.814 144.958 56.394C144.958 55.9647 144.823 55.638 144.552 55.414C144.291 55.19 143.946 55.078 143.516 55.078C143.078 55.078 142.723 55.19 142.452 55.414C142.191 55.638 142.06 55.9647 142.06 56.394C142.06 56.814 142.191 57.1407 142.452 57.374C142.723 57.598 143.078 57.71 143.516 57.71ZM141.654 61.882C141.654 62.2833 141.832 62.582 142.186 62.778C142.541 62.9833 142.984 63.086 143.516 63.086C144.03 63.086 144.445 62.974 144.762 62.75C145.08 62.5353 145.238 62.246 145.238 61.882C145.238 61.6113 145.131 61.378 144.916 61.182C144.702 60.9953 144.296 60.8787 143.698 60.832C143.25 60.804 142.854 60.762 142.508 60.706C142.182 60.8833 141.958 61.0747 141.836 61.28C141.715 61.4853 141.654 61.686 141.654 61.882ZM151.497 61.168C150.834 61.168 150.237 61.0187 149.705 60.72C149.182 60.412 148.767 59.9873 148.459 59.446C148.151 58.8953 147.997 58.256 147.997 57.528C147.997 56.8 148.151 56.1653 148.459 55.624C148.776 55.0733 149.201 54.6487 149.733 54.35C150.265 54.042 150.857 53.888 151.511 53.888C152.173 53.888 152.766 54.042 153.289 54.35C153.821 54.6487 154.241 55.0733 154.549 55.624C154.866 56.1653 155.025 56.8 155.025 57.528C155.025 58.256 154.866 58.8953 154.549 59.446C154.241 59.9873 153.821 60.412 153.289 60.72C152.757 61.0187 152.159 61.168 151.497 61.168ZM151.497 59.894C151.851 59.894 152.178 59.8053 152.477 59.628C152.785 59.4507 153.032 59.1893 153.219 58.844C153.405 58.4893 153.499 58.0507 153.499 57.528C153.499 57.0053 153.405 56.5713 153.219 56.226C153.041 55.8713 152.799 55.6053 152.491 55.428C152.192 55.2507 151.865 55.162 151.511 55.162C151.156 55.162 150.825 55.2507 150.517 55.428C150.218 55.6053 149.975 55.8713 149.789 56.226C149.602 56.5713 149.509 57.0053 149.509 57.528C149.509 58.0507 149.602 58.4893 149.789 58.844C149.975 59.1893 150.218 59.4507 150.517 59.628C150.815 59.8053 151.142 59.894 151.497 59.894ZM159.583 61L163.195 51.2H164.819L168.403 61H166.835L165.995 58.606H161.991L161.151 61H159.583ZM162.411 57.43H165.575L163.993 52.964L162.411 57.43ZM169.713 61V54.056H171.029L171.141 55.274C171.356 54.8447 171.669 54.5087 172.079 54.266C172.499 54.014 172.98 53.888 173.521 53.888C174.361 53.888 175.019 54.1493 175.495 54.672C175.981 55.1947 176.223 55.974 176.223 57.01V61H174.753V57.164C174.753 55.82 174.203 55.148 173.101 55.148C172.551 55.148 172.093 55.344 171.729 55.736C171.375 56.128 171.197 56.688 171.197 57.416V61H169.713ZM184.355 54.056V61H183.039L182.927 59.782C182.713 60.2113 182.395 60.552 181.975 60.804C181.565 61.0467 181.089 61.168 180.547 61.168C179.707 61.168 179.045 60.9067 178.559 60.384C178.083 59.8613 177.845 59.082 177.845 58.046V54.056H179.315V57.892C179.315 59.236 179.866 59.908 180.967 59.908C181.518 59.908 181.971 59.712 182.325 59.32C182.689 58.928 182.871 58.368 182.871 57.64V54.056H184.355ZM188.581 61.168C187.993 61.168 187.508 61.07 187.125 60.874C186.742 60.678 186.458 60.4213 186.271 60.104C186.084 59.7773 185.991 59.4227 185.991 59.04C185.991 58.368 186.252 57.836 186.775 57.444C187.298 57.052 188.044 56.856 189.015 56.856H190.835V56.73C190.835 56.1887 190.686 55.7827 190.387 55.512C190.098 55.2413 189.72 55.106 189.253 55.106C188.842 55.106 188.483 55.2087 188.175 55.414C187.876 55.61 187.694 55.904 187.629 56.296H186.145C186.192 55.792 186.36 55.3627 186.649 55.008C186.948 54.644 187.321 54.3687 187.769 54.182C188.226 53.986 188.726 53.888 189.267 53.888C190.238 53.888 190.989 54.1447 191.521 54.658C192.053 55.162 192.319 55.8527 192.319 56.73V61H191.031L190.905 59.81C190.709 60.1927 190.424 60.5147 190.051 60.776C189.678 61.0373 189.188 61.168 188.581 61.168ZM188.875 59.964C189.276 59.964 189.612 59.8707 189.883 59.684C190.163 59.488 190.378 59.2313 190.527 58.914C190.686 58.5967 190.784 58.2467 190.821 57.864H189.169C188.581 57.864 188.161 57.9667 187.909 58.172C187.666 58.3773 187.545 58.634 187.545 58.942C187.545 59.2593 187.662 59.5113 187.895 59.698C188.138 59.8753 188.464 59.964 188.875 59.964ZM194.049 61V50.92H195.533V61H194.049Z" fill="black"/>
<path d="M87.5446 153.182H88.4693L88.3883 151.384L89.9054 152.359L90.3699 151.55L88.7591 150.727L90.3699 149.905L89.9054 149.095L88.3883 150.071L88.4693 148.273H87.5446L87.6255 150.071L86.1085 149.095L85.644 149.905L87.2548 150.727L85.644 151.55L86.1085 152.359L87.6255 151.384L87.5446 153.182ZM91.8113 157L92.6124 154.69H96.0215L96.8184 157H98.2161L95.0755 148.273H93.5542L90.4135 157H91.8113ZM92.9959 153.582L94.2828 149.858H94.351L95.638 153.582H92.9959ZM100.648 153.114C100.648 152.07 101.309 151.473 102.216 151.473C103.094 151.473 103.618 152.031 103.618 152.99V157H104.893V152.837C104.893 151.205 103.998 150.369 102.651 150.369C101.633 150.369 101.019 150.812 100.712 151.52H100.631V148.273H99.3741V157H100.648V153.114ZM109.35 157.132C111.195 157.132 112.401 155.781 112.401 153.757C112.401 151.72 111.195 150.369 109.35 150.369C107.505 150.369 106.299 151.72 106.299 153.757C106.299 155.781 107.505 157.132 109.35 157.132ZM109.354 156.062C108.148 156.062 107.586 155.01 107.586 153.753C107.586 152.5 108.148 151.435 109.354 151.435C110.552 151.435 111.114 152.5 111.114 153.753C111.114 155.01 110.552 156.062 109.354 156.062ZM113.823 157H115.097V153.003C115.097 152.146 115.758 151.528 116.661 151.528C116.926 151.528 117.224 151.575 117.326 151.605V150.386C117.198 150.369 116.947 150.357 116.785 150.357C116.018 150.357 115.362 150.791 115.123 151.494H115.055V150.455H113.823V157ZM118.429 157H119.703V153.003C119.703 152.146 120.363 151.528 121.267 151.528C121.531 151.528 121.829 151.575 121.932 151.605V150.386C121.804 150.369 121.552 150.357 121.39 150.357C120.623 150.357 119.967 150.791 119.729 151.494H119.66V150.455H118.429V157ZM124.881 157.145C125.963 157.145 126.572 156.595 126.815 156.105H126.866V157H128.111V152.653C128.111 150.749 126.611 150.369 125.571 150.369C124.386 150.369 123.295 150.847 122.869 152.04L124.067 152.312C124.254 151.848 124.731 151.401 125.588 151.401C126.41 151.401 126.832 151.831 126.832 152.572V152.602C126.832 153.067 126.355 153.058 125.179 153.195C123.939 153.339 122.669 153.663 122.669 155.151C122.669 156.438 123.636 157.145 124.881 157.145ZM125.157 156.122C124.437 156.122 123.917 155.798 123.917 155.168C123.917 154.486 124.523 154.243 125.26 154.145C125.673 154.089 126.653 153.979 126.836 153.795V154.639C126.836 155.415 126.219 156.122 125.157 156.122ZM134.713 152.053C134.448 151.034 133.651 150.369 132.237 150.369C130.758 150.369 129.71 151.149 129.71 152.308C129.71 153.237 130.272 153.855 131.499 154.128L132.607 154.371C133.238 154.511 133.532 154.793 133.532 155.202C133.532 155.709 132.991 156.105 132.156 156.105C131.393 156.105 130.903 155.777 130.749 155.134L129.518 155.321C129.731 156.48 130.694 157.132 132.164 157.132C133.745 157.132 134.84 156.293 134.84 155.108C134.84 154.183 134.252 153.612 133.051 153.335L132.011 153.097C131.291 152.926 130.98 152.683 130.984 152.24C130.98 151.737 131.525 151.379 132.249 151.379C133.042 151.379 133.409 151.818 133.558 152.257L134.713 152.053ZM142.029 158.091H142.83L142.835 157.132C144.637 157 145.669 155.969 145.669 154.588C145.669 153.016 144.267 152.406 143.159 152.134L142.847 152.053L142.856 149.317C143.653 149.423 144.198 149.866 144.279 150.565H145.549C145.515 149.266 144.441 148.294 142.86 148.166L142.865 147.182H142.063L142.059 148.175C140.529 148.328 139.409 149.283 139.409 150.659C139.409 151.874 140.278 152.585 141.68 152.964L142.046 153.062L142.038 155.964C141.207 155.862 140.563 155.411 140.495 154.588H139.174C139.255 156.058 140.316 157.004 142.034 157.132L142.029 158.091ZM142.839 155.964L142.847 153.284C143.713 153.523 144.365 153.838 144.365 154.575C144.365 155.321 143.742 155.845 142.839 155.964ZM142.051 151.839C141.416 151.652 140.717 151.315 140.721 150.582C140.721 149.943 141.228 149.445 142.055 149.321L142.051 151.839ZM150.434 148.273H149.151L146.974 149.696V150.957L149.062 149.594H149.113V157H150.434V148.273ZM152.795 157H158.539V155.871H154.61V155.807L156.344 153.991C157.942 152.376 158.398 151.605 158.398 150.629C158.398 149.227 157.256 148.153 155.611 148.153C153.979 148.153 152.786 149.21 152.786 150.804H154.043C154.039 149.866 154.644 149.253 155.586 149.253C156.472 149.253 157.145 149.798 157.145 150.668C157.145 151.439 156.685 151.993 155.748 152.986L152.795 156.045V157ZM163.056 148.132C161.224 148.119 160.026 149.432 160.026 151.102C160.026 152.773 161.236 153.974 162.749 153.974C163.674 153.974 164.466 153.523 164.914 152.79H164.982C164.978 154.797 164.224 155.969 162.945 155.969C162.11 155.969 161.573 155.457 161.403 154.712H160.103C160.295 156.122 161.385 157.119 162.945 157.119C164.974 157.119 166.239 155.376 166.243 152.321C166.239 149.112 164.611 148.145 163.056 148.132ZM163.06 149.24C164.07 149.24 164.816 150.097 164.816 151.072C164.816 152.048 164.032 152.901 163.035 152.901C162.033 152.901 161.305 152.099 161.305 151.085C161.305 150.054 162.059 149.24 163.06 149.24ZM173.733 157.132C175.28 157.132 176.281 156.203 176.422 154.929H175.182C175.02 155.636 174.47 156.054 173.741 156.054C172.663 156.054 171.969 155.155 171.969 153.727C171.969 152.325 172.676 151.443 173.741 151.443C174.551 151.443 175.045 151.955 175.182 152.568H176.422C176.285 151.247 175.207 150.369 173.72 150.369C171.875 150.369 170.682 151.759 170.682 153.757C170.682 155.73 171.832 157.132 173.733 157.132ZM180.541 157.132C182.387 157.132 183.593 155.781 183.593 153.757C183.593 151.72 182.387 150.369 180.541 150.369C178.696 150.369 177.49 151.72 177.49 153.757C177.49 155.781 178.696 157.132 180.541 157.132ZM180.546 156.062C179.34 156.062 178.777 155.01 178.777 153.753C178.777 152.5 179.34 151.435 180.546 151.435C181.743 151.435 182.306 152.5 182.306 153.753C182.306 155.01 181.743 156.062 180.546 156.062ZM185.015 157H186.289V152.964C186.289 152.082 186.907 151.469 187.631 151.469C188.339 151.469 188.829 151.938 188.829 152.649V157H190.099V152.828C190.099 152.04 190.58 151.469 191.411 151.469C192.084 151.469 192.638 151.844 192.638 152.73V157H193.912V152.611C193.912 151.115 193.077 150.369 191.893 150.369C190.951 150.369 190.243 150.821 189.928 151.52H189.86C189.574 150.804 188.974 150.369 188.1 150.369C187.235 150.369 186.591 150.8 186.319 151.52H186.238V150.455H185.015V157ZM195.62 159.455H196.894V155.982H196.971C197.201 156.399 197.67 157.128 198.863 157.128C200.448 157.128 201.599 155.858 201.599 153.74C201.599 151.618 200.431 150.369 198.85 150.369C197.636 150.369 197.197 151.111 196.971 151.516H196.865V150.455H195.62V159.455ZM196.869 153.727C196.869 152.359 197.465 151.452 198.578 151.452C199.732 151.452 200.312 152.428 200.312 153.727C200.312 155.04 199.715 156.041 198.578 156.041C197.482 156.041 196.869 155.104 196.869 153.727ZM204.931 157.145C206.014 157.145 206.623 156.595 206.866 156.105H206.917V157H208.161V152.653C208.161 150.749 206.661 150.369 205.622 150.369C204.437 150.369 203.346 150.847 202.92 152.04L204.117 152.312C204.305 151.848 204.782 151.401 205.639 151.401C206.461 151.401 206.883 151.831 206.883 152.572V152.602C206.883 153.067 206.406 153.058 205.23 153.195C203.99 153.339 202.72 153.663 202.72 155.151C202.72 156.438 203.687 157.145 204.931 157.145ZM205.208 156.122C204.488 156.122 203.968 155.798 203.968 155.168C203.968 154.486 204.573 154.243 205.311 154.145C205.724 154.089 206.704 153.979 206.887 153.795V154.639C206.887 155.415 206.269 156.122 205.208 156.122ZM209.858 157H211.133V153.003C211.133 152.146 211.793 151.528 212.697 151.528C212.961 151.528 213.259 151.575 213.361 151.605V150.386C213.233 150.369 212.982 150.357 212.82 150.357C212.053 150.357 211.397 150.791 211.158 151.494H211.09V150.455H209.858V157ZM216.31 157.145C217.393 157.145 218.002 156.595 218.245 156.105H218.296V157H219.54V152.653C219.54 150.749 218.04 150.369 217.001 150.369C215.816 150.369 214.725 150.847 214.299 152.04L215.496 152.312C215.684 151.848 216.161 151.401 217.018 151.401C217.84 151.401 218.262 151.831 218.262 152.572V152.602C218.262 153.067 217.785 153.058 216.608 153.195C215.368 153.339 214.099 153.663 214.099 155.151C214.099 156.438 215.066 157.145 216.31 157.145ZM216.587 156.122C215.867 156.122 215.347 155.798 215.347 155.168C215.347 154.486 215.952 154.243 216.689 154.145C217.103 154.089 218.083 153.979 218.266 153.795V154.639C218.266 155.415 217.648 156.122 216.587 156.122ZM223.688 157.128C224.881 157.128 225.35 156.399 225.58 155.982H225.686V157H226.931V148.273H225.656V151.516H225.58C225.35 151.111 224.915 150.369 223.696 150.369C222.115 150.369 220.952 151.618 220.952 153.74C220.952 155.858 222.098 157.128 223.688 157.128ZM223.969 156.041C222.831 156.041 222.239 155.04 222.239 153.727C222.239 152.428 222.818 151.452 223.969 151.452C225.081 151.452 225.678 152.359 225.678 153.727C225.678 155.104 225.068 156.041 223.969 156.041ZM231.506 157.132C233.351 157.132 234.557 155.781 234.557 153.757C234.557 151.72 233.351 150.369 231.506 150.369C229.661 150.369 228.455 151.72 228.455 153.757C228.455 155.781 229.661 157.132 231.506 157.132ZM231.51 156.062C230.305 156.062 229.742 155.01 229.742 153.753C229.742 152.5 230.305 151.435 231.51 151.435C232.708 151.435 233.27 152.5 233.27 153.753C233.27 155.01 232.708 156.062 231.51 156.062ZM116.672 172.145C117.754 172.145 118.363 171.595 118.606 171.105H118.657V172H119.902V167.653C119.902 165.749 118.402 165.369 117.362 165.369C116.177 165.369 115.086 165.847 114.66 167.04L115.858 167.312C116.045 166.848 116.522 166.401 117.379 166.401C118.201 166.401 118.623 166.831 118.623 167.572V167.602C118.623 168.067 118.146 168.058 116.97 168.195C115.73 168.339 114.46 168.663 114.46 170.151C114.46 171.438 115.427 172.145 116.672 172.145ZM116.949 171.122C116.228 171.122 115.708 170.798 115.708 170.168C115.708 169.486 116.314 169.243 117.051 169.145C117.464 169.089 118.444 168.979 118.627 168.795V169.639C118.627 170.415 118.01 171.122 116.949 171.122ZM122.873 163.273H121.599V172H122.873V163.273ZM127.763 174.455H129.037V170.982H129.114C129.344 171.399 129.812 172.128 131.006 172.128C132.591 172.128 133.741 170.858 133.741 168.74C133.741 166.618 132.574 165.369 130.993 165.369C129.778 165.369 129.339 166.111 129.114 166.516H129.007V165.455H127.763V174.455ZM129.011 168.727C129.011 167.359 129.608 166.452 130.72 166.452C131.875 166.452 132.455 167.428 132.455 168.727C132.455 170.04 131.858 171.041 130.72 171.041C129.625 171.041 129.011 170.104 129.011 168.727ZM136.443 163.273H135.169V172H136.443V163.273ZM140.062 172.145C141.145 172.145 141.754 171.595 141.997 171.105H142.048V172H143.292V167.653C143.292 165.749 141.792 165.369 140.752 165.369C139.568 165.369 138.477 165.847 138.051 167.04L139.248 167.312C139.436 166.848 139.913 166.401 140.77 166.401C141.592 166.401 142.014 166.831 142.014 167.572V167.602C142.014 168.067 141.537 168.058 140.36 168.195C139.12 168.339 137.85 168.663 137.85 170.151C137.85 171.438 138.818 172.145 140.062 172.145ZM140.339 171.122C139.619 171.122 139.099 170.798 139.099 170.168C139.099 169.486 139.704 169.243 140.441 169.145C140.855 169.089 141.835 168.979 142.018 168.795V169.639C142.018 170.415 141.4 171.122 140.339 171.122ZM146.263 168.114C146.263 167.07 146.903 166.473 147.789 166.473C148.654 166.473 149.178 167.04 149.178 167.99V172H150.452V167.837C150.452 166.217 149.562 165.369 148.224 165.369C147.239 165.369 146.596 165.825 146.293 166.52H146.212V165.455H144.989V172H146.263V168.114ZM155.337 172H156.611V167.964C156.611 167.082 157.229 166.469 157.953 166.469C158.661 166.469 159.151 166.938 159.151 167.649V172H160.421V167.828C160.421 167.04 160.902 166.469 161.733 166.469C162.407 166.469 162.961 166.844 162.961 167.73V172H164.235V167.611C164.235 166.115 163.4 165.369 162.215 165.369C161.273 165.369 160.566 165.821 160.25 166.52H160.182C159.897 165.804 159.296 165.369 158.422 165.369C157.557 165.369 156.914 165.8 156.641 166.52H156.56V165.455H155.337V172ZM168.763 172.132C170.191 172.132 171.201 171.429 171.491 170.364L170.285 170.146C170.055 170.764 169.501 171.08 168.776 171.08C167.685 171.08 166.952 170.372 166.918 169.111H171.572V168.659C171.572 166.294 170.157 165.369 168.674 165.369C166.85 165.369 165.648 166.759 165.648 168.77C165.648 170.803 166.833 172.132 168.763 172.132ZM166.923 168.156C166.974 167.227 167.647 166.422 168.683 166.422C169.671 166.422 170.319 167.155 170.323 168.156H166.923ZM174.26 168.114C174.26 167.07 174.899 166.473 175.785 166.473C176.65 166.473 177.174 167.04 177.174 167.99V172H178.449V167.837C178.449 166.217 177.558 165.369 176.22 165.369C175.235 165.369 174.592 165.825 174.289 166.52H174.208V165.455H172.985V172H174.26V168.114ZM185.062 167.053C184.798 166.034 184.001 165.369 182.586 165.369C181.108 165.369 180.059 166.149 180.059 167.308C180.059 168.237 180.622 168.855 181.849 169.128L182.957 169.371C183.588 169.511 183.882 169.793 183.882 170.202C183.882 170.709 183.341 171.105 182.505 171.105C181.743 171.105 181.252 170.777 181.099 170.134L179.868 170.321C180.081 171.48 181.044 172.132 182.514 172.132C184.095 172.132 185.19 171.293 185.19 170.108C185.19 169.183 184.602 168.612 183.4 168.335L182.36 168.097C181.64 167.926 181.329 167.683 181.333 167.24C181.329 166.737 181.875 166.379 182.599 166.379C183.392 166.379 183.758 166.818 183.907 167.257L185.062 167.053ZM190.737 169.286C190.741 170.398 189.915 170.926 189.199 170.926C188.411 170.926 187.865 170.355 187.865 169.464V165.455H186.591V169.618C186.591 171.241 187.482 172.085 188.739 172.085C189.723 172.085 190.392 171.565 190.695 170.866H190.763V172H192.016V165.455H190.737V169.286ZM195.632 172.145C196.715 172.145 197.324 171.595 197.567 171.105H197.618V172H198.863V167.653C198.863 165.749 197.363 165.369 196.323 165.369C195.138 165.369 194.047 165.847 193.621 167.04L194.819 167.312C195.006 166.848 195.483 166.401 196.34 166.401C197.162 166.401 197.584 166.831 197.584 167.572V167.602C197.584 168.067 197.107 168.058 195.931 168.195C194.691 168.339 193.421 168.663 193.421 170.151C193.421 171.438 194.388 172.145 195.632 172.145ZM195.909 171.122C195.189 171.122 194.669 170.798 194.669 170.168C194.669 169.486 195.275 169.243 196.012 169.145C196.425 169.089 197.405 168.979 197.588 168.795V169.639C197.588 170.415 196.971 171.122 195.909 171.122ZM201.834 163.273H200.56V172H201.834V163.273ZM204.387 172.081C204.852 172.081 205.24 171.702 205.24 171.229C205.24 170.764 204.852 170.381 204.387 170.381C203.919 170.381 203.535 170.764 203.535 171.229C203.535 171.702 203.919 172.081 204.387 172.081Z" fill="#757575"/>
<path d="M143.749 84.554C135.291 84.517 129.585 90.0568 129.622 97.7386C129.585 104.83 134.534 109.945 141.237 109.945C145.392 109.945 149.085 107.932 150.766 104.608H151.024C151.006 112.105 148.402 116.666 143.472 116.666C140.572 116.666 138.486 115.078 137.876 112.327H129.991C130.73 118.697 135.901 123.517 143.472 123.517C152.834 123.517 158.835 115.946 158.854 103.112C158.835 89.2812 151.523 84.5724 143.749 84.554ZM143.804 90.8324C147.479 90.8324 150.193 93.8239 150.23 97.4801C150.193 101.155 147.386 104.146 143.73 104.146C140.037 104.146 137.341 101.266 137.378 97.517C137.341 93.7315 140.092 90.8324 143.804 90.8324ZM173.917 84.554C165.459 84.517 159.753 90.0568 159.79 97.7386C159.753 104.83 164.702 109.945 171.405 109.945C175.56 109.945 179.253 107.932 180.934 104.608H181.192C181.174 112.105 178.57 116.666 173.64 116.666C170.741 116.666 168.654 115.078 168.045 112.327H160.16C160.898 118.697 166.069 123.517 173.64 123.517C183.002 123.517 189.003 115.946 189.022 103.112C189.003 89.2812 181.691 84.5724 173.917 84.554ZM173.972 90.8324C177.647 90.8324 180.361 93.8239 180.398 97.4801C180.361 101.155 177.554 104.146 173.898 104.146C170.205 104.146 167.509 101.266 167.546 97.517C167.509 93.7315 170.26 90.8324 173.972 90.8324Z" fill="black"/>
<path d="M118.607 95.0909H119.409L119.413 94.1321C121.215 94 122.247 92.9688 122.247 91.5881C122.247 90.0156 120.845 89.4062 119.737 89.1335L119.426 89.0526L119.434 86.3168C120.231 86.4233 120.776 86.8665 120.857 87.5653H122.127C122.093 86.2656 121.019 85.294 119.438 85.1662L119.443 84.1818H118.642L118.637 85.1747C117.107 85.3281 115.987 86.2827 115.987 87.6591C115.987 88.8736 116.856 89.5852 118.258 89.9645L118.624 90.0625L118.616 92.9645C117.785 92.8622 117.142 92.4105 117.073 91.5881H115.752C115.833 93.0582 116.894 94.0043 118.612 94.1321L118.607 95.0909ZM119.417 92.9645L119.426 90.2841C120.291 90.5227 120.943 90.8381 120.943 91.5753C120.943 92.321 120.32 92.8452 119.417 92.9645ZM118.629 88.8395C117.994 88.652 117.295 88.3153 117.299 87.5824C117.299 86.9432 117.806 86.4446 118.633 86.321L118.629 88.8395Z" fill="#363636"/>
<rect x="86" y="192" width="149" height="46" rx="3" fill="#FAF8F7"/>
<path d="M102.235 220V210.2H108.633V211.642H104.027V214.33H108.213V215.73H104.027V218.558H108.633V220H102.235ZM113.157 220.168C112.541 220.168 112 220.07 111.533 219.874C111.066 219.669 110.693 219.389 110.413 219.034C110.133 218.679 109.965 218.269 109.909 217.802H111.715C111.771 218.073 111.92 218.306 112.163 218.502C112.415 218.689 112.737 218.782 113.129 218.782C113.521 218.782 113.806 218.703 113.983 218.544C114.17 218.385 114.263 218.203 114.263 217.998C114.263 217.699 114.132 217.499 113.871 217.396C113.61 217.284 113.246 217.177 112.779 217.074C112.48 217.009 112.177 216.929 111.869 216.836C111.561 216.743 111.276 216.626 111.015 216.486C110.763 216.337 110.558 216.15 110.399 215.926C110.24 215.693 110.161 215.408 110.161 215.072C110.161 214.456 110.404 213.938 110.889 213.518C111.384 213.098 112.074 212.888 112.961 212.888C113.782 212.888 114.436 213.079 114.921 213.462C115.416 213.845 115.71 214.372 115.803 215.044H114.109C114.006 214.531 113.619 214.274 112.947 214.274C112.611 214.274 112.35 214.339 112.163 214.47C111.986 214.601 111.897 214.764 111.897 214.96C111.897 215.165 112.032 215.329 112.303 215.45C112.574 215.571 112.933 215.683 113.381 215.786C113.866 215.898 114.31 216.024 114.711 216.164C115.122 216.295 115.448 216.495 115.691 216.766C115.934 217.027 116.055 217.405 116.055 217.9C116.064 218.329 115.952 218.717 115.719 219.062C115.486 219.407 115.15 219.678 114.711 219.874C114.272 220.07 113.754 220.168 113.157 220.168ZM121.044 220.168C120.335 220.168 119.71 220.014 119.168 219.706C118.627 219.398 118.198 218.969 117.88 218.418C117.572 217.867 117.418 217.237 117.418 216.528C117.418 215.819 117.572 215.189 117.88 214.638C118.198 214.087 118.627 213.658 119.168 213.35C119.71 213.042 120.335 212.888 121.044 212.888C121.931 212.888 122.678 213.121 123.284 213.588C123.891 214.045 124.278 214.68 124.446 215.492H122.556C122.463 215.156 122.276 214.895 121.996 214.708C121.726 214.512 121.404 214.414 121.03 214.414C120.536 214.414 120.116 214.601 119.77 214.974C119.425 215.347 119.252 215.865 119.252 216.528C119.252 217.191 119.425 217.709 119.77 218.082C120.116 218.455 120.536 218.642 121.03 218.642C121.404 218.642 121.726 218.549 121.996 218.362C122.276 218.175 122.463 217.909 122.556 217.564H124.446C124.278 218.348 123.891 218.978 123.284 219.454C122.678 219.93 121.931 220.168 121.044 220.168ZM129.369 220.168C128.697 220.168 128.09 220.014 127.549 219.706C127.017 219.398 126.592 218.973 126.275 218.432C125.967 217.881 125.813 217.247 125.813 216.528C125.813 215.809 125.972 215.179 126.289 214.638C126.606 214.087 127.031 213.658 127.563 213.35C128.104 213.042 128.711 212.888 129.383 212.888C130.046 212.888 130.643 213.042 131.175 213.35C131.716 213.658 132.141 214.087 132.449 214.638C132.766 215.179 132.925 215.809 132.925 216.528C132.925 217.247 132.766 217.881 132.449 218.432C132.141 218.973 131.716 219.398 131.175 219.706C130.634 220.014 130.032 220.168 129.369 220.168ZM129.369 218.614C129.836 218.614 130.242 218.441 130.587 218.096C130.932 217.741 131.105 217.219 131.105 216.528C131.105 215.837 130.932 215.319 130.587 214.974C130.242 214.619 129.84 214.442 129.383 214.442C128.907 214.442 128.496 214.619 128.151 214.974C127.815 215.319 127.647 215.837 127.647 216.528C127.647 217.219 127.815 217.741 128.151 218.096C128.496 218.441 128.902 218.614 129.369 218.614ZM137.03 217.928C136.694 217.928 136.381 217.891 136.092 217.816L135.574 218.334C135.732 218.418 135.947 218.488 136.218 218.544C136.488 218.6 136.927 218.656 137.534 218.712C138.458 218.796 139.13 219.015 139.55 219.37C139.97 219.725 140.18 220.215 140.18 220.84C140.18 221.251 140.068 221.638 139.844 222.002C139.62 222.375 139.274 222.674 138.808 222.898C138.341 223.131 137.744 223.248 137.016 223.248C136.026 223.248 135.228 223.061 134.622 222.688C134.015 222.324 133.712 221.773 133.712 221.036C133.712 220.411 134.015 219.869 134.622 219.412C134.435 219.328 134.272 219.239 134.132 219.146C134.001 219.053 133.884 218.955 133.782 218.852V218.53L135 217.242C134.458 216.766 134.188 216.155 134.188 215.408C134.188 214.941 134.3 214.517 134.524 214.134C134.757 213.751 135.084 213.448 135.504 213.224C135.924 213 136.432 212.888 137.03 212.888C137.422 212.888 137.786 212.944 138.122 213.056H140.754V214.148L139.564 214.232C139.75 214.587 139.844 214.979 139.844 215.408C139.844 215.875 139.732 216.299 139.508 216.682C139.284 217.065 138.957 217.368 138.528 217.592C138.108 217.816 137.608 217.928 137.03 217.928ZM137.03 216.556C137.394 216.556 137.692 216.458 137.926 216.262C138.168 216.066 138.29 215.786 138.29 215.422C138.29 215.058 138.168 214.778 137.926 214.582C137.692 214.386 137.394 214.288 137.03 214.288C136.647 214.288 136.339 214.386 136.106 214.582C135.872 214.778 135.756 215.058 135.756 215.422C135.756 215.786 135.872 216.066 136.106 216.262C136.339 216.458 136.647 216.556 137.03 216.556ZM135.35 220.854C135.35 221.199 135.508 221.456 135.826 221.624C136.152 221.801 136.549 221.89 137.016 221.89C137.464 221.89 137.828 221.797 138.108 221.61C138.388 221.433 138.528 221.19 138.528 220.882C138.528 220.63 138.434 220.42 138.248 220.252C138.07 220.084 137.711 219.981 137.17 219.944C136.787 219.916 136.432 219.874 136.106 219.818C135.835 219.967 135.639 220.131 135.518 220.308C135.406 220.485 135.35 220.667 135.35 220.854ZM145.161 220.168C144.461 220.168 143.84 220.019 143.299 219.72C142.758 219.421 142.333 219.001 142.025 218.46C141.717 217.919 141.563 217.293 141.563 216.584C141.563 215.865 141.712 215.226 142.011 214.666C142.319 214.106 142.739 213.672 143.271 213.364C143.812 213.047 144.447 212.888 145.175 212.888C145.856 212.888 146.458 213.037 146.981 213.336C147.504 213.635 147.91 214.045 148.199 214.568C148.498 215.081 148.647 215.655 148.647 216.29C148.647 216.393 148.642 216.5 148.633 216.612C148.633 216.724 148.628 216.841 148.619 216.962H143.341C143.378 217.503 143.565 217.928 143.901 218.236C144.246 218.544 144.662 218.698 145.147 218.698C145.511 218.698 145.814 218.619 146.057 218.46C146.309 218.292 146.496 218.077 146.617 217.816H148.437C148.306 218.255 148.087 218.656 147.779 219.02C147.48 219.375 147.107 219.655 146.659 219.86C146.22 220.065 145.721 220.168 145.161 220.168ZM145.175 214.344C144.736 214.344 144.349 214.47 144.013 214.722C143.677 214.965 143.462 215.338 143.369 215.842H146.827C146.799 215.385 146.631 215.021 146.323 214.75C146.015 214.479 145.632 214.344 145.175 214.344ZM150.154 220V213.056H151.75L151.918 214.358C152.17 213.91 152.511 213.555 152.94 213.294C153.379 213.023 153.892 212.888 154.48 212.888V214.778H153.976C153.584 214.778 153.234 214.839 152.926 214.96C152.618 215.081 152.375 215.291 152.198 215.59C152.03 215.889 151.946 216.304 151.946 216.836V220H150.154ZM162.415 220.168C161.715 220.168 161.094 220.019 160.553 219.72C160.012 219.421 159.587 219.001 159.279 218.46C158.971 217.919 158.817 217.293 158.817 216.584C158.817 215.865 158.966 215.226 159.265 214.666C159.573 214.106 159.993 213.672 160.525 213.364C161.066 213.047 161.701 212.888 162.429 212.888C163.11 212.888 163.712 213.037 164.235 213.336C164.758 213.635 165.164 214.045 165.453 214.568C165.752 215.081 165.901 215.655 165.901 216.29C165.901 216.393 165.896 216.5 165.887 216.612C165.887 216.724 165.882 216.841 165.873 216.962H160.595C160.632 217.503 160.819 217.928 161.155 218.236C161.5 218.544 161.916 218.698 162.401 218.698C162.765 218.698 163.068 218.619 163.311 218.46C163.563 218.292 163.75 218.077 163.871 217.816H165.691C165.56 218.255 165.341 218.656 165.033 219.02C164.734 219.375 164.361 219.655 163.913 219.86C163.474 220.065 162.975 220.168 162.415 220.168ZM162.429 214.344C161.99 214.344 161.603 214.47 161.267 214.722C160.931 214.965 160.716 215.338 160.623 215.842H164.081C164.053 215.385 163.885 215.021 163.577 214.75C163.269 214.479 162.886 214.344 162.429 214.344ZM170.278 220.168C169.662 220.168 169.121 220.07 168.654 219.874C168.187 219.669 167.814 219.389 167.534 219.034C167.254 218.679 167.086 218.269 167.03 217.802H168.836C168.892 218.073 169.041 218.306 169.284 218.502C169.536 218.689 169.858 218.782 170.25 218.782C170.642 218.782 170.927 218.703 171.104 218.544C171.291 218.385 171.384 218.203 171.384 217.998C171.384 217.699 171.253 217.499 170.992 217.396C170.731 217.284 170.367 217.177 169.9 217.074C169.601 217.009 169.298 216.929 168.99 216.836C168.682 216.743 168.397 216.626 168.136 216.486C167.884 216.337 167.679 216.15 167.52 215.926C167.361 215.693 167.282 215.408 167.282 215.072C167.282 214.456 167.525 213.938 168.01 213.518C168.505 213.098 169.195 212.888 170.082 212.888C170.903 212.888 171.557 213.079 172.042 213.462C172.537 213.845 172.831 214.372 172.924 215.044H171.23C171.127 214.531 170.74 214.274 170.068 214.274C169.732 214.274 169.471 214.339 169.284 214.47C169.107 214.601 169.018 214.764 169.018 214.96C169.018 215.165 169.153 215.329 169.424 215.45C169.695 215.571 170.054 215.683 170.502 215.786C170.987 215.898 171.431 216.024 171.832 216.164C172.243 216.295 172.569 216.495 172.812 216.766C173.055 217.027 173.176 217.405 173.176 217.9C173.185 218.329 173.073 218.717 172.84 219.062C172.607 219.407 172.271 219.678 171.832 219.874C171.393 220.07 170.875 220.168 170.278 220.168ZM177.639 220C176.911 220 176.327 219.823 175.889 219.468C175.45 219.113 175.231 218.483 175.231 217.578V214.554H174.041V213.056H175.231L175.441 211.194H177.023V213.056H178.899V214.554H177.023V217.592C177.023 217.928 177.093 218.161 177.233 218.292C177.382 218.413 177.634 218.474 177.989 218.474H178.857V220H177.639ZM183.634 220.168C182.934 220.168 182.313 220.019 181.772 219.72C181.23 219.421 180.806 219.001 180.498 218.46C180.19 217.919 180.036 217.293 180.036 216.584C180.036 215.865 180.185 215.226 180.484 214.666C180.792 214.106 181.212 213.672 181.744 213.364C182.285 213.047 182.92 212.888 183.648 212.888C184.329 212.888 184.931 213.037 185.454 213.336C185.976 213.635 186.382 214.045 186.672 214.568C186.97 215.081 187.12 215.655 187.12 216.29C187.12 216.393 187.115 216.5 187.106 216.612C187.106 216.724 187.101 216.841 187.092 216.962H181.814C181.851 217.503 182.038 217.928 182.374 218.236C182.719 218.544 183.134 218.698 183.62 218.698C183.984 218.698 184.287 218.619 184.53 218.46C184.782 218.292 184.968 218.077 185.09 217.816H186.91C186.779 218.255 186.56 218.656 186.252 219.02C185.953 219.375 185.58 219.655 185.132 219.86C184.693 220.065 184.194 220.168 183.634 220.168ZM183.648 214.344C183.209 214.344 182.822 214.47 182.486 214.722C182.15 214.965 181.935 215.338 181.842 215.842H185.3C185.272 215.385 185.104 215.021 184.796 214.75C184.488 214.479 184.105 214.344 183.648 214.344Z" fill="#201E1C"/>
<path d="M201 215H215" stroke="#F7931A" stroke-width="2" stroke-linecap="round" stroke-linejoin="round"/>
<path d="M208 208L215 215L208 222" stroke="#F7931A" stroke-width="2" stroke-linecap="round" stroke-linejoin="round"/>
<rect x="86" y="192" width="149" height="46" rx="3" stroke="#F7931A" stroke-width="2"/>
<rect x="110" width="101" height="31" rx="8" fill="#F7931A"/>
<path d="M119.007 20H120.852V16.9062H122.198L123.852 20H125.889L124.035 16.608C125.028 16.1818 125.578 15.3168 125.578 14.1236C125.578 12.3892 124.431 11.2727 122.45 11.2727H119.007V20ZM120.852 15.4233V12.7812H122.096C123.161 12.7812 123.677 13.2543 123.677 14.1236C123.677 14.9886 123.161 15.4233 122.105 15.4233H120.852ZM129.725 20.1278C131.344 20.1278 132.435 19.3395 132.691 18.125L131.012 18.0142C130.829 18.5128 130.36 18.7727 129.755 18.7727C128.847 18.7727 128.272 18.1719 128.272 17.196V17.1918H132.729V16.6932C132.729 14.4688 131.383 13.3693 129.653 13.3693C127.726 13.3693 126.478 14.7372 126.478 16.7571C126.478 18.8324 127.709 20.1278 129.725 20.1278ZM128.272 16.0668C128.31 15.321 128.877 14.7244 129.682 14.7244C130.471 14.7244 131.016 15.2869 131.02 16.0668H128.272ZM136.871 20.1278C138.614 20.1278 139.709 19.1051 139.795 17.6009H138.081C137.975 18.2997 137.515 18.6918 136.893 18.6918C136.045 18.6918 135.495 17.9801 135.495 16.7273C135.495 15.4915 136.049 14.7841 136.893 14.7841C137.557 14.7841 137.983 15.223 138.081 15.875H139.795C139.718 14.3622 138.572 13.3693 136.863 13.3693C134.877 13.3693 133.65 14.7457 133.65 16.7528C133.65 18.7429 134.856 20.1278 136.871 20.1278ZM143.914 20.1278C145.9 20.1278 147.136 18.7685 147.136 16.7528C147.136 14.7244 145.9 13.3693 143.914 13.3693C141.928 13.3693 140.693 14.7244 140.693 16.7528C140.693 18.7685 141.928 20.1278 143.914 20.1278ZM143.923 18.7216C143.007 18.7216 142.538 17.8821 142.538 16.7401C142.538 15.598 143.007 14.7543 143.923 14.7543C144.822 14.7543 145.291 15.598 145.291 16.7401C145.291 17.8821 144.822 18.7216 143.923 18.7216ZM148.316 20H150.132V16.071C150.132 15.3466 150.592 14.8651 151.197 14.8651C151.794 14.8651 152.194 15.2741 152.194 15.9176V20H153.954V16.0028C153.954 15.3253 154.342 14.8651 155.002 14.8651C155.582 14.8651 156.017 15.2273 156.017 15.956V20H157.828V15.598C157.828 14.179 156.984 13.3693 155.765 13.3693C154.806 13.3693 154.061 13.8594 153.792 14.6094H153.724C153.515 13.8509 152.846 13.3693 151.947 13.3693C151.065 13.3693 150.396 13.8381 150.123 14.6094H150.046V13.4545H148.316V20ZM162.244 20.1278C163.864 20.1278 164.955 19.3395 165.21 18.125L163.531 18.0142C163.348 18.5128 162.879 18.7727 162.274 18.7727C161.367 18.7727 160.791 18.1719 160.791 17.196V17.1918H165.249V16.6932C165.249 14.4688 163.902 13.3693 162.172 13.3693C160.246 13.3693 158.997 14.7372 158.997 16.7571C158.997 18.8324 160.229 20.1278 162.244 20.1278ZM160.791 16.0668C160.83 15.321 161.396 14.7244 162.202 14.7244C162.99 14.7244 163.536 15.2869 163.54 16.0668H160.791ZM168.249 16.2159C168.253 15.3722 168.756 14.8778 169.489 14.8778C170.218 14.8778 170.656 15.3551 170.652 16.1562V20H172.468V15.8324C172.468 14.3068 171.573 13.3693 170.209 13.3693C169.237 13.3693 168.534 13.8466 168.24 14.6094H168.164V13.4545H166.433V20H168.249V16.2159ZM176.31 20.1065C177.367 20.1065 177.917 19.4972 178.168 18.9517H178.245V20H180.035V11.2727H178.224V14.554H178.168C177.925 14.0213 177.401 13.3693 176.306 13.3693C174.87 13.3693 173.655 14.4858 173.655 16.7358C173.655 18.9261 174.819 20.1065 176.31 20.1065ZM176.885 18.6619C175.995 18.6619 175.509 17.8693 175.509 16.7273C175.509 15.5938 175.986 14.8139 176.885 14.8139C177.768 14.8139 178.262 15.5597 178.262 16.7273C178.262 17.8949 177.759 18.6619 176.885 18.6619ZM183.394 20.1236C184.361 20.1236 184.987 19.7017 185.307 19.0923H185.358V20H187.08V15.5852C187.08 14.0256 185.759 13.3693 184.301 13.3693C182.733 13.3693 181.702 14.1193 181.45 15.3125L183.129 15.4489C183.253 15.0142 183.641 14.6946 184.293 14.6946C184.911 14.6946 185.264 15.0057 185.264 15.5426V15.5682C185.264 15.9901 184.817 16.0455 183.679 16.1562C182.384 16.2756 181.22 16.7102 181.22 18.1719C181.22 19.4673 182.145 20.1236 183.394 20.1236ZM183.914 18.8707C183.355 18.8707 182.955 18.6108 182.955 18.1122C182.955 17.6009 183.377 17.3494 184.016 17.2599C184.412 17.2045 185.06 17.1108 185.277 16.9659V17.6605C185.277 18.3466 184.71 18.8707 183.914 18.8707ZM190.9 20.1065C191.957 20.1065 192.507 19.4972 192.758 18.9517H192.835V20H194.624V11.2727H192.813V14.554H192.758C192.515 14.0213 191.991 13.3693 190.896 13.3693C189.46 13.3693 188.245 14.4858 188.245 16.7358C188.245 18.9261 189.409 20.1065 190.9 20.1065ZM191.475 18.6619C190.585 18.6619 190.099 17.8693 190.099 16.7273C190.099 15.5938 190.576 14.8139 191.475 14.8139C192.357 14.8139 192.852 15.5597 192.852 16.7273C192.852 17.8949 192.349 18.6619 191.475 18.6619ZM199.074 20.1278C201.06 20.1278 202.296 18.7685 202.296 16.7528C202.296 14.7244 201.06 13.3693 199.074 13.3693C197.089 13.3693 195.853 14.7244 195.853 16.7528C195.853 18.7685 197.089 20.1278 199.074 20.1278ZM199.083 18.7216C198.167 18.7216 197.698 17.8821 197.698 16.7401C197.698 15.598 198.167 14.7543 199.083 14.7543C199.982 14.7543 200.451 15.598 200.451 16.7401C200.451 17.8821 199.982 18.7216 199.083 18.7216Z" fill="white"/>
<defs>
<filter id="filter0_d" x="255" y="12" width="206" height="263" filterUnits="userSpaceOnUse" color-interpolation-filters="sRGB">
<feFlood flood-opacity="0" result="BackgroundImageFix"/>
<feColorMatrix in="SourceAlpha" type="matrix" values="0 0 0 0 0 0 0 0 0 0 0 0 0 0 0 0 0 0 127 0"/>
<feOffset dy="4"/>
<feGaussianBlur stdDeviation="4"/>
<feColorMatrix type="matrix" values="0 0 0 0 0.35 0 0 0 0 0.285075 0 0 0 0 0.118125 0 0 0 0.16 0"/>
<feBlend mode="normal" in2="BackgroundImageFix" result="effect1_dropShadow"/>
<feBlend mode="normal" in="SourceGraphic" in2="effect1_dropShadow" result="shape"/>
</filter>
<filter id="filter1_d" x="-141" y="12" width="206" height="263" filterUnits="userSpaceOnUse" color-interpolation-filters="sRGB">
<feFlood flood-opacity="0" result="BackgroundImageFix"/>
<feColorMatrix in="SourceAlpha" type="matrix" values="0 0 0 0 0 0 0 0 0 0 0 0 0 0 0 0 0 0 127 0"/>
<feOffset dy="4"/>
<feGaussianBlur stdDeviation="4"/>
<feColorMatrix type="matrix" values="0 0 0 0 0.35 0 0 0 0 0.285075 0 0 0 0 0.118125 0 0 0 0.16 0"/>
<feBlend mode="normal" in2="BackgroundImageFix" result="effect1_dropShadow"/>
<feBlend mode="normal" in="SourceGraphic" in2="effect1_dropShadow" result="shape"/>
</filter>
<filter id="filter2_d" x="57" y="12" width="206" height="263" filterUnits="userSpaceOnUse" color-interpolation-filters="sRGB">
<feFlood flood-opacity="0" result="BackgroundImageFix"/>
<feColorMatrix in="SourceAlpha" type="matrix" values="0 0 0 0 0 0 0 0 0 0 0 0 0 0 0 0 0 0 127 0"/>
<feOffset dy="4"/>
<feGaussianBlur stdDeviation="4"/>
<feColorMatrix type="matrix" values="0 0 0 0 0.35 0 0 0 0 0.285075 0 0 0 0 0.118125 0 0 0 0.16 0"/>
<feBlend mode="normal" in2="BackgroundImageFix" result="effect1_dropShadow"/>
<feBlend mode="normal" in="SourceGraphic" in2="effect1_dropShadow" result="shape"/>
</filter>
</defs>
</svg>
